<svg xmlns="http://www.w3.org/2000/svg" xmlns:xlink="http://www.w3.org/1999/xlink" width="50" zoomAndPan="magnify" viewBox="0 0 37.5 37.499999" height="50" preserveAspectRatio="xMidYMid meet" version="1.0"><defs><g/><clipPath id="1fd0f3935d"><path d="M 0.191406 0.167969 L 37.007812 0.167969 L 37.007812 37.007812 L 0.191406 37.007812 Z M 0.191406 0.167969 " clip-rule="nonzero"/></clipPath><clipPath id="d0faa4e254"><path d="M 11.5625 9 L 26.5 9 L 26.5 17 L 11.5625 17 Z M 11.5625 9 " clip-rule="nonzero"/></clipPath><clipPath id="782b31d769"><path d="M 14 16 L 24 16 L 24 28.792969 L 14 28.792969 Z M 14 16 " clip-rule="nonzero"/></clipPath><clipPath id="8655dabb81"><path d="M 11.5625 8.875 L 26.5 8.875 L 26.5 28.792969 L 11.5625 28.792969 Z M 11.5625 8.875 " clip-rule="nonzero"/></clipPath></defs><g clip-path="url(#1fd0f3935d)"><path fill="#faf0eb" d="M 37.164062 18.839844 C 37.164062 19.441406 37.132812 20.039062 37.074219 20.632812 C 37.015625 21.230469 36.929688 21.824219 36.8125 22.410156 C 36.695312 23 36.550781 23.578125 36.375 24.152344 C 36.203125 24.726562 36 25.289062 35.769531 25.84375 C 35.542969 26.398438 35.285156 26.9375 35.003906 27.46875 C 34.71875 27.996094 34.414062 28.507812 34.078125 29.007812 C 33.746094 29.503906 33.390625 29.984375 33.011719 30.449219 C 32.628906 30.914062 32.226562 31.355469 31.804688 31.78125 C 31.378906 32.203125 30.9375 32.605469 30.472656 32.984375 C 30.011719 33.367188 29.53125 33.722656 29.03125 34.054688 C 28.53125 34.390625 28.019531 34.695312 27.492188 34.980469 C 26.960938 35.261719 26.421875 35.515625 25.867188 35.746094 C 25.3125 35.976562 24.75 36.179688 24.175781 36.351562 C 23.601562 36.527344 23.023438 36.671875 22.433594 36.789062 C 21.847656 36.90625 21.253906 36.992188 20.660156 37.050781 C 20.0625 37.109375 19.464844 37.140625 18.863281 37.140625 C 18.265625 37.140625 17.667969 37.109375 17.070312 37.050781 C 16.476562 36.992188 15.882812 36.90625 15.296875 36.789062 C 14.707031 36.671875 14.125 36.527344 13.554688 36.351562 C 12.980469 36.179688 12.417969 35.976562 11.863281 35.746094 C 11.308594 35.515625 10.765625 35.261719 10.238281 34.980469 C 9.710938 34.695312 9.195312 34.390625 8.699219 34.054688 C 8.199219 33.722656 7.71875 33.367188 7.257812 32.984375 C 6.792969 32.605469 6.347656 32.203125 5.925781 31.78125 C 5.503906 31.355469 5.101562 30.914062 4.71875 30.449219 C 4.339844 29.984375 3.984375 29.503906 3.648438 29.007812 C 3.316406 28.507812 3.007812 27.996094 2.726562 27.46875 C 2.445312 26.9375 2.1875 26.398438 1.960938 25.84375 C 1.730469 25.289062 1.527344 24.726562 1.355469 24.152344 C 1.179688 23.578125 1.035156 23 0.917969 22.410156 C 0.800781 21.824219 0.714844 21.230469 0.652344 20.632812 C 0.59375 20.039062 0.566406 19.441406 0.566406 18.839844 C 0.566406 18.242188 0.59375 17.644531 0.652344 17.046875 C 0.714844 16.449219 0.800781 15.859375 0.917969 15.269531 C 1.035156 14.683594 1.179688 14.101562 1.355469 13.527344 C 1.527344 12.957031 1.730469 12.390625 1.960938 11.839844 C 2.1875 11.285156 2.445312 10.742188 2.726562 10.214844 C 3.007812 9.6875 3.316406 9.171875 3.648438 8.675781 C 3.984375 8.175781 4.339844 7.695312 4.71875 7.230469 C 5.101562 6.769531 5.503906 6.324219 5.925781 5.902344 C 6.347656 5.476562 6.792969 5.074219 7.257812 4.695312 C 7.71875 4.316406 8.199219 3.957031 8.699219 3.625 C 9.195312 3.292969 9.710938 2.984375 10.238281 2.703125 C 10.765625 2.421875 11.308594 2.164062 11.863281 1.933594 C 12.417969 1.707031 12.980469 1.503906 13.554688 1.328125 C 14.125 1.15625 14.707031 1.011719 15.296875 0.894531 C 15.882812 0.777344 16.476562 0.6875 17.070312 0.628906 C 17.667969 0.570312 18.265625 0.542969 18.863281 0.542969 C 19.464844 0.542969 20.0625 0.570312 20.660156 0.628906 C 21.253906 0.6875 21.847656 0.777344 22.433594 0.894531 C 23.023438 1.011719 23.601562 1.15625 24.175781 1.328125 C 24.75 1.503906 25.3125 1.707031 25.867188 1.933594 C 26.421875 2.164062 26.960938 2.421875 27.492188 2.703125 C 28.019531 2.984375 28.53125 3.292969 29.03125 3.625 C 29.53125 3.957031 30.011719 4.316406 30.472656 4.695312 C 30.9375 5.074219 31.378906 5.476562 31.804688 5.902344 C 32.226562 6.324219 32.628906 6.769531 33.011719 7.230469 C 33.390625 7.695312 33.746094 8.175781 34.078125 8.675781 C 34.414062 9.171875 34.71875 9.6875 35.003906 10.214844 C 35.285156 10.742188 35.542969 11.285156 35.769531 11.839844 C 36 12.390625 36.203125 12.957031 36.375 13.527344 C 36.550781 14.101562 36.695312 14.683594 36.8125 15.269531 C 36.929688 15.859375 37.015625 16.449219 37.074219 17.046875 C 37.132812 17.644531 37.164062 18.242188 37.164062 18.839844 Z M 37.164062 18.839844 " fill-opacity="1" fill-rule="nonzero"/><path fill="#000000" d="M 18.863281 37.511719 C 13.875 37.511719 9.183594 35.570312 5.660156 32.046875 C 2.132812 28.519531 0.191406 23.828125 0.191406 18.839844 C 0.191406 13.851562 2.132812 9.160156 5.660156 5.636719 C 9.183594 2.109375 13.875 0.167969 18.863281 0.167969 C 23.855469 0.167969 28.542969 2.109375 32.070312 5.636719 C 35.59375 9.160156 37.539062 13.851562 37.539062 18.839844 C 37.539062 23.828125 35.59375 28.519531 32.070312 32.046875 C 28.542969 35.570312 23.855469 37.511719 18.863281 37.511719 Z M 18.863281 0.914062 C 8.984375 0.914062 0.941406 8.960938 0.941406 18.839844 C 0.941406 28.722656 8.984375 36.765625 18.863281 36.765625 C 28.746094 36.765625 36.789062 28.722656 36.789062 18.839844 C 36.789062 8.960938 28.746094 0.914062 18.863281 0.914062 Z M 18.863281 0.914062 " fill-opacity="1" fill-rule="nonzero"/></g><path fill="#000000" d="M 18.863281 32.300781 C 11.449219 32.300781 5.40625 26.265625 5.40625 18.839844 C 5.40625 11.417969 11.449219 5.382812 18.863281 5.382812 C 26.28125 5.382812 32.324219 11.425781 32.324219 18.839844 C 32.324219 26.257812 26.28125 32.300781 18.863281 32.300781 Z M 18.863281 6.128906 C 11.859375 6.128906 6.152344 11.828125 6.152344 18.839844 C 6.152344 25.855469 11.859375 31.554688 18.863281 31.554688 C 25.871094 31.554688 31.578125 25.847656 31.578125 18.839844 C 31.578125 11.835938 25.871094 6.128906 18.863281 6.128906 Z M 18.863281 6.128906 " fill-opacity="1" fill-rule="nonzero"/><path fill="#000000" d="M 1.089844 13.6875 L 6.617188 13.6875 L 6.617188 14.433594 L 1.089844 14.433594 Z M 1.089844 13.6875 " fill-opacity="1" fill-rule="nonzero"/><path fill="#000000" d="M 1.238281 23.171875 L 6.617188 23.171875 L 6.617188 23.917969 L 1.238281 23.917969 Z M 1.238281 23.171875 " fill-opacity="1" fill-rule="nonzero"/><path fill="#000000" d="M 31.113281 13.6875 L 36.640625 13.6875 L 36.640625 14.433594 L 31.113281 14.433594 Z M 31.113281 13.6875 " fill-opacity="1" fill-rule="nonzero"/><path fill="#000000" d="M 31.113281 23.171875 L 36.566406 23.171875 L 36.566406 23.917969 L 31.113281 23.917969 Z M 31.113281 23.171875 " fill-opacity="1" fill-rule="nonzero"/><path fill="#fbfffc" d="M 22.492188 27.03125 C 22.480469 27.195312 22.511719 27.410156 22.40625 27.554688 C 21.953125 27.703125 21.476562 27.773438 21 27.796875 C 19.855469 27.828125 18.703125 27.863281 17.5625 27.769531 C 17.261719 27.722656 16.902344 27.785156 16.65625 27.585938 C 16.574219 27.476562 16.542969 27.257812 16.652344 27.167969 C 17.300781 27.148438 17.960938 27.128906 18.59375 26.96875 C 18.847656 26.9375 18.984375 26.707031 19.027344 26.484375 C 19.140625 25.609375 19.050781 24.714844 19.144531 23.835938 C 19.148438 23.589844 19.347656 23.441406 19.535156 23.316406 C 19.375 23.152344 19.101562 23.078125 18.902344 22.941406 C 18.726562 22.890625 18.800781 22.667969 18.953125 22.644531 C 19.292969 22.664062 19.589844 22.90625 19.9375 22.914062 C 20.242188 22.824219 20.507812 22.632812 20.761719 22.449219 C 20.933594 22.363281 20.855469 22.097656 21.046875 22.042969 C 21.222656 22.0625 21.371094 22.195312 21.527344 22.273438 C 21.667969 22.3125 21.734375 22.484375 21.601562 22.578125 C 21.160156 22.863281 20.664062 23.078125 20.167969 23.265625 C 20.089844 23.324219 19.863281 23.292969 19.867188 23.425781 C 19.953125 23.507812 20.144531 23.34375 20.207031 23.480469 C 20.296875 24.226562 20.332031 24.988281 20.367188 25.742188 C 20.40625 26.089844 20.320312 26.53125 20.648438 26.765625 C 21.046875 27 21.535156 26.933594 21.976562 26.957031 C 22.136719 26.992188 22.390625 26.878906 22.492188 27.03125 Z M 18.464844 24.800781 C 18.441406 24.800781 18.417969 24.796875 18.394531 24.800781 C 18.347656 24.8125 18.316406 24.859375 18.320312 24.90625 C 18.320312 24.976562 18.316406 25.054688 18.335938 25.125 C 18.351562 25.175781 18.414062 25.207031 18.464844 25.183594 C 18.515625 25.164062 18.53125 25.109375 18.550781 25.0625 C 18.574219 25 18.585938 24.929688 18.570312 24.863281 C 18.554688 24.820312 18.507812 24.796875 18.464844 24.800781 Z M 20.726562 25.132812 C 20.726562 25.132812 20.726562 25.136719 20.726562 25.136719 C 20.730469 25.140625 20.730469 25.144531 20.730469 25.148438 C 20.730469 25.152344 20.730469 25.152344 20.730469 25.15625 C 20.730469 25.1875 20.730469 25.21875 20.734375 25.246094 C 20.734375 25.246094 20.734375 25.25 20.734375 25.25 C 20.738281 25.261719 20.738281 25.277344 20.742188 25.292969 C 20.742188 25.292969 20.742188 25.292969 20.742188 25.296875 C 20.746094 25.308594 20.746094 25.320312 20.75 25.335938 C 20.75 25.335938 20.75 25.335938 20.75 25.339844 C 20.75 25.339844 20.75 25.339844 20.753906 25.339844 C 20.753906 25.34375 20.753906 25.347656 20.757812 25.351562 C 20.765625 25.375 20.789062 25.394531 20.8125 25.402344 C 20.847656 25.414062 20.890625 25.40625 20.914062 25.378906 C 20.933594 25.359375 20.941406 25.332031 20.941406 25.304688 C 20.941406 25.300781 20.941406 25.292969 20.9375 25.285156 C 20.9375 25.277344 20.9375 25.269531 20.9375 25.261719 C 20.933594 25.207031 20.925781 25.152344 20.921875 25.097656 C 20.917969 25.078125 20.910156 25.054688 20.898438 25.039062 C 20.878906 25.015625 20.847656 25.003906 20.816406 25.007812 C 20.78125 25.007812 20.746094 25.035156 20.734375 25.066406 C 20.730469 25.082031 20.726562 25.097656 20.726562 25.113281 C 20.726562 25.117188 20.726562 25.125 20.726562 25.132812 Z M 20.964844 24.070312 C 20.949219 23.792969 20.90625 23.507812 20.8125 23.242188 C 20.792969 23.203125 20.753906 23.179688 20.710938 23.1875 C 20.632812 23.207031 20.5625 23.242188 20.488281 23.269531 C 20.441406 23.292969 20.382812 23.300781 20.34375 23.339844 C 20.300781 23.382812 20.324219 23.445312 20.324219 23.496094 C 20.359375 23.886719 20.390625 24.277344 20.417969 24.667969 C 20.425781 24.722656 20.484375 24.757812 20.519531 24.792969 C 20.585938 24.847656 20.671875 24.902344 20.761719 24.878906 C 20.847656 24.859375 20.886719 24.769531 20.910156 24.695312 C 20.96875 24.492188 20.972656 24.28125 20.964844 24.070312 Z M 18.363281 23.339844 C 18.457031 23.375 18.554688 23.398438 18.652344 23.382812 C 18.691406 23.378906 18.710938 23.429688 18.6875 23.457031 C 18.542969 23.683594 18.386719 23.90625 18.242188 24.132812 C 18.21875 24.183594 18.238281 24.238281 18.238281 24.289062 C 18.253906 24.402344 18.261719 24.515625 18.285156 24.628906 C 18.300781 24.679688 18.355469 24.707031 18.40625 24.710938 C 18.464844 24.710938 18.527344 24.714844 18.582031 24.699219 C 18.644531 24.671875 18.652344 24.601562 18.671875 24.546875 C 18.796875 24.160156 18.898438 23.769531 19.003906 23.378906 C 19.015625 23.316406 19.042969 23.253906 19.042969 23.191406 C 19.035156 23.140625 18.988281 23.113281 18.945312 23.09375 C 18.84375 23.042969 18.742188 22.988281 18.640625 22.941406 C 18.625 22.933594 18.609375 22.933594 18.59375 22.933594 C 18.519531 22.957031 18.457031 23.003906 18.386719 23.027344 C 18.316406 23.054688 18.242188 23.058594 18.175781 23.085938 C 18.125 23.121094 18.117188 23.199219 18.167969 23.234375 C 18.226562 23.277344 18.296875 23.308594 18.363281 23.339844 Z M 18.363281 23.339844 " fill-opacity="1" fill-rule="nonzero"/><path fill="#f5625b" d="M 21.726562 20.703125 C 21.554688 20.816406 21.3125 21.050781 21.097656 20.894531 C 20.9375 20.667969 21.003906 20.355469 21.019531 20.097656 C 21.070312 19.945312 21.046875 19.707031 21.214844 19.632812 L 21.234375 19.632812 C 21.449219 19.703125 21.542969 19.945312 21.664062 20.117188 C 21.753906 20.289062 21.949219 20.550781 21.726562 20.703125 Z M 21.726562 20.703125 " fill-opacity="1" fill-rule="nonzero"/><g clip-path="url(#d0faa4e254)"><path fill="#56504f" d="M 19.527344 13.105469 C 17.863281 13.671875 16.382812 14.703125 15.148438 15.917969 C 15.03125 16.011719 14.9375 16.175781 14.773438 16.191406 C 14.675781 16.175781 14.539062 16.257812 14.480469 16.152344 C 14.265625 15.410156 14.132812 14.640625 14.136719 13.867188 C 14.117188 13.125 14.234375 12.367188 14.546875 11.6875 C 14.757812 11.222656 15.089844 10.824219 15.46875 10.484375 C 15.535156 10.457031 15.480469 10.359375 15.425781 10.40625 C 15.164062 10.589844 14.953125 10.835938 14.769531 11.089844 C 14.246094 11.835938 14.042969 12.753906 14.035156 13.644531 C 14.011719 14.414062 14.121094 15.1875 14.308594 15.933594 C 14.324219 16.035156 14.429688 16.195312 14.289062 16.25 C 13.613281 16.367188 12.964844 16.601562 12.34375 16.886719 C 12.238281 16.945312 12.175781 16.820312 12.171875 16.730469 C 11.941406 15.882812 11.753906 15.003906 11.847656 14.117188 C 11.917969 13.222656 12.277344 12.339844 12.910156 11.679688 C 13.679688 10.851562 14.742188 10.355469 15.824219 10.042969 C 16.773438 9.773438 17.761719 9.589844 18.753906 9.589844 C 18.816406 9.589844 18.878906 9.589844 18.941406 9.589844 C 19.917969 9.589844 20.914062 9.828125 21.726562 10.371094 C 22.527344 10.898438 23.082031 11.742188 23.324219 12.648438 C 23.355469 12.730469 23.394531 12.871094 23.265625 12.886719 C 23.113281 12.867188 22.96875 12.824219 22.816406 12.800781 C 21.71875 12.617188 20.574219 12.753906 19.527344 13.105469 Z M 23.585938 13.367188 C 23.664062 13.378906 23.765625 13.328125 23.738281 13.242188 C 23.695312 13.160156 23.585938 13.144531 23.507812 13.097656 C 23.132812 12.925781 22.710938 12.878906 22.300781 12.835938 C 22.128906 12.824219 21.953125 12.816406 21.78125 12.816406 C 20.675781 12.820312 19.585938 13.125 18.59375 13.589844 C 17.332031 14.1875 16.203125 15.023438 15.21875 15.992188 C 15.148438 16.0625 15.21875 16.179688 15.3125 16.167969 C 15.898438 16.203125 16.476562 16.320312 17.066406 16.292969 C 17.695312 16.289062 18.335938 16.132812 18.839844 15.753906 C 19.167969 15.503906 19.453125 15.207031 19.773438 14.949219 C 20.484375 14.359375 21.292969 13.867188 22.183594 13.578125 C 22.632812 13.429688 23.113281 13.367188 23.585938 13.367188 Z M 25.96875 14.675781 C 25.574219 14.238281 25.0625 13.914062 24.546875 13.632812 C 24.207031 13.46875 23.816406 13.480469 23.449219 13.476562 C 22.75 13.46875 22.066406 13.695312 21.441406 13.988281 C 21.304688 14.019531 21.226562 14.210938 21.441406 14.210938 C 22.242188 14.277344 23.042969 14.375 23.792969 14.671875 C 24.132812 14.8125 24.492188 14.972656 24.722656 15.261719 C 24.691406 15.359375 24.582031 15.269531 24.542969 15.230469 C 24.402344 15.160156 24.363281 15.335938 24.410156 15.433594 C 24.453125 15.644531 24.425781 15.875 24.503906 16.078125 C 24.6875 16.128906 24.890625 16.070312 25.082031 16.054688 C 25.476562 15.984375 25.929688 15.886719 26.179688 15.550781 C 26.363281 15.253906 26.179688 14.902344 25.96875 14.675781 Z M 15.972656 9.894531 C 16.261719 9.808594 16.5625 9.757812 16.851562 9.675781 C 16.96875 9.589844 16.863281 9.441406 16.816406 9.34375 C 16.71875 9.167969 16.523438 9.074219 16.324219 9.085938 C 16.035156 9.097656 15.699219 9.222656 15.609375 9.511719 C 15.585938 9.640625 15.554688 9.789062 15.617188 9.90625 C 15.714844 10.003906 15.859375 9.90625 15.972656 9.894531 Z M 15.972656 9.894531 " fill-opacity="1" fill-rule="nonzero"/></g><g clip-path="url(#782b31d769)"><path fill="#f9cec2" d="M 17.640625 20.339844 C 17.632812 20.445312 17.703125 20.585938 17.601562 20.65625 C 17.46875 20.699219 17.324219 20.734375 17.214844 20.832031 C 17.152344 20.902344 17.011719 20.964844 16.972656 20.839844 C 16.902344 20.398438 16.839844 19.953125 16.722656 19.519531 C 16.675781 19.332031 16.882812 19.203125 17.054688 19.214844 C 17.132812 19.214844 17.226562 19.21875 17.285156 19.277344 C 17.503906 19.589844 17.601562 19.96875 17.640625 20.339844 Z M 18.5 20.996094 C 18.269531 20.847656 17.992188 20.773438 17.714844 20.757812 C 17.710938 20.757812 17.707031 20.757812 17.707031 20.757812 C 17.496094 20.757812 17.289062 20.859375 17.164062 21.027344 C 17 21.242188 16.945312 21.515625 16.9375 21.78125 C 16.929688 22.015625 16.992188 22.25 17.121094 22.445312 C 17.304688 22.71875 17.59375 22.9375 17.929688 22.988281 C 18.214844 23.027344 18.515625 22.914062 18.707031 22.707031 C 18.925781 22.476562 19.03125 22.15625 19.007812 21.847656 C 18.992188 21.507812 18.792969 21.183594 18.5 20.996094 Z M 17.757812 20.320312 C 17.734375 20.382812 17.75 20.453125 17.75 20.519531 C 17.75 20.570312 17.75 20.640625 17.808594 20.664062 C 17.878906 20.6875 17.957031 20.691406 18.03125 20.710938 C 18.082031 20.71875 18.132812 20.742188 18.1875 20.746094 C 18.257812 20.75 18.308594 20.675781 18.292969 20.613281 C 18.277344 20.488281 18.230469 20.351562 18.109375 20.292969 C 18.050781 20.253906 17.980469 20.257812 17.914062 20.257812 C 17.859375 20.257812 17.785156 20.257812 17.757812 20.320312 Z M 16.945312 21.230469 C 16.941406 21.265625 16.925781 21.296875 16.894531 21.316406 C 16.867188 21.332031 16.828125 21.332031 16.796875 21.316406 C 16.769531 21.308594 16.746094 21.285156 16.738281 21.253906 C 16.734375 21.253906 16.734375 21.25 16.734375 21.246094 C 16.339844 21.039062 16.105469 20.636719 15.878906 20.273438 C 15.839844 20.15625 15.757812 20.097656 15.632812 20.121094 C 15.316406 20.140625 14.976562 20.09375 14.734375 19.871094 C 14.382812 19.578125 14.164062 19.109375 14.199219 18.660156 C 14.316406 18.226562 14.820312 18.054688 15.230469 18.007812 C 15.464844 18.019531 15.6875 17.84375 15.917969 17.96875 C 16.019531 17.988281 16.007812 18.101562 16.0625 18.148438 C 16.289062 18.105469 16.394531 17.839844 16.601562 17.757812 C 16.84375 17.710938 17.070312 17.621094 17.296875 17.542969 C 17.453125 17.546875 17.578125 17.460938 17.726562 17.433594 C 18.109375 17.402344 18.457031 17.21875 18.835938 17.164062 C 18.945312 17.203125 18.988281 17.113281 19.074219 17.082031 C 19.28125 17.097656 19.492188 17.164062 19.707031 17.128906 C 19.914062 17.15625 20.097656 16.992188 20.296875 17.046875 C 20.347656 17.125 20.453125 17.109375 20.488281 17.023438 C 20.660156 16.941406 20.835938 17.105469 21.015625 17.085938 C 21.339844 17.152344 21.644531 16.984375 21.964844 17.03125 C 22.03125 16.976562 22.113281 16.890625 22.226562 16.90625 C 22.660156 16.917969 23.074219 16.78125 23.5 16.71875 C 23.582031 16.71875 23.667969 16.722656 23.738281 16.769531 C 23.855469 16.894531 23.757812 17.09375 23.820312 17.246094 C 24.03125 18.308594 23.949219 19.519531 23.234375 20.394531 C 22.410156 21.375 21.085938 21.777344 19.835938 21.867188 C 19.601562 21.859375 19.339844 21.9375 19.121094 21.863281 C 19.085938 21.507812 18.921875 21.140625 18.601562 20.933594 C 18.332031 20.800781 18.449219 20.449219 18.253906 20.265625 C 18.128906 20.101562 17.882812 20.21875 17.746094 20.113281 C 17.632812 19.792969 17.582031 19.394531 17.296875 19.15625 C 17.0625 19.039062 16.59375 19.125 16.613281 19.449219 C 16.675781 19.933594 16.808594 20.40625 16.855469 20.890625 C 16.859375 20.953125 16.882812 21.050781 16.875 21.128906 C 16.890625 21.132812 16.902344 21.140625 16.914062 21.152344 C 16.933594 21.175781 16.945312 21.203125 16.945312 21.230469 Z M 21.78125 18.25 C 21.847656 18.527344 22.105469 18.847656 22.429688 18.722656 C 22.757812 18.535156 22.730469 18.117188 22.703125 17.800781 C 22.765625 17.632812 23.054688 17.6875 23.125 17.5 C 23.222656 17.386719 23.101562 17.351562 23.007812 17.367188 C 22.839844 17.363281 22.957031 17.167969 22.867188 17.125 C 22.726562 17.160156 22.671875 17.335938 22.546875 17.394531 C 22.378906 17.335938 22.183594 17.238281 22 17.332031 C 21.714844 17.53125 21.707031 17.945312 21.78125 18.25 Z M 20.894531 20.375 C 20.914062 20.59375 20.839844 20.890625 21.0625 21.03125 C 21.402344 21.148438 21.738281 20.894531 21.957031 20.660156 C 21.996094 20.386719 21.816406 20.125 21.675781 19.894531 C 21.558594 19.753906 21.441406 19.523438 21.230469 19.503906 C 21.191406 19.503906 21.148438 19.511719 21.117188 19.53125 C 20.882812 19.742188 20.914062 20.09375 20.894531 20.375 Z M 18.035156 18.058594 C 18.046875 18.285156 18.367188 18.273438 18.445312 18.460938 C 18.519531 18.734375 18.6875 19.089844 19.039062 19.054688 C 19.300781 18.996094 19.410156 18.683594 19.425781 18.449219 C 19.445312 18.113281 19.320312 17.652344 18.925781 17.589844 C 18.753906 17.574219 18.644531 17.707031 18.519531 17.792969 C 18.371094 17.886719 18.320312 17.667969 18.203125 17.65625 C 18.089844 17.730469 18.277344 17.832031 18.230469 17.925781 C 18.21875 18.042969 18.039062 17.964844 18.035156 18.058594 Z M 15.640625 19.414062 C 15.65625 19.050781 15.378906 18.726562 15.097656 18.515625 C 14.984375 18.5 15.015625 18.554688 15.058594 18.621094 C 15.15625 18.773438 15.441406 18.886719 15.261719 19.089844 C 15.207031 19.207031 15.09375 19.402344 15.199219 19.511719 C 15.390625 19.546875 15.21875 19.25 15.375 19.214844 C 15.554688 19.160156 15.476562 19.453125 15.640625 19.414062 Z M 20.675781 21.878906 C 20.230469 21.945312 19.792969 21.996094 19.34375 22.003906 C 19.246094 22.003906 19.101562 21.996094 19.097656 22.128906 C 19.085938 22.242188 19.003906 22.351562 19.035156 22.464844 C 19.121094 22.578125 19.285156 22.589844 19.402344 22.652344 C 19.574219 22.703125 19.742188 22.800781 19.925781 22.800781 C 20.195312 22.707031 20.433594 22.546875 20.660156 22.382812 C 20.765625 22.324219 20.8125 22.214844 20.792969 22.101562 C 20.785156 22.015625 20.804688 21.878906 20.675781 21.878906 Z M 23.628906 27.910156 C 23.300781 27.859375 22.972656 27.796875 22.648438 27.71875 C 22.628906 27.722656 22.613281 27.722656 22.597656 27.722656 C 22.507812 27.769531 22.507812 27.882812 22.484375 27.96875 C 22.441406 28.144531 22.519531 28.34375 22.6875 28.429688 C 22.890625 28.535156 23.140625 28.570312 23.363281 28.511719 C 23.582031 28.449219 23.726562 28.238281 23.777344 28.03125 C 23.789062 27.945312 23.703125 27.90625 23.628906 27.910156 Z M 23.628906 27.910156 " fill-opacity="1" fill-rule="nonzero"/></g><path fill="#b06649" d="M 24.941406 23.886719 C 23.824219 24.503906 23.171875 23.917969 23.171875 23.917969 C 23.035156 23.496094 21.695312 22.613281 21.695312 22.613281 C 22.144531 22.339844 21.242188 22.140625 21.242188 22.140625 L 20.910156 22.191406 L 20.816406 21.792969 C 24.679688 21.03125 23.964844 17.164062 23.964844 17.164062 C 23.753906 17.046875 23.644531 16.707031 23.644531 16.707031 C 22.816406 17.046875 21.910156 16.988281 21.910156 16.988281 C 21.199219 17.4375 20.40625 16.984375 20.40625 16.984375 C 19.625 17.464844 18.988281 17.089844 18.988281 17.089844 C 18.046875 17.644531 17.433594 17.480469 17.433594 17.480469 C 16.90625 17.9375 16.605469 17.714844 16.4375 17.878906 C 16.269531 18.042969 16.257812 18.136719 15.492188 17.949219 C 14.726562 17.761719 13.863281 18.347656 14.269531 19.363281 C 14.679688 20.382812 15.730469 20.195312 15.730469 20.195312 C 15.984375 20.835938 16.929688 21.433594 16.929688 21.433594 C 16.847656 21.585938 16.871094 22.242188 16.871094 22.242188 C 14.332031 23.351562 14.617188 24.507812 14.691406 24.761719 C 14.761719 25.011719 14.320312 24.859375 14.320312 24.859375 C 14.386719 25.152344 13.449219 25.183594 13.449219 25.183594 C 12.808594 24.605469 12.433594 23.53125 12.6875 22.785156 C 12.941406 22.042969 12.960938 21.628906 12.839844 20.488281 C 12.722656 19.347656 12.230469 16.996094 12.230469 16.996094 C 14.296875 15.941406 16.042969 16.304688 17.226562 16.304688 C 18.414062 16.304688 19.140625 15.558594 19.394531 15.3125 C 19.648438 15.0625 20.867188 14.253906 20.867188 14.253906 C 22.105469 14.203125 24.269531 14.898438 24.269531 14.898438 C 24.269531 14.898438 24.320312 15.707031 24.371094 16.203125 C 24.425781 16.699219 24.949219 19.445312 25.339844 20.355469 C 25.726562 21.265625 26.058594 23.265625 24.941406 23.886719 Z M 24.941406 23.886719 " fill-opacity="1" fill-rule="nonzero"/><path fill="#2e97e5" d="M 18.914062 26.363281 C 18.933594 26.472656 18.878906 26.585938 18.835938 26.683594 C 18.78125 26.808594 18.644531 26.851562 18.523438 26.878906 C 17.914062 27.015625 17.285156 27.0625 16.660156 27.042969 C 16.53125 27.023438 16.382812 27.03125 16.273438 26.945312 C 16.164062 26.8125 16.160156 26.628906 16.132812 26.46875 C 16.113281 26.398438 16.125 26.304688 16.21875 26.296875 C 16.929688 26.289062 17.640625 26.285156 18.355469 26.28125 C 18.445312 26.28125 18.539062 26.28125 18.632812 26.28125 C 18.726562 26.292969 18.871094 26.253906 18.914062 26.363281 Z M 22.765625 25.546875 C 22.824219 25.925781 22.914062 26.308594 22.859375 26.691406 C 22.859375 26.792969 22.742188 26.882812 22.804688 26.976562 C 22.890625 27.0625 23.019531 26.980469 23.125 26.984375 C 23.363281 26.945312 23.605469 26.917969 23.832031 26.851562 C 23.921875 26.773438 23.886719 26.628906 23.902344 26.523438 C 23.917969 26.046875 23.875 25.566406 23.726562 25.109375 C 23.472656 24.300781 22.949219 23.574219 22.273438 23.046875 C 22.246094 23.03125 22.214844 23.035156 22.183594 23.042969 C 22.0625 23.113281 22.167969 23.246094 22.191406 23.339844 C 22.457031 24.054688 22.621094 24.800781 22.765625 25.546875 Z M 24.265625 26.953125 C 24.25 26.898438 24.199219 26.863281 24.140625 26.875 C 23.667969 27.027344 23.164062 27.070312 22.671875 27.152344 C 22.539062 27.21875 22.613281 27.394531 22.601562 27.507812 C 22.601562 27.65625 22.792969 27.640625 22.902344 27.675781 C 23.253906 27.746094 23.609375 27.828125 23.96875 27.84375 C 24.128906 27.84375 24.140625 27.652344 24.171875 27.542969 C 24.207031 27.347656 24.28125 27.152344 24.265625 26.953125 Z M 20.949219 26.0625 C 21 26.175781 21.152344 26.113281 21.253906 26.128906 C 21.722656 26.144531 22.199219 26.152344 22.667969 26.191406 C 22.800781 26.15625 22.730469 26 22.722656 25.90625 C 22.660156 25.589844 22.621094 25.269531 22.539062 24.960938 C 22.472656 24.859375 22.34375 24.9375 22.289062 25.007812 C 22.152344 25.136719 21.984375 25.324219 21.773438 25.238281 C 21.550781 25.15625 21.34375 25.027344 21.140625 24.910156 C 21.105469 24.894531 21.078125 24.914062 21.046875 24.921875 C 20.960938 25.019531 21.046875 25.152344 21.03125 25.269531 C 21.042969 25.371094 21.007812 25.464844 20.96875 25.554688 C 20.949219 25.722656 20.9375 25.898438 20.949219 26.0625 Z M 22.742188 26.746094 C 22.789062 26.628906 22.773438 26.503906 22.773438 26.382812 C 22.761719 26.289062 22.644531 26.289062 22.570312 26.277344 C 22.023438 26.234375 21.472656 26.230469 20.925781 26.226562 C 20.804688 26.230469 20.683594 26.21875 20.566406 26.234375 L 20.558594 26.238281 L 20.554688 26.238281 C 20.480469 26.28125 20.507812 26.367188 20.535156 26.433594 C 20.617188 26.652344 20.839844 26.804688 21.078125 26.816406 C 21.558594 26.851562 22.042969 26.863281 22.527344 26.855469 C 22.613281 26.859375 22.714844 26.835938 22.742188 26.746094 Z M 20.648438 26.132812 C 20.714844 26.132812 20.816406 26.144531 20.832031 26.058594 C 20.859375 25.917969 20.851562 25.769531 20.859375 25.621094 C 20.859375 25.558594 20.800781 25.53125 20.75 25.507812 C 20.691406 25.46875 20.683594 25.390625 20.640625 25.339844 C 20.648438 25.324219 20.652344 25.304688 20.652344 25.285156 C 20.648438 25.273438 20.648438 25.257812 20.644531 25.242188 C 20.636719 25.226562 20.625 25.214844 20.609375 25.203125 C 20.621094 25.195312 20.628906 25.183594 20.632812 25.171875 C 20.640625 25.15625 20.640625 25.140625 20.640625 25.128906 C 20.640625 25.101562 20.640625 25.074219 20.640625 25.046875 C 20.640625 25.039062 20.644531 25.027344 20.640625 25.019531 C 20.640625 24.988281 20.621094 24.960938 20.597656 24.949219 C 20.589844 24.941406 20.578125 24.9375 20.570312 24.933594 C 20.558594 24.929688 20.542969 24.929688 20.53125 24.929688 C 20.503906 24.933594 20.476562 24.945312 20.460938 24.96875 C 20.449219 24.984375 20.441406 25.007812 20.441406 25.03125 C 20.445312 25.070312 20.449219 25.105469 20.449219 25.140625 C 20.453125 25.167969 20.464844 25.191406 20.488281 25.207031 C 20.488281 25.207031 20.488281 25.210938 20.488281 25.210938 C 20.484375 25.210938 20.484375 25.214844 20.480469 25.21875 C 20.464844 25.234375 20.457031 25.257812 20.457031 25.28125 C 20.460938 25.292969 20.460938 25.300781 20.460938 25.3125 C 20.464844 25.332031 20.472656 25.347656 20.488281 25.359375 C 20.464844 25.40625 20.476562 25.464844 20.476562 25.511719 C 20.484375 25.691406 20.480469 25.867188 20.484375 26.046875 C 20.492188 26.125 20.582031 26.140625 20.648438 26.132812 Z M 20.53125 24.929688 Z M 21.070312 24.738281 C 21.257812 24.867188 21.457031 24.980469 21.664062 25.085938 C 21.757812 25.125 21.871094 25.199219 21.976562 25.140625 C 22.171875 25.023438 22.3125 24.832031 22.449219 24.652344 C 22.484375 24.582031 22.433594 24.503906 22.421875 24.429688 C 22.414062 24.378906 22.367188 24.339844 22.3125 24.34375 C 21.921875 24.355469 21.527344 24.371094 21.136719 24.386719 C 21.046875 24.390625 21.046875 24.492188 21.039062 24.558594 C 21.023438 24.621094 21.011719 24.695312 21.070312 24.738281 Z M 21.0625 24.203125 C 21.0625 24.257812 21.117188 24.300781 21.171875 24.292969 C 21.535156 24.277344 21.902344 24.269531 22.265625 24.25 C 22.324219 24.242188 22.363281 24.183594 22.34375 24.128906 C 22.277344 23.882812 22.203125 23.640625 22.113281 23.402344 C 22.035156 23.207031 21.949219 23.011719 21.820312 22.839844 C 21.78125 22.789062 21.734375 22.738281 21.671875 22.707031 C 21.652344 22.703125 21.636719 22.703125 21.617188 22.707031 C 21.535156 22.746094 21.464844 22.800781 21.386719 22.839844 C 21.242188 22.925781 21.089844 23 20.9375 23.074219 C 20.890625 23.097656 20.875 23.15625 20.894531 23.203125 C 21.011719 23.523438 21.054688 23.867188 21.0625 24.203125 Z M 18.851562 24.414062 C 18.773438 24.460938 18.777344 24.558594 18.742188 24.632812 C 18.71875 24.710938 18.65625 24.777344 18.664062 24.863281 C 18.667969 24.96875 18.660156 25.074219 18.601562 25.164062 C 18.5625 25.238281 18.5 25.308594 18.410156 25.328125 C 18.324219 25.367188 18.359375 25.472656 18.355469 25.546875 C 18.355469 25.695312 18.367188 25.839844 18.355469 25.984375 C 18.34375 25.992188 18.328125 26.003906 18.316406 26.015625 C 18.308594 26.007812 18.296875 26 18.285156 25.996094 C 18.25 25.953125 18.273438 25.882812 18.265625 25.832031 C 18.257812 25.542969 18.257812 25.25 18.21875 24.964844 C 18.207031 24.914062 18.152344 24.886719 18.097656 24.894531 C 17.824219 25.023438 17.570312 25.183594 17.285156 25.285156 C 17.191406 25.3125 17.105469 25.261719 17.039062 25.199219 C 16.964844 25.144531 16.914062 25.039062 16.816406 25.03125 C 16.726562 25.050781 16.648438 25.121094 16.558594 25.152344 C 16.429688 25.21875 16.289062 25.261719 16.15625 25.324219 C 16.082031 25.382812 16.117188 25.496094 16.101562 25.578125 C 16.101562 25.761719 16.082031 25.949219 16.117188 26.132812 C 16.15625 26.238281 16.289062 26.191406 16.378906 26.199219 C 17.007812 26.191406 17.640625 26.191406 18.269531 26.183594 C 18.289062 26.179688 18.304688 26.175781 18.316406 26.164062 C 18.347656 26.1875 18.386719 26.195312 18.425781 26.191406 C 18.578125 26.1875 18.734375 26.195312 18.890625 26.1875 C 18.980469 26.171875 18.976562 26.0625 18.980469 25.988281 C 19 25.492188 18.996094 24.996094 18.984375 24.5 C 18.976562 24.433594 18.914062 24.394531 18.851562 24.414062 Z M 17.011719 24.878906 C 16.988281 24.894531 16.96875 24.921875 16.96875 24.953125 C 16.964844 24.976562 16.976562 25.003906 16.992188 25.023438 C 17.035156 25.070312 17.078125 25.117188 17.125 25.15625 C 17.148438 25.171875 17.167969 25.1875 17.195312 25.199219 C 17.21875 25.207031 17.242188 25.203125 17.261719 25.195312 C 17.320312 25.179688 17.375 25.152344 17.425781 25.128906 C 17.480469 25.105469 17.53125 25.082031 17.582031 25.054688 C 17.609375 25.042969 17.625 25.015625 17.628906 24.988281 C 17.664062 25.003906 17.707031 24.992188 17.738281 24.972656 C 17.878906 24.898438 18.015625 24.828125 18.152344 24.75 C 18.207031 24.714844 18.199219 24.648438 18.1875 24.597656 C 18.179688 24.539062 18.160156 24.472656 18.09375 24.464844 C 18.042969 24.457031 18 24.496094 17.980469 24.539062 C 17.957031 24.570312 17.914062 24.550781 17.890625 24.53125 C 17.820312 24.496094 17.757812 24.441406 17.679688 24.417969 C 17.667969 24.421875 17.65625 24.421875 17.644531 24.421875 C 17.582031 24.441406 17.558594 24.519531 17.59375 24.570312 C 17.636719 24.640625 17.671875 24.742188 17.613281 24.816406 C 17.589844 24.832031 17.578125 24.859375 17.570312 24.886719 C 17.546875 24.878906 17.523438 24.878906 17.5 24.886719 C 17.429688 24.910156 17.351562 24.914062 17.277344 24.910156 C 17.222656 24.902344 17.167969 24.890625 17.117188 24.863281 C 17.101562 24.859375 17.082031 24.855469 17.066406 24.855469 C 17.046875 24.859375 17.027344 24.867188 17.011719 24.878906 Z M 17.28125 24.667969 C 17.257812 24.691406 17.246094 24.726562 17.257812 24.757812 C 17.269531 24.792969 17.300781 24.820312 17.335938 24.824219 C 17.351562 24.828125 17.367188 24.824219 17.382812 24.824219 C 17.421875 24.820312 17.457031 24.8125 17.492188 24.796875 C 17.515625 24.789062 17.535156 24.769531 17.546875 24.746094 C 17.554688 24.722656 17.554688 24.691406 17.542969 24.667969 C 17.535156 24.644531 17.519531 24.621094 17.503906 24.601562 C 17.484375 24.574219 17.449219 24.5625 17.417969 24.566406 C 17.398438 24.570312 17.375 24.582031 17.359375 24.597656 C 17.332031 24.621094 17.308594 24.644531 17.28125 24.667969 Z M 17.441406 24.378906 C 17.515625 24.265625 17.363281 24.191406 17.292969 24.128906 C 17.019531 23.898438 16.75 23.652344 16.542969 23.359375 C 16.402344 23.164062 16.316406 22.9375 16.25 22.710938 C 16.230469 22.675781 16.191406 22.648438 16.148438 22.652344 C 15.933594 22.71875 15.757812 22.863281 15.574219 22.984375 C 15.125 23.304688 14.730469 23.78125 14.703125 24.34375 C 14.679688 24.644531 14.773438 24.984375 15.042969 25.160156 C 15.308594 25.339844 15.65625 25.320312 15.957031 25.261719 C 16.527344 25.125 17.039062 24.792969 17.441406 24.378906 Z M 17.484375 24.144531 C 17.609375 24.230469 17.726562 24.335938 17.871094 24.390625 C 18 24.386719 18.03125 24.234375 18.105469 24.15625 C 18.230469 23.960938 18.378906 23.777344 18.480469 23.570312 C 18.5 23.472656 18.394531 23.449219 18.324219 23.425781 C 18.09375 23.332031 17.910156 23.164062 17.703125 23.035156 C 17.382812 22.914062 17.128906 22.660156 16.960938 22.375 C 16.929688 22.332031 16.886719 22.289062 16.828125 22.292969 C 16.679688 22.347656 16.546875 22.449219 16.414062 22.535156 C 16.3125 22.636719 16.394531 22.789062 16.421875 22.902344 C 16.625 23.417969 17.050781 23.8125 17.484375 24.144531 Z M 17.484375 24.144531 " fill-opacity="1" fill-rule="nonzero"/><path fill="#f4718a" d="M 18.875 20.5 C 18.835938 20.675781 18.660156 20.800781 18.417969 20.84375 C 18.363281 20.511719 18.09375 20.238281 17.753906 20.175781 C 17.738281 20.046875 17.6875 19.925781 17.613281 19.820312 C 17.773438 19.777344 17.964844 19.773438 18.164062 19.816406 C 18.621094 19.914062 18.941406 20.222656 18.875 20.5 Z M 23.789062 19.417969 C 23.722656 19.140625 23.304688 18.992188 22.847656 19.089844 C 22.390625 19.1875 22.070312 19.492188 22.132812 19.773438 C 22.195312 20.054688 22.617188 20.203125 23.074219 20.105469 C 23.53125 20.007812 23.851562 19.699219 23.789062 19.417969 Z M 23.789062 19.417969 " fill-opacity="1" fill-rule="nonzero"/><g clip-path="url(#8655dabb81)"><path fill="#060503" d="M 15.414062 19.222656 C 15.375 19.292969 15.351562 19.382812 15.363281 19.429688 C 15.382812 19.503906 15.339844 19.578125 15.265625 19.59375 C 15.1875 19.613281 15.113281 19.570312 15.09375 19.496094 C 15.054688 19.339844 15.113281 19.199219 15.167969 19.097656 C 15.203125 19.03125 15.242188 18.976562 15.265625 18.945312 C 15.132812 18.773438 14.988281 18.679688 14.988281 18.679688 C 14.925781 18.636719 14.90625 18.554688 14.949219 18.492188 C 14.972656 18.460938 15.003906 18.441406 15.039062 18.433594 C 15.074219 18.425781 15.113281 18.433594 15.144531 18.453125 C 15.144531 18.453125 15.640625 18.769531 15.734375 19.34375 C 15.75 19.417969 15.695312 19.484375 15.621094 19.5 C 15.546875 19.511719 15.472656 19.460938 15.460938 19.386719 C 15.453125 19.324219 15.4375 19.269531 15.414062 19.214844 C 15.414062 19.21875 15.414062 19.21875 15.414062 19.222656 Z M 26.257812 15.769531 C 26.101562 15.9375 25.882812 16.046875 25.65625 16.121094 C 25.429688 16.195312 25.191406 16.238281 24.992188 16.261719 C 24.824219 16.28125 24.6875 16.285156 24.59375 16.28125 C 24.605469 16.398438 24.621094 16.519531 24.636719 16.644531 C 24.746094 17.507812 24.894531 18.511719 25.035156 19.027344 C 25.167969 19.53125 25.609375 20.445312 25.792969 21.394531 C 25.886719 21.867188 25.914062 22.355469 25.796875 22.820312 C 25.683594 23.28125 25.417969 23.714844 24.953125 24.054688 L 24.949219 24.054688 C 24.890625 24.101562 24.800781 24.085938 24.757812 24.027344 C 24.710938 23.96875 24.722656 23.882812 24.785156 23.835938 C 25.203125 23.53125 25.425781 23.164062 25.527344 22.753906 C 25.628906 22.347656 25.605469 21.894531 25.519531 21.445312 C 25.347656 20.542969 24.914062 19.660156 24.765625 19.09375 C 24.617188 18.542969 24.472656 17.546875 24.363281 16.679688 C 24.25 15.808594 24.175781 15.074219 24.175781 15.074219 C 24.175781 15.070312 24.175781 15.066406 24.175781 15.0625 C 23.671875 14.773438 22.988281 14.597656 22.375 14.503906 C 21.582031 14.382812 20.914062 14.386719 20.914062 14.386719 C 20.902344 14.386719 20.894531 14.382812 20.886719 14.382812 C 20.242188 14.777344 19.699219 15.242188 19.304688 15.613281 C 19.195312 15.714844 19.085938 15.808594 18.96875 15.890625 C 18.996094 15.984375 19.039062 16.152344 19.074219 16.335938 C 19.125 16.621094 19.175781 16.945312 19.046875 17.1875 C 19.011719 17.253906 18.925781 17.28125 18.859375 17.246094 C 18.789062 17.210938 18.765625 17.128906 18.800781 17.0625 C 18.851562 16.960938 18.847656 16.648438 18.800781 16.382812 C 18.777344 16.257812 18.75 16.140625 18.726562 16.054688 C 18.464844 16.210938 18.179688 16.324219 17.859375 16.390625 C 17.84375 16.394531 17.828125 16.398438 17.808594 16.402344 C 17.8125 16.445312 17.816406 16.648438 17.789062 16.875 C 17.777344 17.003906 17.753906 17.140625 17.714844 17.265625 C 17.675781 17.390625 17.621094 17.507812 17.515625 17.589844 C 17.453125 17.636719 17.367188 17.625 17.320312 17.566406 C 17.269531 17.507812 17.28125 17.421875 17.34375 17.375 C 17.371094 17.351562 17.417969 17.28125 17.449219 17.183594 C 17.480469 17.085938 17.5 16.964844 17.515625 16.847656 C 17.53125 16.679688 17.535156 16.519531 17.53125 16.445312 C 17.320312 16.472656 17.089844 16.484375 16.84375 16.480469 C 16.84375 16.527344 16.84375 16.585938 16.84375 16.648438 C 16.84375 16.789062 16.835938 16.964844 16.804688 17.15625 C 16.742188 17.53125 16.578125 17.96875 16.15625 18.210938 C 16.089844 18.25 16.007812 18.230469 15.96875 18.164062 C 15.929688 18.101562 15.949219 18.015625 16.015625 17.980469 C 16.339844 17.789062 16.476562 17.449219 16.53125 17.113281 C 16.558594 16.945312 16.566406 16.78125 16.566406 16.648438 C 16.566406 16.578125 16.566406 16.519531 16.5625 16.46875 C 16.308594 16.453125 16.035156 16.425781 15.734375 16.386719 C 14.1875 16.179688 12.585938 16.976562 12.34375 17.105469 C 12.484375 17.882812 12.742188 18.847656 12.90625 19.796875 C 13.070312 20.765625 13.140625 21.726562 12.871094 22.492188 C 12.332031 24.015625 13.496094 25.058594 13.496094 25.058594 C 13.554688 25.109375 13.558594 25.195312 13.503906 25.25 C 13.453125 25.304688 13.363281 25.308594 13.308594 25.257812 C 13.308594 25.257812 12.015625 24.078125 12.609375 22.40625 C 12.851562 21.722656 12.792969 20.792969 12.628906 19.84375 C 12.46875 18.890625 12.203125 17.910156 12.0625 17.105469 C 12.0625 17.097656 12.058594 17.089844 12.0625 17.078125 C 12.058594 17.082031 12.054688 17.039062 12.039062 16.976562 C 12.027344 16.917969 12.003906 16.839844 11.976562 16.746094 C 11.925781 16.554688 11.855469 16.304688 11.792969 16.011719 C 11.667969 15.425781 11.570312 14.664062 11.679688 13.863281 C 11.878906 12.414062 12.792969 10.835938 15.421875 9.96875 C 15.398438 9.882812 15.375 9.738281 15.398438 9.582031 C 15.433594 9.328125 15.625 9.027344 16.085938 8.925781 C 16.316406 8.875 16.507812 8.890625 16.660156 8.957031 C 16.8125 9.023438 16.917969 9.132812 16.984375 9.246094 C 17.050781 9.355469 17.085938 9.46875 17.105469 9.554688 C 17.617188 9.464844 18.089844 9.417969 18.527344 9.402344 C 20.488281 9.339844 21.707031 9.96875 22.449219 10.71875 C 23.433594 11.71875 23.578125 12.917969 23.578125 12.929688 C 23.84375 13.046875 24.300781 13.257812 24.765625 13.527344 C 25.132812 13.734375 25.507812 13.976562 25.8125 14.238281 C 26.117188 14.503906 26.355469 14.78125 26.429688 15.09375 C 26.496094 15.363281 26.414062 15.601562 26.257812 15.769531 Z M 15.6875 9.882812 C 15.886719 9.824219 16.09375 9.769531 16.3125 9.71875 C 16.488281 9.675781 16.660156 9.636719 16.832031 9.605469 C 16.816406 9.539062 16.789062 9.457031 16.746094 9.382812 C 16.699219 9.308594 16.636719 9.246094 16.546875 9.207031 C 16.457031 9.167969 16.332031 9.148438 16.148438 9.191406 C 15.773438 9.273438 15.695312 9.445312 15.671875 9.621094 C 15.65625 9.722656 15.671875 9.820312 15.6875 9.882812 Z M 12.066406 15.957031 C 12.125 16.242188 12.195312 16.484375 12.246094 16.671875 C 12.261719 16.730469 12.277344 16.78125 12.289062 16.828125 C 12.566406 16.683594 13.339844 16.324219 14.28125 16.164062 C 14.203125 15.902344 13.972656 15.039062 13.941406 14.015625 C 13.90625 12.78125 14.164062 11.292969 15.363281 10.335938 C 15.394531 10.3125 15.429688 10.300781 15.464844 10.304688 C 15.503906 10.308594 15.535156 10.328125 15.558594 10.355469 C 15.609375 10.414062 15.601562 10.5 15.539062 10.546875 C 14.433594 11.425781 14.183594 12.816406 14.21875 14.007812 C 14.25 15.054688 14.5 15.929688 14.558594 16.121094 C 14.65625 16.109375 14.757812 16.101562 14.859375 16.09375 C 15.144531 15.78125 18.039062 12.714844 21.648438 12.632812 C 22.175781 12.621094 22.722656 12.675781 23.277344 12.808594 C 23.207031 12.472656 22.964844 11.636719 22.25 10.910156 C 21.328125 9.976562 19.621094 9.210938 16.375 9.980469 C 13.136719 10.75 12.164062 12.386719 11.957031 13.902344 C 11.851562 14.65625 11.945312 15.386719 12.066406 15.957031 Z M 21.316406 13.832031 C 22.011719 13.492188 22.800781 13.253906 23.644531 13.277344 C 23.660156 13.277344 23.675781 13.28125 23.691406 13.28125 C 23.425781 13.15625 23.246094 13.082031 23.242188 13.082031 C 19.488281 12.144531 16.101562 15.226562 15.25 16.082031 C 15.421875 16.085938 15.597656 16.097656 15.773438 16.121094 C 16.636719 16.234375 17.28125 16.238281 17.800781 16.128906 C 18.316406 16.015625 18.71875 15.789062 19.113281 15.417969 C 19.625 14.933594 20.386719 14.289062 21.316406 13.832031 Z M 26.160156 15.15625 C 26.109375 14.941406 25.910156 14.6875 25.628906 14.445312 C 25.34375 14.199219 24.984375 13.964844 24.628906 13.761719 C 24.566406 13.726562 24.503906 13.691406 24.441406 13.65625 C 24.4375 13.65625 24.433594 13.65625 24.433594 13.65625 C 23.351562 13.390625 22.328125 13.640625 21.441406 14.074219 C 21.40625 14.09375 21.371094 14.109375 21.339844 14.125 C 21.613281 14.140625 22 14.171875 22.417969 14.234375 C 23.238281 14.363281 24.199219 14.609375 24.765625 15.160156 C 24.816406 15.214844 24.816406 15.300781 24.765625 15.351562 L 24.761719 15.355469 C 24.710938 15.40625 24.621094 15.40625 24.566406 15.351562 C 24.539062 15.324219 24.507812 15.296875 24.476562 15.269531 C 24.492188 15.441406 24.523438 15.699219 24.558594 16.007812 C 24.566406 16.007812 24.570312 16.007812 24.578125 16.007812 C 24.617188 16.011719 24.777344 16.011719 24.960938 15.992188 C 25.144531 15.972656 25.367188 15.929688 25.570312 15.863281 C 25.769531 15.796875 25.945312 15.703125 26.054688 15.585938 C 26.160156 15.472656 26.207031 15.347656 26.160156 15.15625 Z M 20.296875 17.152344 C 20.355469 17.199219 20.441406 17.1875 20.488281 17.128906 C 20.847656 16.691406 20.820312 16.242188 20.699219 15.929688 C 20.574219 15.613281 20.359375 15.414062 20.359375 15.414062 C 20.332031 15.390625 20.296875 15.375 20.257812 15.378906 C 20.222656 15.378906 20.1875 15.394531 20.164062 15.417969 C 20.109375 15.472656 20.109375 15.558594 20.167969 15.609375 C 20.167969 15.609375 20.339844 15.773438 20.4375 16.023438 C 20.539062 16.277344 20.570312 16.59375 20.273438 16.960938 C 20.226562 17.019531 20.234375 17.105469 20.296875 17.152344 Z M 22.679688 15.992188 C 22.898438 16.320312 23.207031 16.691406 23.625 16.804688 C 23.699219 16.824219 23.773438 16.78125 23.792969 16.707031 C 23.816406 16.636719 23.769531 16.5625 23.699219 16.542969 C 23.40625 16.464844 23.117188 16.148438 22.914062 15.84375 C 22.707031 15.539062 22.589844 15.253906 22.589844 15.253906 C 22.5625 15.1875 22.480469 15.152344 22.410156 15.179688 C 22.335938 15.207031 22.304688 15.289062 22.332031 15.355469 C 22.332031 15.359375 22.332031 15.359375 22.332031 15.359375 C 22.332031 15.359375 22.460938 15.664062 22.679688 15.992188 Z M 17.953125 18.105469 C 17.988281 18.210938 18.066406 18.292969 18.148438 18.339844 C 18.21875 18.382812 18.296875 18.40625 18.371094 18.421875 C 18.425781 18.847656 18.703125 19.171875 19.007812 19.144531 C 19.324219 19.117188 19.546875 18.730469 19.507812 18.28125 C 19.46875 17.828125 19.179688 17.484375 18.863281 17.511719 C 18.71875 17.523438 18.589844 17.613281 18.5 17.753906 C 18.460938 17.746094 18.421875 17.734375 18.398438 17.722656 C 18.367188 17.707031 18.359375 17.695312 18.355469 17.675781 C 18.332031 17.605469 18.257812 17.5625 18.183594 17.582031 C 18.109375 17.601562 18.066406 17.675781 18.085938 17.75 C 18.113281 17.847656 18.191406 17.921875 18.269531 17.960938 C 18.308594 17.980469 18.351562 17.996094 18.394531 18.007812 C 18.382812 18.050781 18.375 18.09375 18.367188 18.140625 C 18.339844 18.132812 18.3125 18.121094 18.292969 18.109375 C 18.253906 18.085938 18.230469 18.0625 18.21875 18.023438 C 18.195312 17.953125 18.121094 17.914062 18.046875 17.933594 C 17.972656 17.957031 17.929688 18.03125 17.953125 18.105469 Z M 21.777344 15.800781 C 21.777344 15.800781 21.800781 16.066406 21.816406 16.347656 C 21.824219 16.492188 21.828125 16.636719 21.828125 16.75 C 21.828125 16.808594 21.824219 16.855469 21.820312 16.890625 C 21.820312 16.925781 21.804688 16.953125 21.820312 16.929688 C 21.78125 16.992188 21.804688 17.078125 21.871094 17.113281 C 21.9375 17.148438 22.023438 17.125 22.0625 17.0625 C 22.09375 17.003906 22.09375 16.96875 22.097656 16.917969 C 22.105469 16.871094 22.105469 16.816406 22.105469 16.753906 C 22.109375 16.628906 22.101562 16.480469 22.09375 16.335938 C 22.078125 16.046875 22.054688 15.773438 22.054688 15.773438 C 22.046875 15.699219 21.980469 15.644531 21.902344 15.652344 C 21.824219 15.660156 21.769531 15.722656 21.777344 15.800781 Z M 14.378906 24.761719 C 14.246094 24.691406 14.085938 24.464844 13.980469 24.25 C 13.875 24.035156 13.8125 23.84375 13.8125 23.84375 C 13.792969 23.773438 13.714844 23.734375 13.640625 23.753906 C 13.566406 23.777344 13.523438 23.851562 13.546875 23.921875 C 13.546875 23.921875 13.613281 24.132812 13.730469 24.367188 C 13.84375 24.601562 14 24.871094 14.25 25 C 14.320312 25.035156 14.402344 25.007812 14.4375 24.941406 C 14.472656 24.875 14.449219 24.792969 14.378906 24.761719 Z M 18.070312 24.566406 C 18.070312 24.570312 18.066406 24.578125 18.070312 24.566406 Z M 21.125 19.425781 C 21.140625 19.417969 21.152344 19.414062 21.167969 19.414062 C 21.324219 19.402344 21.449219 19.492188 21.550781 19.597656 C 21.652344 19.703125 21.746094 19.835938 21.820312 19.96875 C 21.898438 20.105469 21.964844 20.242188 22.007812 20.355469 C 22.027344 20.414062 22.042969 20.464844 22.054688 20.507812 C 22.0625 20.53125 22.066406 20.550781 22.066406 20.574219 C 22.070312 20.597656 22.074219 20.621094 22.050781 20.667969 C 22.03125 20.710938 22.011719 20.726562 21.988281 20.753906 C 21.960938 20.78125 21.929688 20.808594 21.894531 20.839844 C 21.824219 20.898438 21.730469 20.964844 21.628906 21.023438 C 21.527344 21.082031 21.417969 21.128906 21.300781 21.148438 C 21.183594 21.164062 21.042969 21.140625 20.949219 21.042969 C 20.847656 20.941406 20.816406 20.804688 20.796875 20.65625 C 20.78125 20.507812 20.78125 20.339844 20.800781 20.175781 C 20.820312 20.015625 20.851562 19.859375 20.898438 19.726562 C 20.945312 19.597656 20.984375 19.480469 21.125 19.425781 Z M 21.160156 19.816406 C 21.125 19.917969 21.09375 20.058594 21.078125 20.207031 C 21.0625 20.351562 21.058594 20.503906 21.074219 20.625 C 21.089844 20.746094 21.128906 20.835938 21.148438 20.855469 C 21.171875 20.878906 21.195312 20.886719 21.257812 20.878906 C 21.320312 20.871094 21.410156 20.835938 21.492188 20.789062 C 21.574219 20.742188 21.65625 20.683594 21.714844 20.632812 C 21.742188 20.609375 21.769531 20.585938 21.785156 20.566406 C 21.785156 20.566406 21.785156 20.570312 21.785156 20.566406 C 21.777344 20.542969 21.765625 20.5 21.746094 20.449219 C 21.710938 20.351562 21.648438 20.222656 21.578125 20.101562 C 21.507812 19.980469 21.425781 19.863281 21.351562 19.785156 C 21.285156 19.722656 21.246094 19.710938 21.21875 19.703125 C 21.214844 19.710938 21.191406 19.734375 21.160156 19.816406 Z M 24.472656 26.84375 C 24.480469 26.964844 24.460938 27.109375 24.429688 27.265625 C 24.402344 27.421875 24.363281 27.585938 24.324219 27.714844 C 24.304688 27.78125 24.289062 27.835938 24.269531 27.882812 C 24.257812 27.902344 24.25 27.925781 24.238281 27.945312 C 24.226562 27.964844 24.226562 27.992188 24.160156 28.019531 C 24.109375 28.046875 24.097656 28.039062 24.074219 28.039062 C 24.050781 28.039062 24.03125 28.039062 24.003906 28.039062 C 23.992188 28.039062 23.984375 28.039062 23.972656 28.035156 C 23.953125 28.125 23.914062 28.253906 23.832031 28.382812 C 23.6875 28.597656 23.382812 28.792969 22.914062 28.703125 C 22.679688 28.65625 22.515625 28.566406 22.410156 28.441406 C 22.308594 28.316406 22.28125 28.171875 22.285156 28.042969 C 22.289062 27.949219 22.308594 27.859375 22.332031 27.785156 C 21.648438 28.003906 20.554688 28.046875 19.507812 28.042969 C 18.324219 28.035156 17.222656 27.953125 16.90625 27.914062 C 16.730469 27.890625 16.597656 27.824219 16.511719 27.730469 C 16.425781 27.636719 16.390625 27.523438 16.382812 27.425781 C 16.375 27.339844 16.386719 27.257812 16.398438 27.195312 C 16.3125 27.179688 16.238281 27.160156 16.171875 27.109375 C 16.035156 27.011719 16.003906 26.855469 15.972656 26.675781 C 15.9375 26.496094 15.921875 26.289062 15.917969 26.085938 C 15.90625 25.839844 15.914062 25.609375 15.917969 25.460938 C 15.875 25.46875 15.832031 25.476562 15.789062 25.480469 C 15.46875 25.519531 15.164062 25.476562 14.925781 25.316406 C 14.691406 25.15625 14.535156 24.882812 14.511719 24.523438 C 14.460938 23.800781 14.910156 23.261719 15.351562 22.910156 C 15.792969 22.5625 16.246094 22.386719 16.246094 22.386719 C 16.265625 22.378906 16.285156 22.375 16.304688 22.378906 C 16.359375 22.339844 16.429688 22.292969 16.507812 22.246094 C 16.582031 22.199219 16.664062 22.15625 16.738281 22.121094 C 16.753906 22.117188 16.765625 22.109375 16.777344 22.105469 C 16.761719 22.019531 16.75 21.933594 16.75 21.84375 C 16.75 21.726562 16.757812 21.613281 16.777344 21.503906 C 16.433594 21.371094 16.164062 21.0625 15.964844 20.789062 C 15.777344 20.53125 15.691406 20.351562 15.664062 20.292969 C 15.582031 20.3125 15.40625 20.363281 15.101562 20.285156 C 14.734375 20.1875 14.300781 19.898438 14.066406 19.226562 C 13.945312 18.882812 13.96875 18.597656 14.089844 18.382812 C 14.210938 18.171875 14.417969 18.035156 14.625 17.953125 C 15.042969 17.78125 15.5 17.789062 15.5 17.789062 C 15.574219 17.789062 15.636719 17.851562 15.636719 17.925781 C 15.636719 18 15.574219 18.0625 15.496094 18.0625 C 15.496094 18.0625 15.078125 18.0625 14.734375 18.203125 C 14.5625 18.273438 14.414062 18.375 14.332031 18.515625 C 14.253906 18.65625 14.226562 18.847656 14.328125 19.140625 C 14.539062 19.742188 14.878906 19.945312 15.175781 20.019531 C 15.46875 20.097656 15.710938 20.035156 15.710938 20.035156 C 15.773438 20.015625 15.84375 20.046875 15.871094 20.109375 C 15.871094 20.109375 15.992188 20.359375 16.191406 20.632812 C 16.367188 20.875 16.605469 21.125 16.84375 21.234375 C 16.847656 21.230469 16.847656 21.226562 16.851562 21.222656 C 16.839844 21.207031 16.828125 21.191406 16.824219 21.171875 C 16.769531 20.976562 16.734375 20.679688 16.691406 20.378906 C 16.648438 20.074219 16.597656 19.765625 16.539062 19.601562 C 16.496094 19.46875 16.519531 19.332031 16.59375 19.234375 C 16.664062 19.136719 16.765625 19.078125 16.875 19.046875 C 16.984375 19.015625 17.105469 19.007812 17.21875 19.039062 C 17.332031 19.066406 17.441406 19.136719 17.503906 19.25 C 17.621094 19.460938 17.742188 19.738281 17.800781 20.085938 C 17.875 20.070312 17.96875 20.0625 18.070312 20.085938 C 18.175781 20.109375 18.292969 20.171875 18.371094 20.285156 C 18.449219 20.402344 18.488281 20.558594 18.484375 20.769531 C 18.484375 20.773438 18.484375 20.777344 18.484375 20.78125 C 18.925781 21.015625 19.15625 21.414062 19.191406 21.816406 C 19.523438 21.824219 20.734375 21.808594 21.835938 21.332031 C 22.480469 21.050781 23.082031 20.621094 23.457031 19.945312 C 23.828125 19.273438 23.984375 18.347656 23.703125 17.058594 C 23.6875 16.984375 23.734375 16.914062 23.8125 16.898438 C 23.886719 16.882812 23.960938 16.929688 23.976562 17.003906 C 24.265625 18.335938 24.109375 19.335938 23.699219 20.074219 C 23.289062 20.8125 22.632812 21.285156 21.949219 21.578125 C 21.621094 21.722656 21.28125 21.824219 20.960938 21.902344 C 20.964844 21.929688 20.972656 21.964844 20.980469 22.003906 C 20.996094 22.125 21.019531 22.273438 20.914062 22.410156 C 20.867188 22.46875 20.804688 22.515625 20.722656 22.574219 C 20.644531 22.636719 20.546875 22.699219 20.449219 22.757812 C 20.351562 22.816406 20.253906 22.871094 20.164062 22.914062 C 20.078125 22.957031 20.015625 22.988281 19.921875 22.996094 C 19.824219 23 19.761719 22.972656 19.660156 22.941406 C 19.554688 22.910156 19.4375 22.867188 19.324219 22.824219 C 19.179688 22.769531 19.042969 22.714844 18.964844 22.683594 C 18.925781 22.738281 18.882812 22.789062 18.839844 22.835938 C 18.902344 22.867188 18.976562 22.90625 19.054688 22.949219 C 19.152344 23 19.253906 23.050781 19.339844 23.09375 C 19.421875 23.132812 19.496094 23.167969 19.507812 23.171875 C 19.519531 23.175781 19.523438 23.175781 19.550781 23.191406 C 19.558594 23.195312 19.566406 23.203125 19.578125 23.214844 C 19.582031 23.21875 19.59375 23.238281 19.59375 23.238281 C 19.597656 23.238281 19.613281 23.277344 19.613281 23.277344 C 19.613281 23.277344 19.613281 23.332031 19.613281 23.332031 C 19.613281 23.332031 19.597656 23.378906 19.59375 23.378906 C 19.59375 23.378906 19.570312 23.410156 19.570312 23.410156 C 19.570312 23.410156 19.558594 23.421875 19.550781 23.421875 C 19.507812 23.453125 19.507812 23.441406 19.5 23.445312 C 19.492188 23.445312 19.484375 23.449219 19.480469 23.449219 C 19.453125 23.457031 19.421875 23.46875 19.378906 23.503906 C 19.292969 23.578125 19.160156 23.773438 19.167969 24.316406 C 19.175781 24.875 19.195312 25.453125 19.171875 25.925781 C 19.15625 26.164062 19.132812 26.375 19.089844 26.546875 C 19.042969 26.71875 18.980469 26.867188 18.847656 26.953125 C 18.71875 27.035156 18.539062 27.074219 18.300781 27.117188 C 18.0625 27.160156 17.78125 27.191406 17.5 27.210938 C 17.21875 27.230469 16.941406 27.238281 16.710938 27.226562 C 16.699219 27.226562 16.6875 27.226562 16.675781 27.226562 C 16.664062 27.273438 16.652344 27.339844 16.660156 27.402344 C 16.664062 27.460938 16.679688 27.511719 16.71875 27.550781 C 16.753906 27.589844 16.816406 27.628906 16.941406 27.644531 C 17.226562 27.679688 18.339844 27.765625 19.507812 27.769531 C 20.640625 27.777344 21.847656 27.695312 22.402344 27.472656 C 22.398438 27.421875 22.398438 27.371094 22.402344 27.324219 C 22.40625 27.203125 22.414062 27.097656 22.414062 27.097656 C 22.414062 27.078125 22.421875 27.058594 22.429688 27.039062 C 22.320312 27.042969 22.183594 27.042969 22.035156 27.039062 C 21.730469 27.035156 21.375 27.019531 21.097656 27.003906 C 20.792969 26.984375 20.566406 26.84375 20.4375 26.652344 C 20.308594 26.457031 20.277344 26.226562 20.296875 26 C 20.304688 25.921875 20.296875 25.699219 20.285156 25.429688 C 20.269531 25.160156 20.246094 24.839844 20.222656 24.527344 C 20.191406 24.101562 20.15625 23.699219 20.136719 23.488281 C 20.058594 23.511719 19.988281 23.527344 19.921875 23.53125 C 19.847656 23.539062 19.777344 23.488281 19.769531 23.410156 C 19.761719 23.335938 19.816406 23.269531 19.894531 23.261719 C 20.082031 23.242188 20.585938 23.050781 21.003906 22.839844 C 21.210938 22.738281 21.398438 22.628906 21.53125 22.542969 C 21.585938 22.503906 21.625 22.472656 21.652344 22.445312 C 21.640625 22.433594 21.640625 22.433594 21.609375 22.40625 C 21.550781 22.367188 21.472656 22.316406 21.394531 22.277344 C 21.238281 22.191406 21.089844 22.125 21.089844 22.125 C 21.019531 22.09375 20.988281 22.015625 21.015625 21.945312 C 21.046875 21.878906 21.128906 21.847656 21.199219 21.878906 C 21.199219 21.878906 21.363281 21.945312 21.53125 22.039062 C 21.617188 22.085938 21.703125 22.136719 21.777344 22.191406 C 21.851562 22.25 21.921875 22.296875 21.953125 22.402344 C 21.96875 22.464844 21.949219 22.511719 21.929688 22.542969 C 21.929688 22.546875 21.925781 22.554688 21.921875 22.558594 C 22.058594 22.644531 22.304688 22.808594 22.582031 23.054688 C 22.597656 23.027344 22.613281 22.992188 22.632812 22.957031 C 22.679688 22.863281 22.714844 22.742188 22.714844 22.714844 C 22.707031 22.640625 22.765625 22.574219 22.84375 22.570312 C 22.921875 22.566406 22.984375 22.621094 22.992188 22.695312 C 23 22.84375 22.9375 22.96875 22.882812 23.078125 C 22.84375 23.152344 22.808594 23.214844 22.785156 23.246094 C 22.933594 23.394531 23.089844 23.566406 23.234375 23.761719 C 23.347656 23.757812 23.433594 23.707031 23.511719 23.609375 C 23.589844 23.515625 23.65625 23.378906 23.703125 23.234375 C 23.796875 22.949219 23.820312 22.660156 23.820312 22.660156 C 23.824219 22.585938 23.890625 22.53125 23.96875 22.535156 C 24.042969 22.539062 24.101562 22.605469 24.097656 22.679688 C 24.097656 22.679688 24.074219 22.992188 23.96875 23.316406 C 23.914062 23.480469 23.839844 23.648438 23.726562 23.78125 C 23.644531 23.878906 23.535156 23.960938 23.40625 24.003906 C 23.847656 24.667969 24.179688 25.558594 24.085938 26.691406 C 24.121094 26.675781 24.148438 26.664062 24.15625 26.65625 C 24.183594 26.636719 24.214844 26.613281 24.265625 26.609375 C 24.316406 26.601562 24.382812 26.628906 24.414062 26.664062 C 24.476562 26.730469 24.472656 26.785156 24.472656 26.84375 Z M 18.925781 23.1875 C 18.796875 23.121094 18.675781 23.058594 18.605469 23.019531 C 18.492188 23.089844 18.363281 23.140625 18.21875 23.164062 C 18.367188 23.25 18.542969 23.3125 18.625 23.292969 C 18.660156 23.285156 18.699219 23.292969 18.730469 23.3125 C 18.792969 23.355469 18.8125 23.4375 18.769531 23.5 C 18.769531 23.5 18.597656 23.761719 18.421875 24.023438 C 18.386719 24.074219 18.355469 24.125 18.324219 24.175781 C 18.324219 24.210938 18.332031 24.296875 18.34375 24.386719 C 18.351562 24.449219 18.359375 24.511719 18.367188 24.558594 C 18.375 24.59375 18.375 24.601562 18.378906 24.609375 C 18.394531 24.617188 18.421875 24.621094 18.453125 24.621094 C 18.488281 24.621094 18.523438 24.621094 18.546875 24.613281 C 18.554688 24.613281 18.546875 24.617188 18.550781 24.617188 C 18.554688 24.605469 18.558594 24.597656 18.5625 24.585938 C 18.578125 24.542969 18.597656 24.480469 18.621094 24.410156 C 18.664062 24.265625 18.71875 24.078125 18.769531 23.890625 C 18.847656 23.597656 18.925781 23.308594 18.953125 23.203125 C 18.945312 23.199219 18.933594 23.191406 18.925781 23.1875 Z M 18.480469 24.894531 C 18.46875 24.894531 18.457031 24.894531 18.445312 24.890625 C 18.433594 24.890625 18.425781 24.890625 18.414062 24.890625 C 18.414062 24.917969 18.414062 24.949219 18.414062 24.980469 C 18.414062 25.023438 18.421875 25.0625 18.425781 25.097656 C 18.429688 25.09375 18.433594 25.09375 18.4375 25.085938 C 18.46875 25.03125 18.488281 24.953125 18.480469 24.894531 Z M 17.257812 25.101562 C 17.285156 25.089844 17.328125 25.070312 17.375 25.050781 C 17.425781 25.027344 17.488281 25 17.550781 24.96875 C 17.515625 24.980469 17.480469 24.988281 17.441406 24.996094 C 17.324219 25.015625 17.199219 25.007812 17.085938 24.953125 C 17.082031 24.953125 17.078125 24.949219 17.078125 24.949219 C 17.070312 24.953125 17.066406 24.957031 17.0625 24.957031 C 17.078125 24.976562 17.09375 24.996094 17.109375 25.011719 C 17.140625 25.042969 17.171875 25.074219 17.199219 25.09375 C 17.210938 25.101562 17.21875 25.105469 17.226562 25.109375 C 17.234375 25.105469 17.246094 25.105469 17.257812 25.101562 Z M 17.429688 24.660156 C 17.402344 24.683594 17.375 24.707031 17.347656 24.730469 C 17.367188 24.730469 17.382812 24.730469 17.394531 24.726562 C 17.421875 24.722656 17.441406 24.714844 17.453125 24.710938 C 17.453125 24.703125 17.449219 24.6875 17.429688 24.660156 Z M 17.730469 24.777344 C 17.71875 24.847656 17.667969 24.898438 17.621094 24.933594 C 17.644531 24.917969 17.667969 24.90625 17.691406 24.894531 C 17.878906 24.796875 18.054688 24.703125 18.105469 24.671875 C 18.101562 24.652344 18.097656 24.628906 18.09375 24.605469 C 18.089844 24.585938 18.085938 24.5625 18.085938 24.542969 C 18.082031 24.550781 18.078125 24.554688 18.074219 24.558594 C 18.074219 24.5625 18.074219 24.5625 18.070312 24.566406 C 18.074219 24.5625 18.074219 24.558594 18.074219 24.554688 C 18.074219 24.5625 18.070312 24.574219 18.0625 24.582031 C 18.023438 24.644531 17.941406 24.667969 17.875 24.628906 C 17.875 24.628906 17.785156 24.578125 17.648438 24.488281 C 17.648438 24.492188 17.652344 24.496094 17.65625 24.5 C 17.699219 24.5625 17.757812 24.652344 17.730469 24.777344 Z M 19.1875 22.089844 C 19.171875 22.210938 19.140625 22.328125 19.09375 22.441406 C 19.175781 22.476562 19.296875 22.523438 19.425781 22.570312 C 19.535156 22.613281 19.648438 22.652344 19.742188 22.683594 C 19.820312 22.707031 19.894531 22.71875 19.910156 22.722656 C 19.921875 22.71875 19.980469 22.699219 20.042969 22.671875 C 20.117188 22.632812 20.210938 22.582031 20.300781 22.527344 C 20.394531 22.472656 20.484375 22.410156 20.558594 22.359375 C 20.628906 22.304688 20.6875 22.253906 20.695312 22.242188 C 20.699219 22.238281 20.71875 22.136719 20.703125 22.042969 C 20.699219 22.011719 20.695312 21.984375 20.6875 21.957031 C 19.996094 22.089844 19.414062 22.09375 19.1875 22.089844 Z M 17.730469 20.847656 C 17.484375 20.847656 17.328125 20.945312 17.210938 21.117188 C 17.09375 21.289062 17.027344 21.546875 17.027344 21.84375 C 17.027344 22.394531 17.566406 22.90625 18.050781 22.90625 C 18.59375 22.886719 18.925781 22.417969 18.921875 21.921875 C 18.914062 21.425781 18.59375 20.921875 17.730469 20.847656 Z M 17.835938 20.355469 C 17.839844 20.429688 17.84375 20.507812 17.84375 20.585938 C 17.972656 20.601562 18.09375 20.628906 18.203125 20.664062 C 18.195312 20.550781 18.167969 20.476562 18.140625 20.433594 C 18.105469 20.382812 18.0625 20.363281 18.011719 20.351562 C 17.953125 20.335938 17.882812 20.347656 17.835938 20.355469 Z M 16.964844 20.339844 C 16.992188 20.535156 17.019531 20.726562 17.046875 20.878906 C 17.175781 20.730469 17.351562 20.625 17.566406 20.589844 C 17.566406 20.042969 17.414062 19.65625 17.261719 19.378906 C 17.242188 19.339844 17.203125 19.316406 17.148438 19.300781 C 17.09375 19.285156 17.019531 19.289062 16.957031 19.308594 C 16.894531 19.324219 16.84375 19.359375 16.816406 19.390625 C 16.792969 19.425781 16.785156 19.453125 16.804688 19.515625 C 16.875 19.726562 16.921875 20.035156 16.964844 20.339844 Z M 16.464844 22.601562 C 16.488281 23.03125 16.828125 23.476562 17.210938 23.8125 C 17.554688 24.117188 17.8125 24.261719 17.902344 24.316406 C 17.917969 24.292969 17.925781 24.277344 17.945312 24.25 C 18.011719 24.144531 18.101562 24.011719 18.1875 23.878906 C 18.316406 23.683594 18.386719 23.582031 18.445312 23.492188 C 18.304688 23.460938 18.15625 23.445312 18.046875 23.378906 C 17.871094 23.269531 17.742188 23.152344 17.742188 23.152344 C 17.734375 23.144531 17.726562 23.136719 17.722656 23.128906 C 17.351562 23.019531 17.027344 22.730469 16.863281 22.363281 C 16.859375 22.367188 16.855469 22.367188 16.851562 22.371094 C 16.796875 22.394531 16.726562 22.433594 16.65625 22.476562 C 16.554688 22.535156 16.507812 22.570312 16.464844 22.601562 Z M 17.390625 24.308594 C 17.277344 24.226562 17.148438 24.125 17.023438 24.015625 C 16.644531 23.679688 16.246094 23.230469 16.175781 22.714844 C 16.015625 22.792969 15.769531 22.929688 15.527344 23.121094 C 15.121094 23.441406 14.746094 23.902344 14.789062 24.503906 C 14.808594 24.804688 14.917969 24.980469 15.082031 25.09375 C 15.246094 25.203125 15.480469 25.242188 15.753906 25.210938 C 16.273438 25.152344 16.914062 24.820312 17.390625 24.308594 Z M 16.199219 25.390625 C 16.191406 25.515625 16.183594 25.789062 16.195312 26.074219 C 16.195312 26.089844 16.195312 26.101562 16.195312 26.113281 C 16.414062 26.109375 16.929688 26.105469 17.453125 26.101562 C 17.796875 26.101562 18.144531 26.097656 18.414062 26.097656 C 18.550781 26.097656 18.664062 26.101562 18.75 26.101562 C 18.792969 26.101562 18.828125 26.101562 18.855469 26.105469 C 18.863281 26.105469 18.871094 26.105469 18.878906 26.105469 C 18.886719 26.042969 18.890625 25.980469 18.894531 25.914062 C 18.914062 25.5 18.902344 24.980469 18.894531 24.460938 C 18.890625 24.46875 18.886719 24.480469 18.886719 24.488281 C 18.863281 24.5625 18.84375 24.625 18.824219 24.675781 C 18.816406 24.699219 18.808594 24.722656 18.796875 24.742188 C 18.789062 24.761719 18.792969 24.769531 18.753906 24.808594 C 18.753906 24.8125 18.75 24.8125 18.746094 24.816406 C 18.78125 24.960938 18.746094 25.105469 18.679688 25.21875 C 18.644531 25.28125 18.601562 25.332031 18.539062 25.371094 C 18.511719 25.386719 18.480469 25.398438 18.445312 25.40625 L 18.457031 25.953125 C 18.457031 26.03125 18.398438 26.089844 18.320312 26.09375 C 18.242188 26.09375 18.179688 26.035156 18.179688 25.960938 L 18.160156 25.234375 C 18.160156 25.222656 18.164062 25.214844 18.164062 25.207031 C 18.164062 25.199219 18.160156 25.195312 18.160156 25.191406 C 18.144531 25.125 18.136719 25.054688 18.136719 24.988281 C 18.136719 24.980469 18.136719 24.972656 18.136719 24.96875 C 18.054688 25.011719 17.941406 25.074219 17.820312 25.132812 C 17.707031 25.191406 17.589844 25.253906 17.488281 25.296875 C 17.4375 25.320312 17.394531 25.339844 17.351562 25.355469 C 17.308594 25.371094 17.28125 25.382812 17.222656 25.382812 C 17.140625 25.382812 17.082031 25.347656 17.035156 25.3125 C 16.984375 25.277344 16.941406 25.234375 16.902344 25.195312 C 16.875 25.164062 16.851562 25.136719 16.828125 25.109375 C 16.621094 25.230469 16.410156 25.328125 16.199219 25.390625 Z M 16.339844 26.894531 C 16.339844 26.894531 16.386719 26.917969 16.453125 26.929688 C 16.523438 26.941406 16.617188 26.953125 16.722656 26.957031 C 16.9375 26.96875 17.207031 26.960938 17.480469 26.941406 C 17.753906 26.921875 18.027344 26.890625 18.25 26.847656 C 18.472656 26.808594 18.65625 26.75 18.695312 26.726562 C 18.726562 26.703125 18.78125 26.625 18.820312 26.480469 C 18.828125 26.449219 18.835938 26.414062 18.84375 26.375 C 18.820312 26.375 18.785156 26.375 18.746094 26.371094 C 18.660156 26.371094 18.546875 26.371094 18.414062 26.371094 C 18.148438 26.371094 17.800781 26.371094 17.457031 26.375 C 16.941406 26.375 16.4375 26.382812 16.214844 26.382812 C 16.222656 26.472656 16.230469 26.554688 16.246094 26.628906 C 16.273438 26.785156 16.335938 26.894531 16.339844 26.894531 Z M 22.164062 23.054688 C 22.179688 23.089844 22.195312 23.125 22.210938 23.164062 C 22.339844 23.457031 22.457031 23.820312 22.554688 24.195312 C 22.753906 24.945312 22.894531 25.730469 22.9375 26.050781 C 22.980469 26.371094 22.980469 26.578125 22.941406 26.730469 C 22.921875 26.816406 22.878906 26.886719 22.828125 26.941406 C 22.957031 26.921875 23.117188 26.902344 23.28125 26.875 C 23.457031 26.847656 23.640625 26.8125 23.796875 26.777344 C 24.011719 24.800781 22.859375 23.59375 22.164062 23.054688 Z M 21.140625 24.472656 C 21.136719 24.515625 21.132812 24.554688 21.125 24.59375 C 21.121094 24.617188 21.117188 24.640625 21.113281 24.664062 C 21.164062 24.699219 21.296875 24.78125 21.4375 24.867188 C 21.535156 24.921875 21.636719 24.976562 21.722656 25.015625 C 21.808594 25.058594 21.890625 25.078125 21.894531 25.078125 C 21.890625 25.078125 21.9375 25.066406 21.988281 25.027344 C 22.042969 24.988281 22.101562 24.929688 22.15625 24.871094 C 22.269531 24.753906 22.355469 24.628906 22.355469 24.628906 C 22.359375 24.621094 22.367188 24.613281 22.375 24.609375 C 22.359375 24.550781 22.34375 24.488281 22.332031 24.429688 Z M 20.828125 25.207031 C 20.828125 25.230469 20.832031 25.242188 20.835938 25.261719 C 20.835938 25.234375 20.832031 25.195312 20.828125 25.160156 C 20.828125 25.183594 20.824219 25.183594 20.828125 25.207031 Z M 20.84375 25.351562 Z M 20.84375 25.351562 Z M 20.546875 25.136719 C 20.546875 25.09375 20.546875 25.054688 20.546875 25.027344 C 20.542969 25.027344 20.542969 25.023438 20.539062 25.023438 C 20.539062 25.0625 20.542969 25.101562 20.546875 25.136719 Z M 20.574219 26.023438 C 20.574219 26.03125 20.574219 26.039062 20.574219 26.042969 C 20.617188 26.042969 20.675781 26.042969 20.746094 26.042969 C 20.746094 26.042969 20.75 26.039062 20.75 26.035156 C 20.75 26.019531 20.753906 25.996094 20.753906 25.972656 C 20.757812 25.921875 20.761719 25.855469 20.761719 25.792969 C 20.765625 25.726562 20.765625 25.660156 20.769531 25.613281 C 20.667969 25.585938 20.617188 25.503906 20.589844 25.433594 C 20.570312 25.378906 20.558594 25.320312 20.554688 25.265625 C 20.558594 25.316406 20.558594 25.367188 20.5625 25.414062 C 20.578125 25.6875 20.585938 25.902344 20.574219 26.023438 Z M 21.027344 26.046875 C 21.183594 26.046875 21.363281 26.046875 21.542969 26.050781 C 21.8125 26.058594 22.089844 26.0625 22.3125 26.074219 C 22.421875 26.082031 22.519531 26.089844 22.597656 26.097656 C 22.621094 26.101562 22.644531 26.101562 22.664062 26.105469 C 22.664062 26.097656 22.664062 26.09375 22.660156 26.085938 C 22.632812 25.878906 22.558594 25.441406 22.453125 24.953125 C 22.425781 24.984375 22.394531 25.019531 22.363281 25.054688 C 22.300781 25.121094 22.230469 25.1875 22.15625 25.246094 C 22.082031 25.300781 22 25.351562 21.886719 25.347656 C 21.785156 25.34375 21.703125 25.308594 21.601562 25.261719 C 21.503906 25.214844 21.394531 25.15625 21.296875 25.097656 C 21.21875 25.054688 21.148438 25.011719 21.089844 24.972656 C 21.101562 25.097656 21.128906 25.226562 21.121094 25.347656 C 21.121094 25.414062 21.109375 25.492188 21.046875 25.558594 C 21.046875 25.582031 21.042969 25.691406 21.039062 25.804688 C 21.039062 25.867188 21.035156 25.933594 21.03125 25.992188 C 21.03125 26.011719 21.027344 26.027344 21.027344 26.046875 Z M 20.976562 23.15625 C 21.085938 23.445312 21.140625 23.792969 21.152344 24.109375 C 21.152344 24.140625 21.152344 24.171875 21.152344 24.203125 L 22.257812 24.160156 C 22.167969 23.832031 22.066406 23.515625 21.957031 23.269531 C 21.84375 23.015625 21.710938 22.839844 21.640625 22.792969 C 21.5 22.886719 21.320312 22.984375 21.128906 23.082031 C 21.078125 23.109375 21.027344 23.132812 20.976562 23.15625 Z M 20.410156 23.402344 C 20.425781 23.585938 20.464844 24.03125 20.5 24.507812 C 20.503906 24.558594 20.507812 24.609375 20.511719 24.660156 C 20.527344 24.675781 20.578125 24.730469 20.636719 24.765625 C 20.671875 24.785156 20.703125 24.796875 20.71875 24.796875 C 20.738281 24.796875 20.746094 24.796875 20.773438 24.765625 C 20.789062 24.75 20.832031 24.667969 20.851562 24.546875 C 20.871094 24.429688 20.878906 24.28125 20.875 24.117188 C 20.867188 23.835938 20.8125 23.519531 20.722656 23.273438 C 20.617188 23.320312 20.511719 23.363281 20.410156 23.402344 Z M 22.433594 26.769531 C 22.539062 26.769531 22.628906 26.757812 22.621094 26.757812 C 22.640625 26.753906 22.652344 26.761719 22.671875 26.667969 C 22.6875 26.613281 22.695312 26.519531 22.6875 26.390625 C 22.679688 26.386719 22.675781 26.386719 22.667969 26.382812 C 22.691406 26.394531 22.632812 26.375 22.566406 26.367188 C 22.496094 26.359375 22.402344 26.351562 22.296875 26.347656 C 22.082031 26.335938 21.808594 26.328125 21.539062 26.324219 C 21.148438 26.316406 20.769531 26.316406 20.59375 26.316406 C 20.609375 26.386719 20.636719 26.449219 20.671875 26.503906 C 20.753906 26.628906 20.882812 26.714844 21.117188 26.730469 C 21.386719 26.75 21.742188 26.761719 22.039062 26.769531 C 22.191406 26.773438 22.328125 26.773438 22.433594 26.769531 Z M 23.597656 28.234375 C 23.652344 28.15625 23.679688 28.070312 23.695312 28.007812 C 23.570312 27.988281 23.425781 27.96875 23.285156 27.945312 C 23.097656 27.910156 22.914062 27.875 22.765625 27.839844 C 22.714844 27.828125 22.667969 27.8125 22.625 27.800781 C 22.597656 27.867188 22.566406 27.960938 22.5625 28.050781 C 22.558594 28.136719 22.574219 28.207031 22.628906 28.273438 C 22.679688 28.335938 22.777344 28.398438 22.96875 28.4375 C 23.351562 28.511719 23.5 28.382812 23.597656 28.234375 Z M 24.191406 26.921875 C 24.101562 26.960938 24.023438 27.003906 23.90625 27.03125 C 23.730469 27.074219 23.523438 27.113281 23.324219 27.144531 C 22.992188 27.195312 22.773438 27.21875 22.683594 27.226562 C 22.683594 27.265625 22.679688 27.277344 22.679688 27.332031 C 22.679688 27.386719 22.675781 27.445312 22.679688 27.492188 C 22.679688 27.515625 22.679688 27.519531 22.683594 27.535156 C 22.71875 27.546875 22.769531 27.5625 22.835938 27.578125 C 22.96875 27.609375 23.152344 27.644531 23.335938 27.675781 C 23.515625 27.707031 23.703125 27.734375 23.84375 27.75 C 23.914062 27.757812 23.972656 27.765625 24.015625 27.769531 C 24.027344 27.734375 24.042969 27.691406 24.058594 27.640625 C 24.09375 27.519531 24.128906 27.363281 24.15625 27.21875 C 24.179688 27.097656 24.1875 27 24.191406 26.921875 Z M 21.65625 24.796875 C 21.65625 24.6875 21.75 24.59375 21.859375 24.59375 C 21.972656 24.59375 22.066406 24.6875 22.066406 24.796875 C 22.066406 24.90625 21.972656 24.996094 21.859375 24.996094 C 21.75 24.996094 21.65625 24.90625 21.65625 24.796875 Z M 21.789062 24.796875 C 21.789062 24.832031 21.824219 24.867188 21.859375 24.867188 C 21.898438 24.867188 21.933594 24.832031 21.933594 24.796875 C 21.933594 24.757812 21.898438 24.726562 21.859375 24.726562 C 21.824219 24.726562 21.789062 24.757812 21.789062 24.796875 Z M 21.664062 18.085938 C 21.722656 18.535156 22.023438 18.867188 22.335938 18.832031 C 22.652344 18.792969 22.859375 18.398438 22.804688 17.949219 C 22.796875 17.894531 22.785156 17.839844 22.773438 17.789062 C 22.78125 17.785156 22.789062 17.785156 22.800781 17.78125 C 22.960938 17.746094 23.167969 17.664062 23.242188 17.457031 C 23.265625 17.386719 23.230469 17.308594 23.15625 17.28125 C 23.085938 17.257812 23.003906 17.292969 22.980469 17.367188 C 22.953125 17.4375 22.855469 17.488281 22.734375 17.519531 C 22.722656 17.519531 22.710938 17.523438 22.699219 17.523438 C 22.707031 17.519531 22.714844 17.515625 22.71875 17.511719 C 22.773438 17.464844 22.832031 17.417969 22.878906 17.371094 C 22.925781 17.320312 22.972656 17.285156 22.988281 17.183594 C 23 17.113281 22.945312 17.042969 22.871094 17.03125 C 22.796875 17.019531 22.722656 17.074219 22.714844 17.148438 C 22.71875 17.105469 22.710938 17.148438 22.675781 17.183594 C 22.640625 17.21875 22.59375 17.261719 22.542969 17.300781 C 22.53125 17.3125 22.515625 17.320312 22.503906 17.332031 C 22.390625 17.238281 22.265625 17.1875 22.132812 17.203125 C 21.816406 17.242188 21.609375 17.636719 21.664062 18.085938 Z M 21.664062 18.085938 " fill-opacity="1" fill-rule="nonzero"/></g><g fill="#000000" fill-opacity="1"><g transform="translate(9.676067, 7.887502)"><g><path d="M 2.480469 -1.453125 C 2.699219 -1.585938 2.820312 -1.824219 2.8125 -2.007812 L 2.140625 -3.109375 C 2.167969 -2.878906 2.082031 -2.652344 1.78125 -2.46875 C 1.417969 -2.246094 1.222656 -2.324219 0.917969 -2.136719 L 0.910156 -2.132812 L 0.882812 -2.175781 L 1.132812 -2.324219 C 1.824219 -2.746094 2.035156 -2.976562 1.769531 -3.40625 C 1.664062 -3.578125 1.5625 -3.671875 1.433594 -3.75 L 0.386719 -3.113281 C 0.515625 -3.042969 0.636719 -2.925781 0.71875 -2.792969 C 0.898438 -2.5 0.832031 -2.246094 0.554688 -2.074219 L 0.410156 -1.988281 L 0.398438 -2.007812 C 0.21875 -2.300781 0.078125 -2.632812 0.015625 -2.882812 L -1.148438 -2.175781 C -0.949219 -2 -0.679688 -1.652344 -0.5 -1.359375 L -0.300781 -1.027344 C -0.121094 -0.734375 0.0664062 -0.339844 0.128906 -0.078125 L 1.292969 -0.789062 C 1.089844 -0.964844 0.804688 -1.339844 0.625 -1.632812 L 0.53125 -1.789062 C 0.546875 -1.8125 0.570312 -1.84375 0.613281 -1.871094 C 1.15625 -2.203125 1.554688 -0.886719 2.480469 -1.453125 Z M 2.480469 -1.453125 "/></g></g></g><g fill="#000000" fill-opacity="1"><g transform="translate(12.597109, 6.180527)"><g><path d="M -0.0703125 -0.585938 L 1.238281 -1.109375 L 1.023438 -1.65625 L -0.289062 -1.128906 Z M -0.0703125 -0.585938 "/></g></g></g><g fill="#000000" fill-opacity="1"><g transform="translate(14.051405, 5.51851)"><g><path d="M 1.667969 -0.316406 C 2.628906 -0.53125 3.175781 -0.886719 3.058594 -1.414062 C 2.855469 -2.332031 0.933594 -1.375 0.863281 -1.699219 C 0.84375 -1.777344 1.046875 -1.859375 1.324219 -1.921875 C 1.800781 -2.027344 2.304688 -2.023438 2.648438 -1.921875 L 2.425781 -2.914062 C 2.070312 -2.953125 1.507812 -2.902344 1.082031 -2.808594 C 0.191406 -2.609375 -0.433594 -2.269531 -0.3125 -1.726562 C -0.101562 -0.78125 1.824219 -1.667969 1.882812 -1.402344 C 1.898438 -1.328125 1.722656 -1.261719 1.441406 -1.199219 C 0.796875 -1.058594 0.207031 -1.070312 -0.195312 -1.273438 L 0.00390625 -0.179688 C 0.40625 -0.152344 1.222656 -0.21875 1.667969 -0.316406 Z M 1.667969 -0.316406 "/></g></g></g><g fill="#000000" fill-opacity="1"><g transform="translate(17.1381, 4.805533)"><g><path d="M 0.152344 0 L 1.515625 0 C 1.421875 -0.277344 1.386719 -0.65625 1.386719 -0.980469 L 1.386719 -1.058594 L 2.109375 -1.058594 L 2.109375 -0.980469 C 2.109375 -0.636719 2.046875 -0.257812 1.976562 0 L 3.34375 0 C 3.257812 -0.257812 3.210938 -0.691406 3.210938 -1.035156 L 3.210938 -1.421875 C 3.210938 -1.765625 3.261719 -2.203125 3.34375 -2.453125 L 1.976562 -2.453125 C 2.054688 -2.199219 2.109375 -1.816406 2.109375 -1.472656 L 2.109375 -1.429688 L 1.386719 -1.429688 L 1.386719 -1.472656 C 1.386719 -1.8125 1.429688 -2.183594 1.515625 -2.453125 L 0.152344 -2.453125 C 0.226562 -2.199219 0.28125 -1.765625 0.28125 -1.421875 L 0.28125 -1.035156 C 0.28125 -0.691406 0.234375 -0.257812 0.152344 0 Z M 0.152344 0 "/></g></g></g><g fill="#000000" fill-opacity="1"><g transform="translate(20.466953, 4.788514)"><g><path d="M 1.679688 0.433594 C 2.636719 0.652344 3.433594 0.390625 3.621094 -0.4375 C 3.8125 -1.265625 3.203125 -1.84375 2.246094 -2.0625 C 1.289062 -2.277344 0.488281 -2.015625 0.300781 -1.191406 C 0.113281 -0.363281 0.722656 0.21875 1.679688 0.433594 Z M 1.867188 -0.390625 C 1.527344 -0.46875 1.335938 -0.664062 1.398438 -0.941406 C 1.464844 -1.21875 1.71875 -1.3125 2.058594 -1.234375 C 2.394531 -1.15625 2.589844 -0.960938 2.523438 -0.6875 C 2.460938 -0.410156 2.203125 -0.316406 1.867188 -0.390625 Z M 1.867188 -0.390625 "/></g></g></g><g fill="#000000" fill-opacity="1"><g transform="translate(23.693957, 5.507776)"><g><path d="M 0.136719 0.0664062 L 1.367188 0.648438 C 1.402344 0.382812 1.539062 -0.0117188 1.683594 -0.320312 L 1.707031 -0.371094 L 1.742188 -0.355469 C 1.707031 -0.0234375 1.921875 0.328125 2.351562 0.53125 C 2.960938 0.820312 3.429688 0.636719 3.695312 0.0820312 C 3.960938 -0.484375 3.609375 -1.007812 2.945312 -1.320312 L 1.1875 -2.152344 C 1.148438 -1.886719 1.007812 -1.472656 0.863281 -1.164062 L 0.695312 -0.816406 C 0.550781 -0.503906 0.320312 -0.128906 0.136719 0.0664062 Z M 2.164062 -0.238281 C 1.898438 -0.363281 1.800781 -0.539062 1.871094 -0.710938 L 1.921875 -0.820312 C 2.09375 -0.78125 2.226562 -0.730469 2.40625 -0.644531 C 2.640625 -0.535156 2.707031 -0.394531 2.652344 -0.273438 C 2.589844 -0.144531 2.382812 -0.136719 2.164062 -0.238281 Z M 2.164062 -0.238281 "/></g></g></g><g fill="#000000" fill-opacity="1"><g transform="translate(26.608661, 6.974385)"><g/></g></g><g fill="#000000" fill-opacity="1"><g transform="translate(27.291989, 7.418693)"><g/></g></g><g fill="#000000" fill-opacity="1"><g transform="translate(7.212101, 31.123608)"><g><path d="M 2.253906 1.785156 C 2.457031 1.9375 2.726562 1.964844 2.894531 1.890625 L 3.675781 0.863281 C 3.472656 0.972656 3.226562 0.976562 2.945312 0.761719 C 2.609375 0.503906 2.609375 0.292969 2.324219 0.078125 L 2.316406 0.0703125 L 2.347656 0.03125 L 2.578125 0.210938 C 3.222656 0.699219 3.511719 0.8125 3.816406 0.410156 C 3.941406 0.25 3.988281 0.125 4.015625 -0.0273438 L 3.042969 -0.769531 C 3.019531 -0.625 2.957031 -0.46875 2.863281 -0.34375 C 2.65625 -0.0703125 2.394531 -0.0429688 2.132812 -0.238281 L 2 -0.339844 L 2.015625 -0.359375 C 2.222656 -0.632812 2.480469 -0.886719 2.691406 -1.035156 L 1.605469 -1.863281 C 1.519531 -1.613281 1.292969 -1.234375 1.082031 -0.960938 L 0.851562 -0.652344 C 0.640625 -0.378906 0.34375 -0.0625 0.121094 0.0898438 L 1.207031 0.917969 C 1.292969 0.664062 1.542969 0.261719 1.75 -0.0117188 L 1.859375 -0.152344 C 1.886719 -0.148438 1.925781 -0.136719 1.964844 -0.109375 C 2.472656 0.277344 1.390625 1.125 2.253906 1.785156 Z M 2.253906 1.785156 "/></g></g></g><g fill="#000000" fill-opacity="1"><g transform="translate(10.161399, 33.264612)"><g><path d="M 0.132812 0.0703125 L 1.335938 0.714844 C 1.382812 0.449219 1.546875 0.046875 1.710938 -0.257812 L 1.890625 -0.597656 C 2.054688 -0.898438 2.304688 -1.261719 2.496094 -1.449219 L 1.292969 -2.09375 C 1.246094 -1.832031 1.082031 -1.421875 0.917969 -1.121094 L 0.734375 -0.777344 C 0.574219 -0.476562 0.328125 -0.113281 0.132812 0.0703125 Z M 0.132812 0.0703125 "/></g></g></g><g fill="#000000" fill-opacity="1"><g transform="translate(11.723228, 34.19154)"><g><path d="M 0.144531 0.046875 L 1.4375 0.480469 C 1.441406 0.257812 1.554688 -0.285156 1.671875 -0.628906 L 1.691406 -0.683594 L 1.742188 -0.664062 L 2.417969 0.808594 L 3.371094 1.128906 L 3.824219 -0.214844 C 3.933594 -0.542969 4.121094 -0.941406 4.273438 -1.15625 L 2.984375 -1.589844 C 2.980469 -1.386719 2.894531 -0.929688 2.78125 -0.59375 L 2.761719 -0.535156 L 2.710938 -0.550781 L 2.125 -1.871094 L 0.921875 -2.28125 C 0.921875 -2.011719 0.828125 -1.582031 0.71875 -1.257812 L 0.59375 -0.890625 C 0.484375 -0.566406 0.300781 -0.167969 0.144531 0.046875 Z M 0.144531 0.046875 "/></g></g></g><g fill="#000000" fill-opacity="1"><g transform="translate(15.552972, 35.426187)"><g><path d="M 1.75 0.234375 C 2.375 0.296875 2.9375 0.210938 3.308594 -0.015625 L 3.40625 -0.976562 L 1.777344 -1.144531 L 1.75 -0.871094 C 1.828125 -0.882812 1.980469 -0.886719 2.054688 -0.878906 L 2.355469 -0.847656 L 2.34375 -0.722656 C 2.214844 -0.679688 2.050781 -0.671875 1.871094 -0.691406 C 1.4375 -0.738281 1.21875 -0.902344 1.238281 -1.097656 C 1.261719 -1.339844 1.574219 -1.429688 2.085938 -1.378906 C 2.480469 -1.339844 2.882812 -1.226562 3.074219 -1.078125 L 3.210938 -2.042969 C 2.878906 -2.15625 2.542969 -2.257812 2.023438 -2.3125 C 1.003906 -2.417969 0.242188 -2.027344 0.15625 -1.21875 C 0.0742188 -0.410156 0.722656 0.128906 1.75 0.234375 Z M 1.75 0.234375 "/></g></g></g><g fill="#000000" fill-opacity="1"><g transform="translate(19.086187, 35.777613)"><g><path d="M 0.148438 -0.015625 L 1.917969 -0.207031 C 2.886719 -0.3125 3.398438 -0.789062 3.3125 -1.59375 C 3.226562 -2.398438 2.621094 -2.753906 1.652344 -2.648438 L -0.113281 -2.457031 C -0.0117188 -2.214844 0.0898438 -1.785156 0.125 -1.441406 L 0.167969 -1.058594 C 0.203125 -0.71875 0.207031 -0.28125 0.148438 -0.015625 Z M 1.273438 -1.097656 L 1.214844 -1.640625 L 1.664062 -1.691406 C 1.984375 -1.722656 2.164062 -1.660156 2.1875 -1.472656 C 2.207031 -1.28125 2.046875 -1.179688 1.722656 -1.144531 Z M 1.273438 -1.097656 "/></g></g></g><g fill="#000000" fill-opacity="1"><g transform="translate(22.741485, 35.360945)"><g><path d="M 1.664062 -0.5 C 2.59375 -0.808594 3.140625 -1.445312 2.875 -2.25 C 2.605469 -3.054688 1.785156 -3.234375 0.855469 -2.925781 C -0.0742188 -2.617188 -0.625 -1.980469 -0.359375 -1.175781 C -0.0898438 -0.371094 0.730469 -0.1875 1.664062 -0.5 Z M 1.394531 -1.304688 C 1.0625 -1.191406 0.800781 -1.261719 0.710938 -1.53125 C 0.621094 -1.800781 0.789062 -2.011719 1.125 -2.121094 C 1.449219 -2.230469 1.714844 -2.164062 1.804688 -1.894531 C 1.894531 -1.625 1.722656 -1.410156 1.394531 -1.304688 Z M 1.394531 -1.304688 "/></g></g></g><g fill="#000000" fill-opacity="1"><g transform="translate(26.25603, 34.232556)"><g><path d="M 0.128906 -0.0820312 L 1.277344 -0.8125 C 1.097656 -0.964844 0.789062 -1.347656 0.597656 -1.648438 L 0.515625 -1.777344 L 0.550781 -1.800781 L 1.796875 -1.144531 L 2.023438 -1.289062 L 1.960938 -2.699219 L 2.007812 -2.730469 L 2.089844 -2.597656 C 2.285156 -2.296875 2.496094 -1.855469 2.558594 -1.628906 L 3.707031 -2.359375 C 3.503906 -2.535156 3.230469 -2.875 3.046875 -3.164062 L 2.835938 -3.488281 C 2.652344 -3.777344 2.457031 -4.171875 2.390625 -4.429688 L 1.183594 -3.660156 L 1.238281 -2.703125 C 1.25 -2.5 1.261719 -2.441406 1.324219 -2.226562 L 1.285156 -2.203125 C 1.105469 -2.351562 1.039062 -2.398438 0.886719 -2.480469 L 0.046875 -2.9375 L -1.191406 -2.152344 C -0.980469 -1.980469 -0.710938 -1.640625 -0.527344 -1.347656 L -0.320312 -1.023438 C -0.132812 -0.734375 0.0585938 -0.339844 0.128906 -0.0820312 Z M 0.128906 -0.0820312 "/></g></g></g><g fill="#000000" fill-opacity="1"><g transform="translate(30.108411, 31.587537)"><g/></g></g><g fill="#000000" fill-opacity="1"><g transform="translate(1.398869, 20.682652)"><g><path d="M 0.109375 0 L 1.433594 0 L 1.558594 -0.550781 C 1.441406 -0.523438 1.296875 -0.515625 1.023438 -0.515625 L 0.695312 -0.515625 L 0.675781 -0.542969 L 1.226562 -1.785156 C 1.429688 -2.253906 1.503906 -2.496094 1.503906 -2.78125 C 1.503906 -3.289062 1.1875 -3.582031 0.75 -3.582031 C 0.523438 -3.582031 0.34375 -3.519531 0.179688 -3.4375 L 0.179688 -2.90625 C 0.3125 -2.992188 0.464844 -3.058594 0.640625 -3.058594 C 0.851562 -3.058594 0.984375 -2.910156 0.984375 -2.695312 C 0.984375 -2.503906 0.921875 -2.285156 0.746094 -1.886719 L 0.109375 -0.453125 Z M 0.109375 0 "/></g></g></g><g fill="#000000" fill-opacity="1"><g transform="translate(3.053515, 20.682652)"><g><path d="M 0.96875 0.0507812 C 1.492188 0.0507812 1.796875 -0.53125 1.796875 -1.765625 C 1.796875 -3.011719 1.492188 -3.582031 0.96875 -3.582031 C 0.429688 -3.582031 0.136719 -3.007812 0.136719 -1.765625 C 0.136719 -0.523438 0.429688 0.0507812 0.96875 0.0507812 Z M 0.96875 -0.449219 C 0.792969 -0.449219 0.652344 -0.746094 0.652344 -1.765625 C 0.652344 -2.789062 0.792969 -3.085938 0.96875 -3.085938 C 1.140625 -3.085938 1.277344 -2.785156 1.277344 -1.765625 C 1.277344 -0.742188 1.140625 -0.449219 0.96875 -0.449219 Z M 0.96875 -0.449219 "/></g></g></g><g fill="#000000" fill-opacity="1"><g transform="translate(32.694851, 20.682652)"><g><path d="M 0.109375 0 L 1.433594 0 L 1.558594 -0.550781 C 1.441406 -0.523438 1.296875 -0.515625 1.023438 -0.515625 L 0.695312 -0.515625 L 0.675781 -0.542969 L 1.226562 -1.785156 C 1.429688 -2.253906 1.503906 -2.496094 1.503906 -2.78125 C 1.503906 -3.289062 1.1875 -3.582031 0.75 -3.582031 C 0.523438 -3.582031 0.34375 -3.519531 0.179688 -3.4375 L 0.179688 -2.90625 C 0.3125 -2.992188 0.464844 -3.058594 0.640625 -3.058594 C 0.851562 -3.058594 0.984375 -2.910156 0.984375 -2.695312 C 0.984375 -2.503906 0.921875 -2.285156 0.746094 -1.886719 L 0.109375 -0.453125 Z M 0.109375 0 "/></g></g></g><g fill="#000000" fill-opacity="1"><g transform="translate(34.349496, 20.682652)"><g><path d="M 0.582031 0.0507812 C 1.113281 0.0507812 1.511719 -0.394531 1.511719 -1.074219 C 1.511719 -1.558594 1.25 -1.976562 0.816406 -1.976562 L 0.800781 -1.976562 L 0.800781 -2.011719 L 0.816406 -2.011719 C 1.199219 -2.011719 1.464844 -2.320312 1.464844 -2.75 C 1.464844 -3.320312 1.140625 -3.582031 0.609375 -3.582031 C 0.398438 -3.582031 0.261719 -3.550781 0.121094 -3.496094 L 0.121094 -3.03125 C 0.265625 -3.085938 0.363281 -3.121094 0.550781 -3.121094 C 0.808594 -3.121094 0.972656 -2.960938 0.972656 -2.660156 C 0.972656 -2.3125 0.746094 -2.152344 0.382812 -2.152344 L 0.3125 -2.152344 L 0.3125 -1.816406 L 0.378906 -1.816406 C 0.742188 -1.816406 0.988281 -1.554688 0.988281 -1.175781 C 0.988281 -0.738281 0.78125 -0.453125 0.503906 -0.453125 C 0.324219 -0.453125 0.222656 -0.496094 0.0742188 -0.550781 L 0.0742188 -0.0390625 C 0.21875 0.015625 0.367188 0.0507812 0.582031 0.0507812 Z M 0.582031 0.0507812 "/></g></g></g></svg>