<svg xmlns="http://www.w3.org/2000/svg" xmlns:xlink="http://www.w3.org/1999/xlink" width="45" zoomAndPan="magnify" viewBox="0 0 33.75 33.749999" height="45" preserveAspectRatio="xMidYMid meet" version="1.0"><defs><g/><clipPath id="dcb70c14f1"><path d="M 0.171875 0.152344 L 33.5 0.152344 L 33.5 33.5 L 0.171875 33.5 Z M 0.171875 0.152344 " clip-rule="nonzero"/></clipPath><clipPath id="faaf50cfdf"><path d="M 0.171875 12 L 6 12 L 6 13 L 0.171875 13 Z M 0.171875 12 " clip-rule="nonzero"/></clipPath><clipPath id="91f924d4aa"><path d="M 14 19 L 21 19 L 21 25.914062 L 14 25.914062 Z M 14 19 " clip-rule="nonzero"/></clipPath><clipPath id="40db5ff716"><path d="M 10.40625 8 L 23.851562 8 L 23.851562 16 L 10.40625 16 Z M 10.40625 8 " clip-rule="nonzero"/></clipPath><clipPath id="f6c54b4df3"><path d="M 12 15 L 22 15 L 22 25.914062 L 12 25.914062 Z M 12 15 " clip-rule="nonzero"/></clipPath><clipPath id="0fc8660304"><path d="M 11 12 L 23.851562 12 L 23.851562 23 L 11 23 Z M 11 12 " clip-rule="nonzero"/></clipPath><clipPath id="22bd2a0d8a"><path d="M 13 20 L 22 20 L 22 25.914062 L 13 25.914062 Z M 13 20 " clip-rule="nonzero"/></clipPath><clipPath id="7ac9b0f18e"><path d="M 10.40625 8 L 23.851562 8 L 23.851562 25.914062 L 10.40625 25.914062 Z M 10.40625 8 " clip-rule="nonzero"/></clipPath></defs><g clip-path="url(#dcb70c14f1)"><path fill="#faf0eb" d="M 33.449219 16.957031 C 33.449219 17.496094 33.421875 18.035156 33.367188 18.570312 C 33.316406 19.109375 33.234375 19.640625 33.132812 20.167969 C 33.027344 20.699219 32.894531 21.222656 32.738281 21.738281 C 32.582031 22.253906 32.398438 22.761719 32.195312 23.257812 C 31.988281 23.757812 31.757812 24.246094 31.503906 24.71875 C 31.25 25.195312 30.972656 25.65625 30.671875 26.105469 C 30.371094 26.554688 30.050781 26.988281 29.710938 27.40625 C 29.367188 27.820312 29.003906 28.21875 28.625 28.601562 C 28.242188 28.984375 27.84375 29.34375 27.425781 29.6875 C 27.007812 30.03125 26.578125 30.351562 26.128906 30.648438 C 25.679688 30.949219 25.21875 31.226562 24.742188 31.480469 C 24.265625 31.734375 23.777344 31.964844 23.28125 32.171875 C 22.78125 32.378906 22.273438 32.558594 21.757812 32.714844 C 21.242188 32.875 20.71875 33.003906 20.191406 33.109375 C 19.664062 33.214844 19.128906 33.292969 18.59375 33.347656 C 18.054688 33.398438 17.519531 33.425781 16.976562 33.425781 C 16.4375 33.425781 15.902344 33.398438 15.363281 33.347656 C 14.828125 33.292969 14.292969 33.214844 13.765625 33.109375 C 13.238281 33.003906 12.714844 32.875 12.199219 32.714844 C 11.683594 32.558594 11.175781 32.378906 10.675781 32.171875 C 10.179688 31.964844 9.691406 31.734375 9.214844 31.480469 C 8.738281 31.226562 8.277344 30.949219 7.828125 30.648438 C 7.378906 30.351562 6.949219 30.03125 6.53125 29.6875 C 6.113281 29.34375 5.714844 28.984375 5.332031 28.601562 C 4.953125 28.21875 4.589844 27.820312 4.246094 27.40625 C 3.90625 26.988281 3.585938 26.554688 3.285156 26.105469 C 2.984375 25.65625 2.707031 25.195312 2.453125 24.71875 C 2.199219 24.246094 1.96875 23.757812 1.761719 23.257812 C 1.558594 22.761719 1.375 22.253906 1.21875 21.738281 C 1.0625 21.222656 0.929688 20.699219 0.824219 20.167969 C 0.722656 19.640625 0.640625 19.109375 0.589844 18.570312 C 0.535156 18.035156 0.507812 17.496094 0.507812 16.957031 C 0.507812 16.417969 0.535156 15.878906 0.589844 15.34375 C 0.640625 14.804688 0.722656 14.273438 0.824219 13.742188 C 0.929688 13.214844 1.0625 12.691406 1.21875 12.175781 C 1.375 11.660156 1.558594 11.152344 1.761719 10.652344 C 1.96875 10.15625 2.199219 9.667969 2.453125 9.191406 C 2.707031 8.71875 2.984375 8.253906 3.285156 7.808594 C 3.585938 7.359375 3.90625 6.925781 4.246094 6.507812 C 4.589844 6.09375 4.953125 5.691406 5.332031 5.3125 C 5.714844 4.929688 6.113281 4.566406 6.53125 4.226562 C 6.949219 3.882812 7.378906 3.5625 7.828125 3.261719 C 8.277344 2.964844 8.738281 2.6875 9.214844 2.433594 C 9.691406 2.179688 10.179688 1.949219 10.675781 1.742188 C 11.175781 1.535156 11.683594 1.351562 12.199219 1.195312 C 12.714844 1.039062 13.238281 0.910156 13.765625 0.804688 C 14.292969 0.699219 14.828125 0.621094 15.363281 0.566406 C 15.902344 0.515625 16.4375 0.488281 16.976562 0.488281 C 17.519531 0.488281 18.054688 0.515625 18.59375 0.566406 C 19.128906 0.621094 19.664062 0.699219 20.191406 0.804688 C 20.71875 0.910156 21.242188 1.039062 21.757812 1.195312 C 22.273438 1.351562 22.78125 1.535156 23.28125 1.742188 C 23.777344 1.949219 24.265625 2.179688 24.742188 2.433594 C 25.21875 2.6875 25.679688 2.964844 26.128906 3.261719 C 26.578125 3.5625 27.007812 3.882812 27.425781 4.226562 C 27.84375 4.566406 28.242188 4.929688 28.625 5.3125 C 29.003906 5.691406 29.367188 6.09375 29.710938 6.507812 C 30.050781 6.925781 30.371094 7.359375 30.671875 7.808594 C 30.972656 8.253906 31.25 8.71875 31.503906 9.191406 C 31.757812 9.667969 31.988281 10.15625 32.195312 10.652344 C 32.398438 11.152344 32.582031 11.660156 32.738281 12.175781 C 32.894531 12.691406 33.027344 13.214844 33.132812 13.742188 C 33.234375 14.273438 33.316406 14.804688 33.367188 15.34375 C 33.421875 15.878906 33.449219 16.417969 33.449219 16.957031 Z M 33.449219 16.957031 " fill-opacity="1" fill-rule="nonzero"/><path fill="#000000" d="M 16.976562 33.761719 C 12.488281 33.761719 8.265625 32.015625 5.09375 28.839844 C 1.921875 25.667969 0.171875 21.445312 0.171875 16.957031 C 0.171875 12.464844 1.921875 8.246094 5.09375 5.070312 C 8.265625 1.898438 12.488281 0.152344 16.976562 0.152344 C 21.46875 0.152344 25.691406 1.898438 28.863281 5.070312 C 32.035156 8.246094 33.785156 12.464844 33.785156 16.957031 C 33.785156 21.445312 32.035156 25.667969 28.863281 28.839844 C 25.691406 32.015625 21.46875 33.761719 16.976562 33.761719 Z M 16.976562 0.824219 C 8.085938 0.824219 0.84375 8.0625 0.84375 16.957031 C 0.84375 25.851562 8.085938 33.089844 16.976562 33.089844 C 25.871094 33.089844 33.113281 25.851562 33.113281 16.957031 C 33.113281 8.0625 25.871094 0.824219 16.976562 0.824219 Z M 16.976562 0.824219 " fill-opacity="1" fill-rule="nonzero"/></g><path fill="#000000" d="M 16.976562 29.070312 C 10.304688 29.070312 4.867188 23.636719 4.867188 16.957031 C 4.867188 10.273438 10.304688 4.84375 16.976562 4.84375 C 23.652344 4.84375 29.089844 10.28125 29.089844 16.957031 C 29.089844 23.632812 23.652344 29.070312 16.976562 29.070312 Z M 16.976562 5.515625 C 10.671875 5.515625 5.539062 10.644531 5.539062 16.957031 C 5.539062 23.269531 10.671875 28.398438 16.976562 28.398438 C 23.285156 28.398438 28.417969 23.261719 28.417969 16.957031 C 28.417969 10.652344 23.285156 5.515625 16.976562 5.515625 Z M 16.976562 5.515625 " fill-opacity="1" fill-rule="nonzero"/><g clip-path="url(#faaf50cfdf)"><path fill="#000000" d="M 0.980469 12.320312 L 5.953125 12.320312 L 5.953125 12.992188 L 0.980469 12.992188 Z M 0.980469 12.320312 " fill-opacity="1" fill-rule="nonzero"/></g><path fill="#000000" d="M 1.113281 20.855469 L 5.953125 20.855469 L 5.953125 21.527344 L 1.113281 21.527344 Z M 1.113281 20.855469 " fill-opacity="1" fill-rule="nonzero"/><path fill="#000000" d="M 28.003906 12.320312 L 32.976562 12.320312 L 32.976562 12.992188 L 28.003906 12.992188 Z M 28.003906 12.320312 " fill-opacity="1" fill-rule="nonzero"/><path fill="#000000" d="M 28.003906 20.855469 L 32.910156 20.855469 L 32.910156 21.527344 L 28.003906 21.527344 Z M 28.003906 20.855469 " fill-opacity="1" fill-rule="nonzero"/><g clip-path="url(#91f924d4aa)"><path fill="#fbfffc" d="M 20.242188 24.328125 C 20.230469 24.476562 20.261719 24.667969 20.167969 24.800781 C 19.757812 24.929688 19.332031 24.996094 18.902344 25.015625 C 17.871094 25.042969 16.835938 25.074219 15.804688 24.992188 C 15.535156 24.953125 15.214844 25.007812 14.988281 24.828125 C 14.917969 24.726562 14.886719 24.53125 14.988281 24.453125 C 15.570312 24.433594 16.164062 24.417969 16.734375 24.273438 C 16.964844 24.242188 17.085938 24.039062 17.121094 23.835938 C 17.226562 23.050781 17.144531 22.242188 17.230469 21.449219 C 17.230469 21.230469 17.410156 21.097656 17.582031 20.984375 C 17.4375 20.835938 17.191406 20.769531 17.011719 20.648438 C 16.851562 20.601562 16.921875 20.402344 17.054688 20.378906 C 17.363281 20.398438 17.628906 20.613281 17.941406 20.621094 C 18.214844 20.542969 18.457031 20.371094 18.683594 20.203125 C 18.839844 20.128906 18.773438 19.890625 18.941406 19.839844 C 19.101562 19.855469 19.234375 19.976562 19.375 20.042969 C 19.5 20.082031 19.5625 20.234375 19.441406 20.320312 C 19.042969 20.578125 18.597656 20.769531 18.152344 20.941406 C 18.078125 20.992188 17.875 20.960938 17.878906 21.082031 C 17.957031 21.15625 18.132812 21.011719 18.1875 21.132812 C 18.265625 21.804688 18.296875 22.488281 18.332031 23.167969 C 18.367188 23.480469 18.285156 23.875 18.585938 24.089844 C 18.941406 24.300781 19.382812 24.238281 19.78125 24.261719 C 19.925781 24.292969 20.152344 24.191406 20.242188 24.328125 Z M 16.617188 22.320312 C 16.597656 22.320312 16.574219 22.320312 16.554688 22.320312 C 16.511719 22.332031 16.484375 22.371094 16.488281 22.414062 C 16.488281 22.480469 16.484375 22.546875 16.5 22.613281 C 16.515625 22.65625 16.574219 22.683594 16.617188 22.664062 C 16.664062 22.644531 16.675781 22.597656 16.695312 22.558594 C 16.714844 22.5 16.726562 22.4375 16.714844 22.378906 C 16.699219 22.339844 16.660156 22.316406 16.617188 22.320312 Z M 18.65625 22.617188 C 18.65625 22.621094 18.65625 22.621094 18.65625 22.625 C 18.65625 22.628906 18.65625 22.628906 18.65625 22.632812 C 18.65625 22.636719 18.65625 22.636719 18.65625 22.640625 C 18.65625 22.667969 18.660156 22.695312 18.660156 22.722656 C 18.664062 22.738281 18.664062 22.75 18.667969 22.765625 C 18.671875 22.777344 18.671875 22.789062 18.675781 22.800781 C 18.675781 22.800781 18.675781 22.804688 18.675781 22.804688 C 18.679688 22.808594 18.679688 22.8125 18.679688 22.816406 C 18.691406 22.835938 18.707031 22.855469 18.730469 22.863281 C 18.761719 22.875 18.800781 22.863281 18.824219 22.839844 C 18.839844 22.824219 18.847656 22.800781 18.847656 22.777344 C 18.847656 22.769531 18.84375 22.761719 18.84375 22.757812 C 18.84375 22.75 18.84375 22.742188 18.84375 22.734375 C 18.839844 22.6875 18.835938 22.636719 18.828125 22.589844 C 18.828125 22.570312 18.820312 22.550781 18.808594 22.535156 C 18.789062 22.515625 18.761719 22.503906 18.734375 22.507812 C 18.703125 22.507812 18.671875 22.53125 18.660156 22.558594 C 18.65625 22.574219 18.65625 22.585938 18.65625 22.601562 C 18.65625 22.605469 18.65625 22.613281 18.65625 22.617188 Z M 18.871094 21.664062 C 18.855469 21.410156 18.816406 21.160156 18.730469 20.917969 C 18.714844 20.882812 18.675781 20.863281 18.636719 20.867188 C 18.570312 20.886719 18.507812 20.917969 18.441406 20.941406 C 18.398438 20.964844 18.347656 20.972656 18.308594 21.003906 C 18.269531 21.042969 18.289062 21.101562 18.292969 21.148438 C 18.324219 21.5 18.351562 21.847656 18.378906 22.199219 C 18.386719 22.253906 18.433594 22.28125 18.46875 22.316406 C 18.527344 22.363281 18.605469 22.414062 18.683594 22.394531 C 18.761719 22.371094 18.796875 22.292969 18.820312 22.222656 C 18.875 22.042969 18.875 21.851562 18.871094 21.664062 Z M 16.527344 21.003906 C 16.609375 21.039062 16.699219 21.058594 16.789062 21.046875 C 16.824219 21.039062 16.839844 21.085938 16.820312 21.109375 C 16.6875 21.316406 16.546875 21.515625 16.417969 21.71875 C 16.394531 21.761719 16.414062 21.8125 16.414062 21.859375 C 16.425781 21.960938 16.4375 22.066406 16.457031 22.164062 C 16.46875 22.214844 16.519531 22.234375 16.566406 22.238281 C 16.621094 22.238281 16.675781 22.246094 16.722656 22.226562 C 16.78125 22.203125 16.785156 22.140625 16.804688 22.089844 C 16.917969 21.746094 17.007812 21.390625 17.101562 21.039062 C 17.113281 20.984375 17.136719 20.929688 17.136719 20.871094 C 17.132812 20.824219 17.089844 20.804688 17.050781 20.785156 C 16.957031 20.738281 16.871094 20.6875 16.777344 20.644531 C 16.761719 20.636719 16.75 20.640625 16.734375 20.640625 C 16.667969 20.664062 16.613281 20.703125 16.546875 20.722656 C 16.484375 20.746094 16.417969 20.753906 16.359375 20.777344 C 16.3125 20.808594 16.308594 20.878906 16.351562 20.914062 C 16.40625 20.949219 16.464844 20.980469 16.527344 21.003906 Z M 16.527344 21.003906 " fill-opacity="1" fill-rule="nonzero"/></g><path fill="#f5625b" d="M 19.554688 18.632812 C 19.398438 18.734375 19.179688 18.945312 18.988281 18.804688 C 18.84375 18.601562 18.90625 18.320312 18.917969 18.085938 C 18.960938 17.949219 18.941406 17.738281 19.09375 17.667969 L 19.113281 17.667969 C 19.304688 17.730469 19.386719 17.953125 19.496094 18.105469 C 19.578125 18.261719 19.753906 18.496094 19.554688 18.632812 Z M 19.554688 18.632812 " fill-opacity="1" fill-rule="nonzero"/><g clip-path="url(#40db5ff716)"><path fill="#56504f" d="M 17.574219 11.796875 C 16.078125 12.304688 14.746094 13.230469 13.632812 14.328125 C 13.527344 14.410156 13.445312 14.558594 13.296875 14.570312 C 13.210938 14.558594 13.085938 14.632812 13.03125 14.539062 C 12.839844 13.871094 12.71875 13.175781 12.722656 12.480469 C 12.707031 11.8125 12.8125 11.132812 13.09375 10.519531 C 13.28125 10.101562 13.578125 9.742188 13.921875 9.4375 C 13.980469 9.414062 13.929688 9.324219 13.882812 9.367188 C 13.644531 9.53125 13.457031 9.753906 13.289062 9.980469 C 12.820312 10.652344 12.640625 11.476562 12.632812 12.28125 C 12.609375 12.972656 12.707031 13.667969 12.878906 14.339844 C 12.890625 14.433594 12.988281 14.574219 12.859375 14.625 C 12.253906 14.730469 11.667969 14.941406 11.109375 15.199219 C 11.011719 15.25 10.957031 15.136719 10.953125 15.058594 C 10.75 14.292969 10.578125 13.5 10.660156 12.707031 C 10.726562 11.898438 11.050781 11.105469 11.617188 10.511719 C 12.3125 9.765625 13.269531 9.320312 14.242188 9.039062 C 15.097656 8.796875 15.984375 8.628906 16.878906 8.632812 C 16.933594 8.632812 16.992188 8.632812 17.046875 8.632812 C 17.925781 8.628906 18.820312 8.84375 19.554688 9.332031 C 20.277344 9.808594 20.773438 10.566406 20.992188 11.386719 C 21.019531 11.457031 21.054688 11.582031 20.9375 11.597656 C 20.800781 11.578125 20.671875 11.539062 20.535156 11.519531 C 19.546875 11.355469 18.515625 11.480469 17.574219 11.796875 Z M 21.226562 12.027344 C 21.296875 12.042969 21.390625 11.996094 21.363281 11.917969 C 21.328125 11.84375 21.226562 11.832031 21.160156 11.789062 C 20.820312 11.632812 20.441406 11.589844 20.070312 11.554688 C 19.914062 11.539062 19.757812 11.535156 19.601562 11.535156 C 18.605469 11.535156 17.628906 11.8125 16.734375 12.230469 C 15.597656 12.765625 14.582031 13.519531 13.695312 14.390625 C 13.632812 14.457031 13.695312 14.5625 13.78125 14.550781 C 14.308594 14.582031 14.832031 14.6875 15.359375 14.660156 C 15.925781 14.660156 16.503906 14.519531 16.957031 14.179688 C 17.253906 13.953125 17.507812 13.683594 17.796875 13.457031 C 18.4375 12.921875 19.164062 12.480469 19.964844 12.21875 C 20.371094 12.089844 20.800781 12.03125 21.226562 12.027344 Z M 23.371094 13.207031 C 23.015625 12.8125 22.558594 12.519531 22.089844 12.269531 C 21.785156 12.121094 21.4375 12.132812 21.105469 12.128906 C 20.472656 12.121094 19.859375 12.328125 19.296875 12.589844 C 19.175781 12.617188 19.101562 12.789062 19.296875 12.792969 C 20.015625 12.851562 20.738281 12.9375 21.414062 13.203125 C 21.71875 13.332031 22.042969 13.476562 22.25 13.738281 C 22.222656 13.820312 22.125 13.742188 22.089844 13.707031 C 21.960938 13.644531 21.925781 13.800781 21.96875 13.890625 C 22.007812 14.082031 21.984375 14.289062 22.054688 14.472656 C 22.21875 14.515625 22.402344 14.460938 22.574219 14.449219 C 22.929688 14.386719 23.335938 14.296875 23.5625 13.996094 C 23.726562 13.730469 23.558594 13.410156 23.371094 13.207031 Z M 14.375 8.902344 C 14.636719 8.828125 14.90625 8.78125 15.167969 8.707031 C 15.273438 8.628906 15.175781 8.496094 15.136719 8.410156 C 15.046875 8.253906 14.871094 8.167969 14.691406 8.175781 C 14.433594 8.1875 14.128906 8.300781 14.050781 8.5625 C 14.027344 8.675781 14 8.808594 14.058594 8.917969 C 14.144531 9.003906 14.273438 8.917969 14.375 8.902344 Z M 14.375 8.902344 " fill-opacity="1" fill-rule="nonzero"/></g><g clip-path="url(#f6c54b4df3)"><path fill="#f9cec2" d="M 15.878906 18.308594 C 15.871094 18.398438 15.933594 18.527344 15.84375 18.589844 C 15.722656 18.628906 15.589844 18.660156 15.492188 18.75 C 15.4375 18.8125 15.308594 18.871094 15.277344 18.757812 C 15.210938 18.359375 15.15625 17.957031 15.050781 17.570312 C 15.007812 17.402344 15.195312 17.285156 15.347656 17.292969 C 15.417969 17.292969 15.503906 17.296875 15.554688 17.351562 C 15.753906 17.632812 15.839844 17.972656 15.878906 18.308594 Z M 16.652344 18.898438 C 16.441406 18.761719 16.191406 18.695312 15.941406 18.683594 C 15.941406 18.683594 15.9375 18.683594 15.933594 18.683594 C 15.746094 18.679688 15.5625 18.773438 15.449219 18.921875 C 15.300781 19.117188 15.25 19.367188 15.242188 19.601562 C 15.234375 19.8125 15.292969 20.023438 15.410156 20.199219 C 15.574219 20.449219 15.835938 20.644531 16.136719 20.691406 C 16.394531 20.726562 16.664062 20.625 16.835938 20.4375 C 17.035156 20.230469 17.128906 19.941406 17.105469 19.664062 C 17.089844 19.355469 16.914062 19.0625 16.652344 18.898438 Z M 15.980469 18.285156 C 15.960938 18.34375 15.976562 18.40625 15.976562 18.46875 C 15.976562 18.515625 15.976562 18.578125 16.027344 18.597656 C 16.09375 18.621094 16.160156 18.621094 16.226562 18.636719 C 16.277344 18.644531 16.320312 18.667969 16.371094 18.671875 C 16.433594 18.675781 16.480469 18.609375 16.464844 18.550781 C 16.449219 18.441406 16.40625 18.316406 16.300781 18.261719 C 16.246094 18.230469 16.183594 18.230469 16.125 18.234375 C 16.070312 18.234375 16.007812 18.234375 15.980469 18.285156 Z M 15.25 19.109375 C 15.246094 19.136719 15.230469 19.167969 15.207031 19.183594 C 15.179688 19.199219 15.144531 19.199219 15.117188 19.1875 C 15.089844 19.175781 15.070312 19.15625 15.0625 19.128906 C 15.0625 19.125 15.0625 19.125 15.0625 19.121094 C 14.707031 18.9375 14.496094 18.570312 14.292969 18.246094 C 14.257812 18.140625 14.183594 18.085938 14.070312 18.109375 C 13.785156 18.125 13.480469 18.085938 13.261719 17.882812 C 12.945312 17.621094 12.746094 17.199219 12.78125 16.792969 C 12.886719 16.40625 13.339844 16.25 13.707031 16.207031 C 13.917969 16.21875 14.121094 16.0625 14.324219 16.171875 C 14.417969 16.1875 14.40625 16.292969 14.457031 16.335938 C 14.660156 16.296875 14.753906 16.058594 14.941406 15.980469 C 15.15625 15.9375 15.363281 15.859375 15.566406 15.789062 C 15.707031 15.792969 15.820312 15.714844 15.953125 15.691406 C 16.300781 15.664062 16.613281 15.496094 16.953125 15.449219 C 17.050781 15.484375 17.089844 15.402344 17.164062 15.375 C 17.355469 15.390625 17.542969 15.445312 17.738281 15.417969 C 17.921875 15.441406 18.089844 15.292969 18.265625 15.339844 C 18.316406 15.410156 18.40625 15.398438 18.441406 15.320312 C 18.59375 15.246094 18.75 15.398438 18.914062 15.378906 C 19.207031 15.4375 19.480469 15.285156 19.769531 15.328125 C 19.828125 15.28125 19.902344 15.203125 20.003906 15.214844 C 20.394531 15.226562 20.765625 15.101562 21.148438 15.046875 C 21.222656 15.046875 21.304688 15.050781 21.363281 15.09375 C 21.46875 15.207031 21.382812 15.382812 21.4375 15.519531 C 21.625 16.476562 21.554688 17.566406 20.910156 18.355469 C 20.171875 19.238281 18.976562 19.597656 17.851562 19.679688 C 17.640625 19.675781 17.40625 19.742188 17.210938 19.679688 C 17.175781 19.359375 17.027344 19.027344 16.742188 18.839844 C 16.5 18.71875 16.605469 18.40625 16.425781 18.238281 C 16.316406 18.089844 16.09375 18.195312 15.972656 18.101562 C 15.867188 17.8125 15.824219 17.453125 15.566406 17.242188 C 15.355469 17.136719 14.933594 17.214844 14.953125 17.503906 C 15.007812 17.9375 15.128906 18.367188 15.171875 18.804688 C 15.175781 18.855469 15.195312 18.945312 15.1875 19.015625 C 15.199219 19.019531 15.210938 19.027344 15.222656 19.039062 C 15.242188 19.058594 15.253906 19.082031 15.25 19.109375 Z M 19.605469 16.425781 C 19.664062 16.671875 19.894531 16.964844 20.1875 16.851562 C 20.484375 16.679688 20.457031 16.304688 20.433594 16.019531 C 20.488281 15.867188 20.75 15.917969 20.8125 15.75 C 20.902344 15.648438 20.792969 15.617188 20.707031 15.632812 C 20.554688 15.628906 20.660156 15.453125 20.578125 15.414062 C 20.453125 15.445312 20.40625 15.601562 20.292969 15.652344 C 20.140625 15.605469 19.964844 15.511719 19.800781 15.597656 C 19.542969 15.777344 19.535156 16.152344 19.605469 16.425781 Z M 18.804688 18.339844 C 18.824219 18.535156 18.753906 18.800781 18.957031 18.929688 C 19.261719 19.035156 19.566406 18.804688 19.761719 18.59375 C 19.796875 18.347656 19.636719 18.113281 19.507812 17.90625 C 19.402344 17.78125 19.296875 17.570312 19.105469 17.554688 C 19.070312 17.554688 19.035156 17.558594 19.003906 17.578125 C 18.792969 17.765625 18.820312 18.082031 18.804688 18.339844 Z M 16.230469 16.253906 C 16.242188 16.457031 16.53125 16.445312 16.601562 16.613281 C 16.667969 16.863281 16.816406 17.179688 17.136719 17.148438 C 17.371094 17.097656 17.46875 16.816406 17.484375 16.601562 C 17.5 16.300781 17.386719 15.886719 17.035156 15.832031 C 16.878906 15.816406 16.78125 15.9375 16.667969 16.015625 C 16.535156 16.097656 16.488281 15.902344 16.382812 15.890625 C 16.28125 15.957031 16.449219 16.046875 16.40625 16.132812 C 16.398438 16.238281 16.238281 16.167969 16.230469 16.253906 Z M 14.074219 17.472656 C 14.089844 17.144531 13.839844 16.855469 13.585938 16.664062 C 13.484375 16.648438 13.511719 16.699219 13.554688 16.757812 C 13.640625 16.894531 13.898438 17 13.734375 17.179688 C 13.6875 17.285156 13.585938 17.460938 13.679688 17.5625 C 13.851562 17.59375 13.699219 17.328125 13.835938 17.292969 C 14 17.246094 13.925781 17.507812 14.074219 17.472656 Z M 18.605469 19.691406 C 18.207031 19.75 17.8125 19.796875 17.410156 19.804688 C 17.320312 19.804688 17.191406 19.796875 17.1875 19.914062 C 17.175781 20.019531 17.105469 20.117188 17.132812 20.21875 C 17.207031 20.320312 17.355469 20.332031 17.464844 20.386719 C 17.617188 20.433594 17.769531 20.519531 17.933594 20.519531 C 18.175781 20.4375 18.390625 20.289062 18.59375 20.144531 C 18.6875 20.09375 18.730469 19.992188 18.710938 19.890625 C 18.707031 19.816406 18.722656 19.691406 18.605469 19.691406 Z M 21.265625 25.121094 C 20.96875 25.074219 20.675781 25.019531 20.382812 24.949219 C 20.367188 24.949219 20.351562 24.949219 20.335938 24.953125 C 20.253906 24.992188 20.257812 25.097656 20.234375 25.171875 C 20.195312 25.332031 20.269531 25.507812 20.417969 25.585938 C 20.601562 25.679688 20.824219 25.714844 21.027344 25.660156 C 21.226562 25.601562 21.355469 25.417969 21.398438 25.226562 C 21.410156 25.152344 21.332031 25.117188 21.265625 25.121094 Z M 21.265625 25.121094 " fill-opacity="1" fill-rule="nonzero"/></g><g clip-path="url(#0fc8660304)"><path fill="#b06649" d="M 22.445312 21.496094 C 21.441406 22.054688 20.855469 21.527344 20.855469 21.527344 C 20.730469 21.148438 19.527344 20.351562 19.527344 20.351562 C 19.929688 20.105469 19.117188 19.925781 19.117188 19.925781 L 18.820312 19.972656 L 18.734375 19.613281 C 22.210938 18.929688 21.570312 15.445312 21.570312 15.445312 C 21.378906 15.34375 21.28125 15.039062 21.28125 15.039062 C 20.535156 15.34375 19.71875 15.289062 19.71875 15.289062 C 19.078125 15.691406 18.367188 15.285156 18.367188 15.285156 C 17.660156 15.71875 17.089844 15.378906 17.089844 15.378906 C 16.242188 15.878906 15.6875 15.734375 15.6875 15.734375 C 15.214844 16.144531 14.945312 15.945312 14.792969 16.089844 C 14.644531 16.238281 14.632812 16.324219 13.945312 16.152344 C 13.253906 15.984375 12.476562 16.511719 12.84375 17.425781 C 13.210938 18.34375 14.160156 18.175781 14.160156 18.175781 C 14.386719 18.753906 15.238281 19.289062 15.238281 19.289062 C 15.160156 19.425781 15.183594 20.015625 15.183594 20.015625 C 12.898438 21.015625 13.15625 22.058594 13.222656 22.285156 C 13.285156 22.511719 12.886719 22.375 12.886719 22.375 C 12.945312 22.636719 12.105469 22.664062 12.105469 22.664062 C 11.527344 22.144531 11.191406 21.175781 11.421875 20.507812 C 11.648438 19.835938 11.664062 19.464844 11.558594 18.4375 C 11.449219 17.410156 11.007812 15.296875 11.007812 15.296875 C 12.867188 14.34375 14.4375 14.671875 15.503906 14.671875 C 16.570312 14.671875 17.226562 14.003906 17.457031 13.78125 C 17.683594 13.558594 18.78125 12.828125 18.78125 12.828125 C 19.894531 12.78125 21.84375 13.40625 21.84375 13.40625 C 21.84375 13.40625 21.890625 14.136719 21.9375 14.582031 C 21.980469 15.03125 22.453125 17.5 22.804688 18.320312 C 23.15625 19.136719 23.453125 20.9375 22.445312 21.496094 Z M 22.445312 21.496094 " fill-opacity="1" fill-rule="nonzero"/></g><g clip-path="url(#22bd2a0d8a)"><path fill="#2e97e5" d="M 17.023438 23.726562 C 17.039062 23.828125 16.992188 23.925781 16.953125 24.015625 C 16.90625 24.125 16.78125 24.164062 16.671875 24.191406 C 16.121094 24.316406 15.554688 24.355469 14.992188 24.335938 C 14.878906 24.320312 14.742188 24.328125 14.648438 24.253906 C 14.546875 24.132812 14.546875 23.96875 14.519531 23.824219 C 14.5 23.757812 14.515625 23.675781 14.59375 23.667969 C 15.238281 23.660156 15.878906 23.65625 16.519531 23.652344 C 16.601562 23.652344 16.6875 23.652344 16.769531 23.652344 C 16.851562 23.664062 16.980469 23.628906 17.023438 23.726562 Z M 20.488281 22.992188 C 20.542969 23.332031 20.621094 23.675781 20.574219 24.023438 C 20.570312 24.113281 20.46875 24.195312 20.523438 24.28125 C 20.601562 24.355469 20.71875 24.28125 20.8125 24.285156 C 21.027344 24.25 21.242188 24.226562 21.449219 24.167969 C 21.527344 24.097656 21.5 23.96875 21.511719 23.871094 C 21.523438 23.441406 21.488281 23.007812 21.351562 22.597656 C 21.125 21.871094 20.65625 21.214844 20.046875 20.742188 C 20.019531 20.730469 19.992188 20.730469 19.964844 20.738281 C 19.859375 20.800781 19.949219 20.921875 19.972656 21.007812 C 20.210938 21.648438 20.359375 22.320312 20.488281 22.992188 Z M 21.839844 24.257812 C 21.824219 24.210938 21.78125 24.175781 21.726562 24.1875 C 21.300781 24.324219 20.847656 24.363281 20.40625 24.4375 C 20.285156 24.496094 20.351562 24.652344 20.339844 24.753906 C 20.339844 24.890625 20.515625 24.875 20.613281 24.910156 C 20.929688 24.972656 21.25 25.042969 21.574219 25.058594 C 21.714844 25.058594 21.726562 24.886719 21.753906 24.789062 C 21.789062 24.613281 21.851562 24.4375 21.839844 24.257812 Z M 18.855469 23.457031 C 18.902344 23.558594 19.039062 23.5 19.125 23.515625 C 19.550781 23.527344 19.980469 23.535156 20.402344 23.570312 C 20.519531 23.539062 20.457031 23.398438 20.449219 23.316406 C 20.394531 23.03125 20.359375 22.742188 20.285156 22.464844 C 20.222656 22.371094 20.109375 22.445312 20.058594 22.507812 C 19.9375 22.625 19.789062 22.792969 19.597656 22.714844 C 19.394531 22.640625 19.210938 22.527344 19.023438 22.421875 C 18.996094 22.40625 18.972656 22.421875 18.941406 22.429688 C 18.863281 22.515625 18.941406 22.640625 18.929688 22.742188 C 18.9375 22.832031 18.90625 22.917969 18.875 23 C 18.855469 23.148438 18.84375 23.308594 18.855469 23.457031 Z M 20.46875 24.070312 C 20.507812 23.96875 20.496094 23.851562 20.496094 23.746094 C 20.484375 23.660156 20.378906 23.660156 20.3125 23.648438 C 19.820312 23.613281 19.324219 23.609375 18.832031 23.605469 C 18.726562 23.609375 18.617188 23.59375 18.507812 23.609375 L 18.503906 23.613281 L 18.5 23.613281 C 18.429688 23.652344 18.457031 23.730469 18.480469 23.789062 C 18.554688 23.988281 18.757812 24.121094 18.96875 24.132812 C 19.402344 24.167969 19.839844 24.175781 20.273438 24.171875 C 20.351562 24.171875 20.441406 24.152344 20.46875 24.070312 Z M 18.582031 23.519531 C 18.644531 23.519531 18.734375 23.527344 18.75 23.453125 C 18.773438 23.324219 18.765625 23.191406 18.773438 23.058594 C 18.773438 23.003906 18.722656 22.976562 18.675781 22.957031 C 18.621094 22.921875 18.613281 22.851562 18.578125 22.804688 C 18.585938 22.789062 18.589844 22.773438 18.585938 22.757812 C 18.585938 22.746094 18.585938 22.730469 18.578125 22.71875 C 18.574219 22.703125 18.5625 22.691406 18.550781 22.683594 C 18.558594 22.675781 18.566406 22.664062 18.570312 22.652344 C 18.574219 22.640625 18.578125 22.628906 18.578125 22.613281 C 18.578125 22.589844 18.578125 22.566406 18.578125 22.542969 C 18.578125 22.535156 18.578125 22.527344 18.578125 22.515625 C 18.574219 22.492188 18.558594 22.464844 18.535156 22.453125 C 18.527344 22.449219 18.519531 22.445312 18.511719 22.441406 C 18.503906 22.4375 18.492188 22.4375 18.480469 22.4375 C 18.453125 22.4375 18.429688 22.449219 18.414062 22.46875 C 18.402344 22.488281 18.398438 22.507812 18.398438 22.527344 C 18.402344 22.5625 18.402344 22.59375 18.40625 22.628906 C 18.40625 22.652344 18.417969 22.671875 18.4375 22.6875 C 18.4375 22.6875 18.4375 22.6875 18.441406 22.6875 C 18.4375 22.691406 18.433594 22.691406 18.433594 22.695312 C 18.417969 22.710938 18.410156 22.730469 18.414062 22.753906 C 18.414062 22.761719 18.414062 22.769531 18.414062 22.78125 C 18.417969 22.796875 18.425781 22.8125 18.4375 22.824219 C 18.417969 22.863281 18.425781 22.917969 18.429688 22.960938 C 18.4375 23.121094 18.433594 23.28125 18.4375 23.441406 C 18.441406 23.511719 18.523438 23.527344 18.582031 23.519531 Z M 18.480469 22.4375 Z M 18.960938 22.265625 C 19.132812 22.382812 19.3125 22.484375 19.496094 22.578125 C 19.582031 22.613281 19.683594 22.679688 19.777344 22.625 C 19.957031 22.519531 20.082031 22.347656 20.203125 22.1875 C 20.238281 22.125 20.191406 22.054688 20.179688 21.988281 C 20.171875 21.941406 20.128906 21.90625 20.082031 21.910156 C 19.730469 21.917969 19.375 21.933594 19.023438 21.945312 C 18.941406 21.953125 18.941406 22.042969 18.933594 22.105469 C 18.921875 22.160156 18.910156 22.226562 18.960938 22.265625 Z M 18.957031 21.785156 C 18.957031 21.832031 19.007812 21.871094 19.054688 21.863281 C 19.382812 21.851562 19.710938 21.84375 20.039062 21.824219 C 20.089844 21.820312 20.125 21.761719 20.109375 21.714844 C 20.050781 21.496094 19.984375 21.277344 19.902344 21.0625 C 19.828125 20.886719 19.753906 20.707031 19.640625 20.554688 C 19.601562 20.507812 19.558594 20.460938 19.503906 20.4375 C 19.488281 20.433594 19.472656 20.433594 19.453125 20.4375 C 19.382812 20.472656 19.316406 20.519531 19.246094 20.558594 C 19.117188 20.632812 18.980469 20.699219 18.84375 20.765625 C 18.800781 20.789062 18.785156 20.84375 18.804688 20.882812 C 18.910156 21.171875 18.949219 21.480469 18.957031 21.785156 Z M 16.964844 21.972656 C 16.898438 22.015625 16.898438 22.105469 16.867188 22.167969 C 16.847656 22.242188 16.792969 22.300781 16.800781 22.378906 C 16.800781 22.46875 16.796875 22.566406 16.742188 22.648438 C 16.707031 22.714844 16.648438 22.777344 16.570312 22.796875 C 16.492188 22.832031 16.523438 22.925781 16.519531 22.992188 C 16.519531 23.125 16.53125 23.257812 16.519531 23.386719 C 16.507812 23.394531 16.496094 23.402344 16.484375 23.414062 C 16.476562 23.40625 16.46875 23.398438 16.457031 23.394531 C 16.425781 23.355469 16.445312 23.292969 16.4375 23.246094 C 16.433594 22.988281 16.433594 22.726562 16.394531 22.46875 C 16.382812 22.421875 16.335938 22.398438 16.289062 22.40625 C 16.042969 22.523438 15.8125 22.667969 15.558594 22.753906 C 15.472656 22.78125 15.394531 22.738281 15.335938 22.679688 C 15.269531 22.632812 15.222656 22.535156 15.136719 22.527344 C 15.050781 22.546875 14.984375 22.609375 14.902344 22.636719 C 14.785156 22.695312 14.660156 22.738281 14.539062 22.789062 C 14.472656 22.84375 14.503906 22.945312 14.492188 23.019531 C 14.492188 23.1875 14.476562 23.355469 14.507812 23.519531 C 14.539062 23.617188 14.660156 23.574219 14.738281 23.582031 C 15.308594 23.570312 15.875 23.570312 16.441406 23.566406 C 16.460938 23.5625 16.472656 23.558594 16.484375 23.550781 C 16.511719 23.566406 16.550781 23.574219 16.582031 23.570312 C 16.722656 23.570312 16.863281 23.574219 17 23.566406 C 17.082031 23.554688 17.078125 23.453125 17.082031 23.390625 C 17.101562 22.945312 17.097656 22.496094 17.085938 22.050781 C 17.082031 21.988281 17.023438 21.953125 16.964844 21.972656 Z M 15.308594 22.390625 C 15.289062 22.40625 15.273438 22.429688 15.269531 22.457031 C 15.269531 22.480469 15.277344 22.503906 15.292969 22.519531 C 15.328125 22.5625 15.367188 22.605469 15.414062 22.640625 C 15.433594 22.65625 15.453125 22.671875 15.476562 22.679688 C 15.496094 22.683594 15.515625 22.683594 15.535156 22.675781 C 15.585938 22.660156 15.636719 22.636719 15.683594 22.617188 C 15.730469 22.59375 15.777344 22.574219 15.824219 22.550781 C 15.847656 22.539062 15.863281 22.515625 15.867188 22.492188 C 15.898438 22.5 15.9375 22.492188 15.964844 22.472656 C 16.089844 22.410156 16.214844 22.34375 16.335938 22.273438 C 16.386719 22.242188 16.378906 22.183594 16.367188 22.136719 C 16.363281 22.085938 16.34375 22.027344 16.285156 22.015625 C 16.238281 22.011719 16.199219 22.046875 16.183594 22.085938 C 16.160156 22.113281 16.125 22.097656 16.101562 22.078125 C 16.035156 22.046875 15.984375 21.996094 15.914062 21.976562 C 15.902344 21.976562 15.890625 21.980469 15.878906 21.980469 C 15.824219 22 15.800781 22.066406 15.835938 22.113281 C 15.875 22.175781 15.90625 22.269531 15.851562 22.332031 C 15.832031 22.351562 15.820312 22.375 15.8125 22.398438 C 15.792969 22.390625 15.769531 22.390625 15.75 22.398438 C 15.6875 22.417969 15.617188 22.421875 15.546875 22.417969 C 15.5 22.414062 15.449219 22.402344 15.40625 22.378906 C 15.390625 22.371094 15.375 22.371094 15.359375 22.371094 C 15.339844 22.371094 15.324219 22.378906 15.308594 22.390625 Z M 15.554688 22.199219 C 15.53125 22.222656 15.523438 22.253906 15.53125 22.285156 C 15.542969 22.316406 15.570312 22.339844 15.605469 22.34375 C 15.617188 22.34375 15.632812 22.34375 15.644531 22.339844 C 15.679688 22.335938 15.710938 22.332031 15.742188 22.316406 C 15.765625 22.308594 15.78125 22.292969 15.792969 22.269531 C 15.800781 22.25 15.800781 22.222656 15.789062 22.203125 C 15.78125 22.179688 15.769531 22.160156 15.753906 22.140625 C 15.734375 22.117188 15.707031 22.105469 15.675781 22.109375 C 15.65625 22.113281 15.636719 22.121094 15.625 22.136719 C 15.601562 22.160156 15.578125 22.179688 15.554688 22.199219 Z M 15.695312 21.941406 C 15.765625 21.839844 15.628906 21.773438 15.566406 21.71875 C 15.316406 21.507812 15.074219 21.285156 14.886719 21.023438 C 14.761719 20.847656 14.6875 20.644531 14.625 20.441406 C 14.609375 20.40625 14.570312 20.382812 14.53125 20.386719 C 14.339844 20.445312 14.183594 20.578125 14.019531 20.683594 C 13.613281 20.972656 13.257812 21.402344 13.234375 21.910156 C 13.210938 22.179688 13.296875 22.484375 13.539062 22.644531 C 13.777344 22.804688 14.089844 22.789062 14.363281 22.734375 C 14.875 22.609375 15.335938 22.3125 15.695312 21.941406 Z M 15.738281 21.730469 C 15.851562 21.804688 15.957031 21.902344 16.082031 21.949219 C 16.199219 21.949219 16.226562 21.8125 16.292969 21.742188 C 16.40625 21.566406 16.539062 21.398438 16.632812 21.210938 C 16.648438 21.125 16.554688 21.101562 16.492188 21.085938 C 16.285156 21 16.121094 20.847656 15.933594 20.734375 C 15.644531 20.625 15.414062 20.394531 15.265625 20.136719 C 15.238281 20.097656 15.199219 20.0625 15.148438 20.066406 C 15.011719 20.113281 14.890625 20.203125 14.769531 20.28125 C 14.679688 20.375 14.753906 20.507812 14.78125 20.613281 C 14.960938 21.078125 15.34375 21.429688 15.738281 21.730469 Z M 15.738281 21.730469 " fill-opacity="1" fill-rule="nonzero"/></g><path fill="#f4718a" d="M 16.988281 18.453125 C 16.953125 18.609375 16.792969 18.71875 16.578125 18.761719 C 16.527344 18.460938 16.285156 18.214844 15.976562 18.160156 C 15.964844 18.042969 15.921875 17.933594 15.851562 17.835938 C 15.996094 17.800781 16.167969 17.796875 16.347656 17.835938 C 16.757812 17.921875 17.046875 18.199219 16.988281 18.453125 Z M 21.410156 17.476562 C 21.351562 17.226562 20.972656 17.089844 20.5625 17.179688 C 20.148438 17.269531 19.863281 17.542969 19.917969 17.796875 C 19.976562 18.050781 20.355469 18.183594 20.765625 18.09375 C 21.179688 18.007812 21.464844 17.730469 21.410156 17.476562 Z M 21.410156 17.476562 " fill-opacity="1" fill-rule="nonzero"/><g clip-path="url(#7ac9b0f18e)"><path fill="#060503" d="M 13.871094 17.300781 C 13.835938 17.367188 13.816406 17.441406 13.828125 17.488281 C 13.84375 17.554688 13.804688 17.621094 13.738281 17.636719 C 13.671875 17.652344 13.601562 17.613281 13.585938 17.546875 C 13.550781 17.40625 13.601562 17.277344 13.648438 17.1875 C 13.683594 17.125 13.71875 17.078125 13.738281 17.050781 C 13.621094 16.898438 13.492188 16.8125 13.492188 16.8125 C 13.433594 16.773438 13.417969 16.699219 13.457031 16.640625 C 13.472656 16.613281 13.503906 16.597656 13.535156 16.589844 C 13.566406 16.582031 13.601562 16.589844 13.628906 16.609375 C 13.628906 16.609375 14.078125 16.890625 14.164062 17.410156 C 14.171875 17.476562 14.125 17.539062 14.058594 17.546875 C 13.992188 17.558594 13.925781 17.511719 13.914062 17.445312 C 13.90625 17.394531 13.890625 17.34375 13.875 17.292969 C 13.875 17.296875 13.871094 17.296875 13.871094 17.300781 Z M 23.632812 14.191406 C 23.492188 14.34375 23.296875 14.441406 23.09375 14.507812 C 22.886719 14.578125 22.675781 14.613281 22.492188 14.632812 C 22.339844 14.652344 22.21875 14.65625 22.132812 14.652344 C 22.144531 14.757812 22.160156 14.867188 22.171875 14.980469 C 22.273438 15.757812 22.40625 16.660156 22.53125 17.125 C 22.652344 17.578125 23.050781 18.398438 23.214844 19.253906 C 23.296875 19.679688 23.320312 20.121094 23.21875 20.535156 C 23.113281 20.953125 22.878906 21.34375 22.457031 21.648438 C 22.402344 21.691406 22.324219 21.679688 22.28125 21.625 C 22.238281 21.570312 22.25 21.492188 22.304688 21.453125 C 22.683594 21.179688 22.882812 20.847656 22.976562 20.480469 C 23.066406 20.109375 23.046875 19.707031 22.96875 19.300781 C 22.8125 18.488281 22.421875 17.691406 22.289062 17.1875 C 22.15625 16.6875 22.023438 15.792969 21.925781 15.011719 C 21.824219 14.230469 21.757812 13.566406 21.757812 13.566406 C 21.757812 13.5625 21.757812 13.5625 21.757812 13.558594 C 21.304688 13.296875 20.691406 13.136719 20.136719 13.054688 C 19.421875 12.945312 18.824219 12.945312 18.824219 12.945312 C 18.8125 12.945312 18.804688 12.945312 18.796875 12.945312 C 18.21875 13.296875 17.730469 13.714844 17.375 14.050781 C 17.277344 14.144531 17.175781 14.226562 17.074219 14.304688 C 17.097656 14.386719 17.136719 14.535156 17.167969 14.703125 C 17.214844 14.957031 17.257812 15.25 17.140625 15.46875 C 17.109375 15.527344 17.035156 15.550781 16.972656 15.519531 C 16.910156 15.488281 16.886719 15.417969 16.917969 15.355469 C 16.96875 15.265625 16.964844 14.984375 16.921875 14.746094 C 16.898438 14.632812 16.875 14.527344 16.855469 14.449219 C 16.617188 14.589844 16.363281 14.691406 16.074219 14.753906 C 16.058594 14.757812 16.042969 14.757812 16.03125 14.761719 C 16.03125 14.800781 16.035156 14.984375 16.011719 15.1875 C 16 15.304688 15.976562 15.425781 15.941406 15.539062 C 15.90625 15.652344 15.859375 15.757812 15.761719 15.832031 C 15.707031 15.871094 15.628906 15.863281 15.585938 15.808594 C 15.542969 15.757812 15.554688 15.679688 15.609375 15.636719 C 15.636719 15.617188 15.675781 15.554688 15.703125 15.464844 C 15.730469 15.378906 15.75 15.269531 15.761719 15.164062 C 15.777344 15.011719 15.78125 14.867188 15.78125 14.800781 C 15.589844 14.824219 15.382812 14.835938 15.160156 14.832031 C 15.160156 14.875 15.160156 14.925781 15.160156 14.984375 C 15.160156 15.109375 15.152344 15.269531 15.125 15.441406 C 15.066406 15.777344 14.921875 16.171875 14.542969 16.390625 C 14.484375 16.425781 14.40625 16.40625 14.371094 16.347656 C 14.335938 16.289062 14.355469 16.214844 14.414062 16.179688 C 14.703125 16.011719 14.828125 15.703125 14.878906 15.398438 C 14.902344 15.25 14.910156 15.101562 14.910156 14.984375 C 14.910156 14.917969 14.910156 14.867188 14.90625 14.820312 C 14.679688 14.808594 14.429688 14.785156 14.164062 14.75 C 12.769531 14.5625 11.328125 15.28125 11.109375 15.394531 C 11.238281 16.097656 11.46875 16.960938 11.613281 17.816406 C 11.761719 18.691406 11.828125 19.554688 11.582031 20.242188 C 11.097656 21.613281 12.148438 22.550781 12.148438 22.550781 C 12.199219 22.597656 12.203125 22.675781 12.15625 22.726562 C 12.109375 22.773438 12.027344 22.777344 11.976562 22.730469 C 11.976562 22.730469 10.8125 21.671875 11.347656 20.164062 C 11.566406 19.550781 11.515625 18.714844 11.367188 17.859375 C 11.222656 17 10.984375 16.121094 10.855469 15.394531 C 10.855469 15.386719 10.855469 15.378906 10.855469 15.371094 C 10.855469 15.375 10.851562 15.332031 10.835938 15.28125 C 10.824219 15.226562 10.804688 15.15625 10.78125 15.070312 C 10.734375 14.898438 10.671875 14.675781 10.613281 14.410156 C 10.503906 13.882812 10.414062 13.199219 10.511719 12.476562 C 10.691406 11.171875 11.515625 9.753906 13.878906 8.972656 C 13.859375 8.894531 13.835938 8.765625 13.855469 8.621094 C 13.890625 8.394531 14.0625 8.125 14.476562 8.03125 C 14.683594 7.988281 14.859375 8.003906 14.996094 8.0625 C 15.132812 8.121094 15.226562 8.222656 15.285156 8.320312 C 15.34375 8.417969 15.378906 8.519531 15.394531 8.597656 C 15.855469 8.519531 16.28125 8.476562 16.675781 8.460938 C 18.4375 8.40625 19.539062 8.972656 20.207031 9.648438 C 21.089844 10.546875 21.21875 11.625 21.222656 11.636719 C 21.460938 11.742188 21.871094 11.933594 22.289062 12.175781 C 22.621094 12.363281 22.957031 12.582031 23.230469 12.816406 C 23.503906 13.050781 23.722656 13.304688 23.789062 13.582031 C 23.847656 13.828125 23.773438 14.042969 23.632812 14.191406 Z M 14.117188 8.894531 C 14.296875 8.84375 14.484375 8.792969 14.679688 8.746094 C 14.839844 8.707031 14.996094 8.675781 15.148438 8.644531 C 15.132812 8.585938 15.113281 8.511719 15.070312 8.445312 C 15.027344 8.378906 14.972656 8.320312 14.894531 8.285156 C 14.8125 8.25 14.699219 8.234375 14.53125 8.269531 C 14.195312 8.34375 14.128906 8.5 14.105469 8.65625 C 14.089844 8.75 14.105469 8.839844 14.117188 8.894531 Z M 10.859375 14.359375 C 10.914062 14.617188 10.972656 14.835938 11.019531 15.003906 C 11.035156 15.054688 11.046875 15.101562 11.058594 15.144531 C 11.3125 15.015625 12.007812 14.691406 12.851562 14.546875 C 12.78125 14.308594 12.574219 13.535156 12.546875 12.613281 C 12.515625 11.503906 12.746094 10.164062 13.828125 9.300781 C 13.855469 9.28125 13.886719 9.273438 13.921875 9.273438 C 13.953125 9.277344 13.984375 9.292969 14.003906 9.320312 C 14.046875 9.371094 14.039062 9.449219 13.984375 9.492188 C 12.992188 10.285156 12.765625 11.535156 12.796875 12.605469 C 12.824219 13.550781 13.050781 14.335938 13.101562 14.511719 C 13.191406 14.5 13.28125 14.492188 13.371094 14.484375 C 13.628906 14.203125 16.234375 11.441406 19.484375 11.371094 C 19.960938 11.359375 20.449219 11.40625 20.949219 11.527344 C 20.886719 11.226562 20.671875 10.472656 20.023438 9.816406 C 19.195312 8.976562 17.660156 8.289062 14.738281 8.984375 C 11.824219 9.671875 10.949219 11.148438 10.757812 12.511719 C 10.664062 13.191406 10.75 13.847656 10.859375 14.359375 Z M 19.183594 12.449219 C 19.808594 12.140625 20.519531 11.929688 21.277344 11.949219 C 21.292969 11.949219 21.308594 11.953125 21.324219 11.953125 C 21.082031 11.839844 20.921875 11.773438 20.917969 11.773438 C 17.542969 10.929688 14.492188 13.703125 13.726562 14.472656 C 13.882812 14.476562 14.039062 14.484375 14.195312 14.507812 C 14.972656 14.609375 15.550781 14.617188 16.019531 14.515625 C 16.488281 14.414062 16.84375 14.210938 17.199219 13.875 C 17.664062 13.4375 18.347656 12.859375 19.183594 12.449219 Z M 23.546875 13.640625 C 23.5 13.445312 23.320312 13.21875 23.066406 13 C 22.8125 12.78125 22.484375 12.570312 22.164062 12.386719 C 22.109375 12.351562 22.054688 12.324219 21.996094 12.292969 C 21.996094 12.292969 21.992188 12.292969 21.988281 12.292969 C 21.015625 12.050781 20.09375 12.273438 19.296875 12.667969 C 19.265625 12.683594 19.234375 12.699219 19.207031 12.714844 C 19.453125 12.726562 19.800781 12.753906 20.175781 12.8125 C 20.914062 12.925781 21.777344 13.148438 22.289062 13.644531 C 22.335938 13.691406 22.335938 13.769531 22.289062 13.816406 C 22.238281 13.867188 22.160156 13.867188 22.109375 13.816406 C 22.085938 13.792969 22.058594 13.769531 22.027344 13.742188 C 22.042969 13.898438 22.070312 14.128906 22.101562 14.40625 C 22.109375 14.40625 22.113281 14.40625 22.117188 14.40625 C 22.15625 14.410156 22.296875 14.410156 22.464844 14.390625 C 22.632812 14.375 22.832031 14.335938 23.011719 14.277344 C 23.191406 14.21875 23.351562 14.132812 23.449219 14.027344 C 23.542969 13.925781 23.585938 13.8125 23.546875 13.640625 Z M 18.265625 15.4375 C 18.320312 15.476562 18.398438 15.46875 18.441406 15.417969 C 18.761719 15.023438 18.738281 14.617188 18.628906 14.335938 C 18.515625 14.054688 18.324219 13.875 18.324219 13.875 C 18.296875 13.851562 18.265625 13.839844 18.234375 13.839844 C 18.199219 13.839844 18.167969 13.855469 18.144531 13.878906 C 18.097656 13.925781 18.101562 14.003906 18.148438 14.050781 C 18.148438 14.050781 18.304688 14.195312 18.394531 14.421875 C 18.484375 14.648438 18.515625 14.933594 18.246094 15.265625 C 18.203125 15.316406 18.210938 15.394531 18.265625 15.4375 Z M 20.410156 14.394531 C 20.609375 14.691406 20.886719 15.023438 21.261719 15.121094 C 21.328125 15.140625 21.398438 15.101562 21.414062 15.035156 C 21.433594 14.972656 21.394531 14.90625 21.328125 14.886719 C 21.066406 14.816406 20.804688 14.535156 20.621094 14.261719 C 20.4375 13.984375 20.332031 13.730469 20.332031 13.730469 C 20.304688 13.667969 20.230469 13.636719 20.167969 13.664062 C 20.105469 13.6875 20.074219 13.757812 20.097656 13.820312 C 20.097656 13.820312 20.097656 13.820312 20.097656 13.824219 C 20.097656 13.824219 20.214844 14.097656 20.410156 14.394531 Z M 16.160156 16.292969 C 16.1875 16.390625 16.257812 16.460938 16.332031 16.507812 C 16.398438 16.546875 16.46875 16.566406 16.53125 16.578125 C 16.582031 16.964844 16.832031 17.253906 17.105469 17.230469 C 17.390625 17.207031 17.59375 16.859375 17.554688 16.453125 C 17.519531 16.046875 17.261719 15.734375 16.976562 15.757812 C 16.84375 15.769531 16.730469 15.851562 16.652344 15.976562 C 16.613281 15.96875 16.582031 15.960938 16.558594 15.949219 C 16.53125 15.933594 16.523438 15.925781 16.519531 15.910156 C 16.5 15.84375 16.429688 15.804688 16.363281 15.824219 C 16.296875 15.84375 16.261719 15.910156 16.277344 15.972656 C 16.304688 16.0625 16.371094 16.128906 16.441406 16.164062 C 16.476562 16.183594 16.515625 16.195312 16.554688 16.207031 C 16.542969 16.246094 16.535156 16.285156 16.53125 16.328125 C 16.503906 16.320312 16.480469 16.308594 16.460938 16.296875 C 16.425781 16.277344 16.410156 16.257812 16.398438 16.222656 C 16.378906 16.15625 16.308594 16.121094 16.242188 16.140625 C 16.175781 16.160156 16.136719 16.230469 16.160156 16.292969 Z M 19.597656 14.21875 C 19.597656 14.21875 19.621094 14.460938 19.636719 14.714844 C 19.640625 14.839844 19.648438 14.972656 19.644531 15.074219 C 19.644531 15.125 19.644531 15.171875 19.640625 15.203125 C 19.636719 15.234375 19.625 15.257812 19.636719 15.234375 C 19.601562 15.292969 19.625 15.367188 19.683594 15.402344 C 19.746094 15.433594 19.820312 15.414062 19.855469 15.355469 C 19.882812 15.304688 19.882812 15.273438 19.890625 15.226562 C 19.894531 15.183594 19.894531 15.132812 19.894531 15.078125 C 19.898438 14.964844 19.890625 14.832031 19.886719 14.703125 C 19.871094 14.441406 19.847656 14.195312 19.847656 14.195312 C 19.84375 14.128906 19.78125 14.082031 19.710938 14.085938 C 19.644531 14.09375 19.59375 14.152344 19.597656 14.21875 Z M 12.941406 22.285156 C 12.820312 22.222656 12.675781 22.015625 12.582031 21.824219 C 12.484375 21.632812 12.433594 21.460938 12.433594 21.460938 C 12.410156 21.394531 12.34375 21.359375 12.277344 21.378906 C 12.210938 21.398438 12.171875 21.46875 12.191406 21.53125 C 12.191406 21.53125 12.25 21.71875 12.355469 21.929688 C 12.460938 22.140625 12.601562 22.386719 12.824219 22.5 C 12.886719 22.53125 12.960938 22.507812 12.996094 22.449219 C 13.027344 22.390625 13.003906 22.316406 12.941406 22.285156 Z M 16.265625 22.109375 C 16.261719 22.113281 16.261719 22.121094 16.265625 22.109375 Z M 19.011719 17.480469 C 19.023438 17.476562 19.039062 17.472656 19.050781 17.472656 C 19.191406 17.460938 19.300781 17.542969 19.394531 17.636719 C 19.488281 17.730469 19.570312 17.851562 19.640625 17.972656 C 19.710938 18.09375 19.765625 18.21875 19.804688 18.320312 C 19.824219 18.371094 19.839844 18.417969 19.851562 18.457031 C 19.855469 18.476562 19.859375 18.496094 19.859375 18.515625 C 19.863281 18.535156 19.867188 18.558594 19.847656 18.601562 C 19.828125 18.640625 19.8125 18.65625 19.789062 18.679688 C 19.765625 18.703125 19.738281 18.726562 19.707031 18.753906 C 19.640625 18.808594 19.558594 18.871094 19.46875 18.921875 C 19.375 18.972656 19.277344 19.015625 19.171875 19.03125 C 19.066406 19.046875 18.9375 19.027344 18.851562 18.9375 C 18.761719 18.847656 18.734375 18.726562 18.71875 18.589844 C 18.703125 18.457031 18.703125 18.304688 18.722656 18.160156 C 18.738281 18.011719 18.765625 17.871094 18.808594 17.753906 C 18.851562 17.636719 18.886719 17.53125 19.011719 17.480469 Z M 19.042969 17.835938 C 19.011719 17.925781 18.984375 18.054688 18.96875 18.183594 C 18.957031 18.316406 18.953125 18.453125 18.964844 18.5625 C 18.980469 18.671875 19.015625 18.753906 19.035156 18.769531 C 19.054688 18.792969 19.078125 18.800781 19.132812 18.789062 C 19.191406 18.78125 19.265625 18.75 19.34375 18.710938 C 19.417969 18.667969 19.488281 18.613281 19.542969 18.570312 C 19.570312 18.546875 19.589844 18.527344 19.605469 18.511719 C 19.601562 18.488281 19.589844 18.449219 19.570312 18.40625 C 19.539062 18.316406 19.484375 18.203125 19.421875 18.09375 C 19.359375 17.980469 19.285156 17.875 19.214844 17.808594 C 19.160156 17.75 19.121094 17.738281 19.09375 17.730469 C 19.09375 17.742188 19.070312 17.761719 19.042969 17.835938 Z M 22.027344 24.160156 C 22.03125 24.265625 22.015625 24.398438 21.988281 24.539062 C 21.960938 24.679688 21.925781 24.828125 21.890625 24.941406 C 21.875 25 21.859375 25.050781 21.84375 25.09375 C 21.832031 25.113281 21.824219 25.132812 21.816406 25.148438 C 21.804688 25.167969 21.800781 25.191406 21.746094 25.21875 C 21.699219 25.242188 21.6875 25.234375 21.667969 25.234375 C 21.648438 25.238281 21.625 25.234375 21.601562 25.234375 C 21.59375 25.234375 21.585938 25.234375 21.574219 25.234375 C 21.558594 25.3125 21.523438 25.429688 21.449219 25.542969 C 21.320312 25.738281 21.046875 25.914062 20.625 25.832031 C 20.410156 25.792969 20.261719 25.707031 20.171875 25.597656 C 20.078125 25.484375 20.050781 25.351562 20.054688 25.238281 C 20.058594 25.152344 20.078125 25.074219 20.097656 25.007812 C 19.484375 25.203125 18.5 25.242188 17.554688 25.238281 C 16.492188 25.230469 15.503906 25.15625 15.214844 25.121094 C 15.058594 25.101562 14.9375 25.042969 14.859375 24.957031 C 14.78125 24.875 14.75 24.773438 14.746094 24.683594 C 14.738281 24.605469 14.746094 24.53125 14.757812 24.476562 C 14.679688 24.460938 14.613281 24.445312 14.554688 24.398438 C 14.429688 24.308594 14.402344 24.167969 14.375 24.007812 C 14.34375 23.847656 14.332031 23.660156 14.324219 23.476562 C 14.316406 23.257812 14.320312 23.046875 14.324219 22.914062 C 14.285156 22.921875 14.25 22.929688 14.210938 22.933594 C 13.921875 22.96875 13.648438 22.925781 13.433594 22.785156 C 13.222656 22.640625 13.082031 22.394531 13.058594 22.070312 C 13.015625 21.421875 13.417969 20.933594 13.816406 20.621094 C 14.214844 20.304688 14.621094 20.148438 14.621094 20.148438 C 14.640625 20.140625 14.65625 20.140625 14.675781 20.140625 C 14.722656 20.105469 14.789062 20.0625 14.859375 20.019531 C 14.925781 19.980469 14.996094 19.9375 15.066406 19.910156 C 15.078125 19.90625 15.089844 19.898438 15.101562 19.894531 C 15.082031 19.820312 15.074219 19.742188 15.074219 19.660156 C 15.074219 19.554688 15.082031 19.453125 15.097656 19.355469 C 14.789062 19.234375 14.546875 18.957031 14.367188 18.710938 C 14.199219 18.476562 14.121094 18.316406 14.097656 18.265625 C 14.023438 18.28125 13.867188 18.324219 13.59375 18.253906 C 13.261719 18.167969 12.871094 17.910156 12.65625 17.304688 C 12.550781 16.996094 12.570312 16.738281 12.679688 16.546875 C 12.789062 16.351562 12.976562 16.234375 13.164062 16.15625 C 13.539062 16.003906 13.949219 16.011719 13.949219 16.011719 C 14.019531 16.011719 14.074219 16.066406 14.074219 16.132812 C 14.074219 16.203125 14.015625 16.253906 13.949219 16.253906 C 13.949219 16.253906 13.570312 16.253906 13.261719 16.382812 C 13.105469 16.445312 12.972656 16.539062 12.898438 16.664062 C 12.828125 16.792969 12.800781 16.960938 12.894531 17.226562 C 13.085938 17.765625 13.390625 17.949219 13.65625 18.019531 C 13.921875 18.089844 14.140625 18.03125 14.140625 18.03125 C 14.199219 18.015625 14.257812 18.042969 14.285156 18.097656 C 14.285156 18.097656 14.394531 18.320312 14.574219 18.570312 C 14.730469 18.785156 14.945312 19.011719 15.160156 19.113281 C 15.164062 19.109375 15.164062 19.105469 15.164062 19.101562 C 15.152344 19.085938 15.144531 19.074219 15.140625 19.054688 C 15.09375 18.878906 15.058594 18.613281 15.019531 18.339844 C 14.980469 18.066406 14.9375 17.789062 14.886719 17.640625 C 14.847656 17.523438 14.871094 17.398438 14.933594 17.3125 C 14.996094 17.226562 15.089844 17.171875 15.1875 17.140625 C 15.289062 17.113281 15.394531 17.109375 15.496094 17.132812 C 15.597656 17.160156 15.699219 17.222656 15.753906 17.324219 C 15.859375 17.515625 15.964844 17.761719 16.019531 18.074219 C 16.085938 18.0625 16.171875 18.058594 16.265625 18.078125 C 16.359375 18.097656 16.464844 18.152344 16.535156 18.257812 C 16.605469 18.359375 16.640625 18.503906 16.636719 18.691406 C 16.636719 18.695312 16.636719 18.699219 16.636719 18.703125 C 17.03125 18.914062 17.242188 19.273438 17.273438 19.636719 C 17.570312 19.640625 18.664062 19.628906 19.652344 19.199219 C 20.234375 18.949219 20.773438 18.558594 21.109375 17.953125 C 21.445312 17.34375 21.585938 16.511719 21.332031 15.351562 C 21.320312 15.289062 21.363281 15.222656 21.429688 15.207031 C 21.496094 15.195312 21.5625 15.238281 21.578125 15.304688 C 21.835938 16.503906 21.699219 17.402344 21.328125 18.066406 C 20.960938 18.734375 20.371094 19.15625 19.753906 19.421875 C 19.457031 19.550781 19.152344 19.644531 18.863281 19.710938 C 18.871094 19.738281 18.875 19.769531 18.882812 19.804688 C 18.894531 19.914062 18.917969 20.046875 18.824219 20.167969 C 18.78125 20.222656 18.722656 20.265625 18.652344 20.316406 C 18.578125 20.371094 18.492188 20.429688 18.402344 20.480469 C 18.316406 20.535156 18.226562 20.585938 18.148438 20.621094 C 18.070312 20.660156 18.015625 20.691406 17.929688 20.695312 C 17.84375 20.699219 17.785156 20.675781 17.691406 20.648438 C 17.601562 20.617188 17.496094 20.582031 17.390625 20.542969 C 17.261719 20.492188 17.140625 20.445312 17.066406 20.414062 C 17.035156 20.464844 16.996094 20.507812 16.953125 20.550781 C 17.011719 20.582031 17.078125 20.617188 17.148438 20.652344 C 17.238281 20.699219 17.328125 20.746094 17.40625 20.78125 C 17.480469 20.820312 17.546875 20.851562 17.558594 20.855469 C 17.566406 20.859375 17.574219 20.859375 17.597656 20.875 C 17.601562 20.875 17.609375 20.882812 17.621094 20.890625 C 17.625 20.898438 17.636719 20.914062 17.636719 20.914062 C 17.636719 20.914062 17.652344 20.949219 17.652344 20.949219 C 17.652344 20.949219 17.652344 21 17.652344 21 C 17.652344 21 17.636719 21.042969 17.636719 21.042969 C 17.636719 21.042969 17.613281 21.066406 17.613281 21.066406 C 17.613281 21.066406 17.601562 21.078125 17.597656 21.082031 C 17.558594 21.105469 17.554688 21.097656 17.550781 21.101562 C 17.542969 21.101562 17.535156 21.105469 17.53125 21.105469 C 17.507812 21.113281 17.476562 21.121094 17.4375 21.152344 C 17.363281 21.21875 17.246094 21.394531 17.253906 21.882812 C 17.261719 22.386719 17.277344 22.910156 17.253906 23.335938 C 17.242188 23.546875 17.222656 23.738281 17.179688 23.890625 C 17.140625 24.046875 17.082031 24.179688 16.960938 24.257812 C 16.847656 24.332031 16.683594 24.367188 16.472656 24.40625 C 16.257812 24.441406 16.003906 24.472656 15.75 24.492188 C 15.5 24.507812 15.246094 24.515625 15.039062 24.503906 C 15.027344 24.503906 15.019531 24.503906 15.007812 24.503906 C 15 24.546875 14.988281 24.605469 14.992188 24.660156 C 14.996094 24.714844 15.011719 24.757812 15.046875 24.796875 C 15.078125 24.832031 15.132812 24.863281 15.246094 24.878906 C 15.503906 24.910156 16.503906 24.988281 17.558594 24.992188 C 18.574219 25 19.664062 24.925781 20.160156 24.726562 C 20.160156 24.679688 20.160156 24.632812 20.160156 24.589844 C 20.164062 24.484375 20.171875 24.390625 20.171875 24.390625 C 20.171875 24.371094 20.179688 24.351562 20.1875 24.335938 C 20.089844 24.339844 19.964844 24.339844 19.832031 24.335938 C 19.558594 24.332031 19.238281 24.316406 18.988281 24.300781 C 18.714844 24.285156 18.507812 24.160156 18.394531 23.984375 C 18.28125 23.8125 18.25 23.601562 18.265625 23.402344 C 18.273438 23.328125 18.269531 23.128906 18.253906 22.886719 C 18.242188 22.644531 18.222656 22.355469 18.203125 22.074219 C 18.171875 21.691406 18.140625 21.328125 18.125 21.140625 C 18.054688 21.160156 17.988281 21.171875 17.929688 21.179688 C 17.863281 21.1875 17.800781 21.136719 17.792969 21.070312 C 17.785156 21.003906 17.835938 20.945312 17.90625 20.9375 C 18.074219 20.917969 18.527344 20.746094 18.902344 20.558594 C 19.089844 20.464844 19.257812 20.367188 19.375 20.289062 C 19.425781 20.253906 19.460938 20.226562 19.488281 20.203125 C 19.476562 20.191406 19.476562 20.1875 19.449219 20.167969 C 19.398438 20.128906 19.328125 20.085938 19.257812 20.046875 C 19.117188 19.972656 18.980469 19.914062 18.980469 19.914062 C 18.917969 19.886719 18.886719 19.8125 18.914062 19.75 C 18.945312 19.691406 19.015625 19.660156 19.082031 19.6875 C 19.082031 19.6875 19.226562 19.753906 19.378906 19.835938 C 19.453125 19.875 19.53125 19.921875 19.601562 19.972656 C 19.667969 20.023438 19.730469 20.066406 19.757812 20.164062 C 19.773438 20.214844 19.753906 20.261719 19.738281 20.289062 C 19.734375 20.292969 19.730469 20.296875 19.730469 20.300781 C 19.855469 20.378906 20.074219 20.527344 20.320312 20.75 C 20.335938 20.722656 20.351562 20.695312 20.367188 20.664062 C 20.410156 20.578125 20.445312 20.46875 20.441406 20.441406 C 20.4375 20.375 20.488281 20.316406 20.558594 20.3125 C 20.628906 20.308594 20.6875 20.359375 20.691406 20.425781 C 20.699219 20.558594 20.644531 20.671875 20.59375 20.769531 C 20.558594 20.835938 20.527344 20.890625 20.507812 20.921875 C 20.640625 21.054688 20.78125 21.210938 20.910156 21.382812 C 21.015625 21.378906 21.089844 21.335938 21.160156 21.25 C 21.234375 21.164062 21.292969 21.039062 21.335938 20.910156 C 21.417969 20.65625 21.4375 20.394531 21.4375 20.394531 C 21.441406 20.328125 21.5 20.277344 21.570312 20.28125 C 21.640625 20.285156 21.691406 20.34375 21.6875 20.410156 C 21.6875 20.410156 21.667969 20.695312 21.570312 20.984375 C 21.523438 21.132812 21.457031 21.28125 21.355469 21.40625 C 21.28125 21.492188 21.183594 21.566406 21.066406 21.601562 C 21.460938 22.203125 21.761719 23.003906 21.675781 24.019531 C 21.710938 24.007812 21.734375 23.996094 21.738281 23.992188 C 21.761719 23.972656 21.792969 23.953125 21.839844 23.945312 C 21.886719 23.941406 21.945312 23.964844 21.972656 23.996094 C 22.027344 24.058594 22.023438 24.109375 22.027344 24.160156 Z M 17.035156 20.871094 C 16.917969 20.808594 16.808594 20.75 16.746094 20.71875 C 16.640625 20.78125 16.527344 20.824219 16.398438 20.847656 C 16.53125 20.925781 16.6875 20.980469 16.761719 20.964844 C 16.796875 20.957031 16.828125 20.964844 16.855469 20.980469 C 16.914062 21.019531 16.929688 21.09375 16.894531 21.152344 C 16.894531 21.152344 16.738281 21.382812 16.578125 21.621094 C 16.550781 21.667969 16.519531 21.714844 16.492188 21.757812 C 16.492188 21.789062 16.5 21.867188 16.507812 21.949219 C 16.515625 22.003906 16.523438 22.058594 16.53125 22.101562 C 16.535156 22.132812 16.539062 22.140625 16.539062 22.148438 C 16.554688 22.152344 16.582031 22.15625 16.609375 22.160156 C 16.636719 22.160156 16.671875 22.15625 16.691406 22.152344 C 16.699219 22.152344 16.691406 22.15625 16.695312 22.15625 C 16.699219 22.144531 16.703125 22.140625 16.707031 22.125 C 16.71875 22.089844 16.738281 22.035156 16.757812 21.96875 C 16.796875 21.839844 16.84375 21.671875 16.890625 21.503906 C 16.964844 21.238281 17.03125 20.980469 17.058594 20.882812 C 17.050781 20.878906 17.042969 20.875 17.035156 20.871094 Z M 16.632812 22.402344 C 16.621094 22.402344 16.609375 22.402344 16.601562 22.402344 C 16.589844 22.402344 16.582031 22.402344 16.574219 22.402344 C 16.574219 22.425781 16.570312 22.453125 16.574219 22.484375 C 16.574219 22.523438 16.578125 22.558594 16.585938 22.589844 C 16.589844 22.582031 16.589844 22.582031 16.59375 22.578125 C 16.621094 22.527344 16.636719 22.457031 16.632812 22.402344 Z M 15.53125 22.589844 C 15.558594 22.582031 15.59375 22.566406 15.636719 22.546875 C 15.683594 22.523438 15.738281 22.5 15.792969 22.46875 C 15.761719 22.484375 15.730469 22.492188 15.699219 22.496094 C 15.59375 22.515625 15.480469 22.507812 15.375 22.457031 C 15.375 22.457031 15.371094 22.453125 15.367188 22.453125 C 15.363281 22.457031 15.359375 22.460938 15.355469 22.464844 C 15.367188 22.476562 15.382812 22.496094 15.398438 22.511719 C 15.425781 22.539062 15.453125 22.566406 15.476562 22.582031 C 15.488281 22.589844 15.496094 22.59375 15.503906 22.597656 C 15.511719 22.597656 15.519531 22.59375 15.53125 22.589844 Z M 15.6875 22.191406 C 15.664062 22.214844 15.640625 22.238281 15.613281 22.257812 C 15.628906 22.257812 15.644531 22.257812 15.65625 22.253906 C 15.679688 22.25 15.699219 22.246094 15.710938 22.238281 C 15.707031 22.234375 15.703125 22.21875 15.6875 22.191406 Z M 15.960938 22.300781 C 15.945312 22.363281 15.902344 22.410156 15.859375 22.4375 C 15.878906 22.425781 15.902344 22.417969 15.921875 22.40625 C 16.089844 22.316406 16.25 22.230469 16.292969 22.207031 C 16.289062 22.1875 16.289062 22.167969 16.285156 22.144531 C 16.28125 22.125 16.277344 22.109375 16.277344 22.089844 C 16.273438 22.09375 16.269531 22.101562 16.265625 22.105469 C 16.265625 22.105469 16.265625 22.105469 16.265625 22.109375 C 16.265625 22.105469 16.265625 22.101562 16.269531 22.101562 C 16.265625 22.109375 16.261719 22.117188 16.257812 22.121094 C 16.222656 22.179688 16.144531 22.199219 16.085938 22.167969 C 16.085938 22.167969 16.007812 22.121094 15.882812 22.039062 C 15.886719 22.042969 15.886719 22.046875 15.890625 22.046875 C 15.929688 22.105469 15.984375 22.1875 15.960938 22.300781 Z M 17.269531 19.878906 C 17.257812 19.988281 17.226562 20.097656 17.183594 20.199219 C 17.257812 20.226562 17.367188 20.269531 17.480469 20.3125 C 17.582031 20.351562 17.683594 20.386719 17.769531 20.414062 C 17.835938 20.433594 17.90625 20.445312 17.917969 20.449219 C 17.929688 20.445312 17.984375 20.429688 18.035156 20.402344 C 18.105469 20.371094 18.1875 20.324219 18.273438 20.273438 C 18.355469 20.222656 18.4375 20.171875 18.5 20.121094 C 18.566406 20.074219 18.617188 20.027344 18.625 20.019531 C 18.628906 20.015625 18.644531 19.921875 18.632812 19.835938 C 18.628906 19.808594 18.625 19.785156 18.621094 19.761719 C 17.996094 19.878906 17.472656 19.882812 17.269531 19.878906 Z M 15.957031 18.761719 C 15.738281 18.761719 15.59375 18.847656 15.488281 19.003906 C 15.382812 19.160156 15.324219 19.394531 15.324219 19.660156 C 15.324219 20.152344 15.808594 20.617188 16.242188 20.617188 C 16.734375 20.597656 17.03125 20.175781 17.027344 19.726562 C 17.023438 19.28125 16.734375 18.832031 15.957031 18.761719 Z M 16.050781 18.320312 C 16.054688 18.386719 16.058594 18.457031 16.058594 18.527344 C 16.175781 18.542969 16.285156 18.566406 16.382812 18.597656 C 16.375 18.496094 16.351562 18.429688 16.328125 18.390625 C 16.292969 18.34375 16.257812 18.324219 16.210938 18.316406 C 16.15625 18.304688 16.09375 18.3125 16.050781 18.320312 Z M 15.269531 18.304688 C 15.292969 18.480469 15.316406 18.652344 15.339844 18.792969 C 15.457031 18.65625 15.617188 18.5625 15.808594 18.53125 C 15.808594 18.039062 15.675781 17.691406 15.535156 17.4375 C 15.515625 17.40625 15.484375 17.382812 15.433594 17.371094 C 15.382812 17.359375 15.316406 17.359375 15.261719 17.375 C 15.203125 17.394531 15.15625 17.421875 15.136719 17.453125 C 15.113281 17.484375 15.105469 17.507812 15.125 17.5625 C 15.1875 17.753906 15.230469 18.03125 15.269531 18.304688 Z M 14.816406 20.34375 C 14.839844 20.726562 15.144531 21.128906 15.488281 21.433594 C 15.800781 21.707031 16.03125 21.835938 16.113281 21.882812 C 16.125 21.863281 16.132812 21.847656 16.148438 21.824219 C 16.210938 21.730469 16.289062 21.609375 16.371094 21.492188 C 16.484375 21.316406 16.546875 21.222656 16.601562 21.144531 C 16.476562 21.113281 16.34375 21.101562 16.242188 21.039062 C 16.085938 20.941406 15.964844 20.835938 15.964844 20.835938 C 15.960938 20.832031 15.953125 20.824219 15.949219 20.816406 C 15.617188 20.71875 15.324219 20.457031 15.175781 20.128906 C 15.171875 20.128906 15.171875 20.132812 15.167969 20.132812 C 15.117188 20.152344 15.050781 20.191406 14.988281 20.226562 C 14.898438 20.28125 14.859375 20.3125 14.816406 20.34375 Z M 15.652344 21.878906 C 15.546875 21.804688 15.433594 21.714844 15.320312 21.613281 C 14.976562 21.3125 14.621094 20.90625 14.558594 20.445312 C 14.414062 20.515625 14.191406 20.636719 13.972656 20.808594 C 13.609375 21.097656 13.273438 21.511719 13.308594 22.054688 C 13.328125 22.324219 13.425781 22.484375 13.574219 22.582031 C 13.722656 22.683594 13.933594 22.71875 14.179688 22.691406 C 14.644531 22.636719 15.222656 22.339844 15.652344 21.878906 Z M 14.578125 22.851562 C 14.574219 22.964844 14.566406 23.210938 14.574219 23.46875 C 14.574219 23.480469 14.574219 23.492188 14.578125 23.5 C 14.769531 23.5 15.234375 23.496094 15.707031 23.492188 C 16.019531 23.488281 16.332031 23.488281 16.574219 23.488281 C 16.695312 23.488281 16.796875 23.488281 16.875 23.492188 C 16.914062 23.492188 16.945312 23.492188 16.96875 23.492188 C 16.980469 23.492188 16.984375 23.492188 16.992188 23.492188 C 16.996094 23.4375 17 23.382812 17.003906 23.324219 C 17.023438 22.949219 17.011719 22.480469 17.003906 22.015625 C 17 22.023438 17 22.03125 16.996094 22.039062 C 16.976562 22.105469 16.957031 22.164062 16.941406 22.207031 C 16.933594 22.230469 16.925781 22.25 16.917969 22.265625 C 16.910156 22.285156 16.914062 22.292969 16.878906 22.328125 C 16.875 22.332031 16.875 22.332031 16.875 22.332031 C 16.902344 22.464844 16.871094 22.597656 16.8125 22.699219 C 16.777344 22.753906 16.738281 22.800781 16.683594 22.832031 C 16.660156 22.847656 16.632812 22.859375 16.597656 22.867188 L 16.609375 23.359375 C 16.613281 23.425781 16.558594 23.484375 16.488281 23.484375 C 16.417969 23.484375 16.363281 23.433594 16.359375 23.363281 L 16.34375 22.710938 C 16.34375 22.703125 16.347656 22.695312 16.347656 22.683594 C 16.347656 22.679688 16.34375 22.675781 16.34375 22.671875 C 16.328125 22.609375 16.324219 22.546875 16.324219 22.488281 C 16.324219 22.480469 16.320312 22.476562 16.320312 22.46875 C 16.25 22.511719 16.148438 22.566406 16.039062 22.621094 C 15.9375 22.671875 15.832031 22.726562 15.742188 22.769531 C 15.695312 22.789062 15.652344 22.804688 15.617188 22.820312 C 15.578125 22.832031 15.554688 22.84375 15.503906 22.84375 C 15.425781 22.84375 15.375 22.8125 15.332031 22.78125 C 15.285156 22.75 15.246094 22.710938 15.214844 22.675781 C 15.1875 22.648438 15.164062 22.621094 15.148438 22.597656 C 14.960938 22.707031 14.769531 22.792969 14.578125 22.851562 Z M 14.703125 24.203125 C 14.707031 24.207031 14.746094 24.226562 14.808594 24.238281 C 14.871094 24.25 14.957031 24.257812 15.050781 24.261719 C 15.246094 24.269531 15.488281 24.265625 15.734375 24.246094 C 15.976562 24.230469 16.222656 24.199219 16.425781 24.164062 C 16.625 24.128906 16.789062 24.074219 16.824219 24.050781 C 16.855469 24.035156 16.902344 23.960938 16.9375 23.832031 C 16.945312 23.804688 16.953125 23.769531 16.957031 23.738281 C 16.9375 23.738281 16.90625 23.734375 16.871094 23.734375 C 16.796875 23.734375 16.695312 23.734375 16.574219 23.734375 C 16.332031 23.734375 16.019531 23.734375 15.710938 23.734375 C 15.25 23.738281 14.792969 23.742188 14.59375 23.746094 C 14.597656 23.824219 14.609375 23.898438 14.621094 23.964844 C 14.648438 24.105469 14.703125 24.203125 14.703125 24.203125 Z M 19.949219 20.75 C 19.960938 20.78125 19.976562 20.8125 19.992188 20.847656 C 20.105469 21.109375 20.210938 21.4375 20.300781 21.773438 C 20.480469 22.449219 20.605469 23.160156 20.644531 23.449219 C 20.679688 23.734375 20.683594 23.921875 20.648438 24.058594 C 20.628906 24.136719 20.59375 24.199219 20.546875 24.246094 C 20.660156 24.230469 20.804688 24.210938 20.953125 24.1875 C 21.113281 24.164062 21.277344 24.132812 21.417969 24.101562 C 21.613281 22.324219 20.570312 21.234375 19.949219 20.75 Z M 19.027344 22.027344 C 19.023438 22.0625 19.019531 22.101562 19.011719 22.136719 C 19.007812 22.15625 19.003906 22.175781 19 22.195312 C 19.050781 22.230469 19.164062 22.304688 19.296875 22.378906 C 19.378906 22.429688 19.472656 22.480469 19.550781 22.515625 C 19.628906 22.550781 19.699219 22.570312 19.707031 22.570312 C 19.703125 22.570312 19.742188 22.558594 19.789062 22.523438 C 19.839844 22.492188 19.894531 22.4375 19.941406 22.382812 C 20.042969 22.277344 20.117188 22.167969 20.117188 22.167969 C 20.125 22.160156 20.128906 22.152344 20.136719 22.148438 C 20.125 22.09375 20.109375 22.042969 20.097656 21.988281 Z M 18.746094 22.6875 C 18.746094 22.707031 18.75 22.71875 18.753906 22.734375 C 18.75 22.710938 18.75 22.675781 18.746094 22.644531 C 18.746094 22.664062 18.742188 22.664062 18.746094 22.6875 Z M 18.757812 22.816406 Z M 18.757812 22.816406 C 18.757812 22.816406 18.761719 22.816406 18.761719 22.816406 C 18.757812 22.816406 18.757812 22.816406 18.757812 22.816406 Z M 18.492188 22.625 C 18.492188 22.585938 18.492188 22.550781 18.492188 22.523438 C 18.488281 22.523438 18.488281 22.523438 18.484375 22.519531 C 18.488281 22.554688 18.488281 22.589844 18.492188 22.625 Z M 18.515625 23.421875 C 18.515625 23.425781 18.515625 23.433594 18.515625 23.441406 C 18.554688 23.441406 18.609375 23.441406 18.671875 23.441406 C 18.671875 23.4375 18.671875 23.433594 18.675781 23.429688 C 18.675781 23.417969 18.675781 23.398438 18.679688 23.375 C 18.683594 23.328125 18.683594 23.269531 18.6875 23.214844 C 18.6875 23.152344 18.691406 23.09375 18.691406 23.050781 C 18.601562 23.027344 18.554688 22.953125 18.53125 22.890625 C 18.511719 22.839844 18.503906 22.789062 18.5 22.738281 C 18.5 22.785156 18.503906 22.832031 18.507812 22.875 C 18.519531 23.117188 18.527344 23.308594 18.515625 23.421875 Z M 18.921875 23.441406 C 19.066406 23.441406 19.226562 23.445312 19.390625 23.445312 C 19.632812 23.449219 19.878906 23.457031 20.078125 23.46875 C 20.179688 23.472656 20.265625 23.480469 20.335938 23.488281 C 20.359375 23.492188 20.378906 23.492188 20.398438 23.492188 C 20.398438 23.488281 20.394531 23.484375 20.394531 23.476562 C 20.371094 23.292969 20.304688 22.898438 20.207031 22.457031 C 20.183594 22.484375 20.15625 22.515625 20.128906 22.546875 C 20.070312 22.609375 20.007812 22.671875 19.941406 22.71875 C 19.871094 22.769531 19.800781 22.816406 19.699219 22.8125 C 19.609375 22.8125 19.53125 22.777344 19.441406 22.734375 C 19.351562 22.695312 19.257812 22.640625 19.167969 22.589844 C 19.097656 22.550781 19.035156 22.507812 18.980469 22.476562 C 18.992188 22.585938 19.015625 22.703125 19.011719 22.8125 C 19.007812 22.875 19 22.941406 18.941406 23 C 18.941406 23.023438 18.941406 23.121094 18.9375 23.222656 C 18.933594 23.28125 18.933594 23.339844 18.929688 23.390625 C 18.925781 23.410156 18.925781 23.425781 18.921875 23.441406 Z M 18.878906 20.839844 C 18.976562 21.101562 19.027344 21.414062 19.039062 21.699219 C 19.039062 21.726562 19.039062 21.753906 19.039062 21.78125 L 20.035156 21.746094 C 19.949219 21.449219 19.859375 21.164062 19.761719 20.941406 C 19.660156 20.714844 19.542969 20.554688 19.476562 20.515625 C 19.351562 20.597656 19.191406 20.6875 19.015625 20.773438 C 18.96875 20.796875 18.925781 20.820312 18.878906 20.839844 Z M 18.367188 21.0625 C 18.382812 21.226562 18.417969 21.628906 18.453125 22.058594 C 18.453125 22.101562 18.457031 22.148438 18.460938 22.195312 C 18.472656 22.207031 18.519531 22.257812 18.574219 22.289062 C 18.605469 22.308594 18.632812 22.316406 18.648438 22.316406 C 18.664062 22.316406 18.671875 22.316406 18.699219 22.289062 C 18.710938 22.273438 18.746094 22.199219 18.765625 22.09375 C 18.785156 21.988281 18.792969 21.851562 18.789062 21.707031 C 18.777344 21.453125 18.730469 21.167969 18.652344 20.945312 C 18.554688 20.988281 18.460938 21.027344 18.367188 21.0625 Z M 20.191406 24.09375 C 20.285156 24.089844 20.367188 24.082031 20.359375 24.082031 C 20.375 24.078125 20.386719 24.085938 20.40625 24.003906 C 20.417969 23.953125 20.425781 23.871094 20.421875 23.75 C 20.414062 23.75 20.40625 23.746094 20.398438 23.742188 C 20.421875 23.753906 20.371094 23.738281 20.308594 23.730469 C 20.246094 23.722656 20.164062 23.71875 20.066406 23.710938 C 19.871094 23.703125 19.625 23.695312 19.386719 23.691406 C 19.035156 23.683594 18.691406 23.683594 18.535156 23.683594 C 18.550781 23.746094 18.570312 23.804688 18.605469 23.855469 C 18.679688 23.964844 18.792969 24.042969 19.007812 24.058594 C 19.25 24.074219 19.566406 24.085938 19.835938 24.09375 C 19.972656 24.09375 20.09375 24.09375 20.191406 24.09375 Z M 21.238281 25.410156 C 21.285156 25.339844 21.3125 25.261719 21.324219 25.207031 C 21.210938 25.191406 21.085938 25.171875 20.957031 25.148438 C 20.789062 25.121094 20.621094 25.085938 20.488281 25.054688 C 20.441406 25.042969 20.398438 25.03125 20.363281 25.019531 C 20.339844 25.078125 20.308594 25.164062 20.304688 25.246094 C 20.304688 25.320312 20.316406 25.386719 20.367188 25.445312 C 20.414062 25.503906 20.5 25.558594 20.671875 25.59375 C 21.015625 25.660156 21.152344 25.542969 21.238281 25.410156 Z M 21.769531 24.230469 C 21.691406 24.265625 21.621094 24.300781 21.515625 24.328125 C 21.355469 24.367188 21.171875 24.402344 20.992188 24.429688 C 20.691406 24.476562 20.496094 24.496094 20.414062 24.503906 C 20.414062 24.539062 20.414062 24.550781 20.410156 24.597656 C 20.410156 24.648438 20.410156 24.699219 20.410156 24.742188 C 20.414062 24.765625 20.414062 24.765625 20.414062 24.78125 C 20.445312 24.789062 20.492188 24.804688 20.550781 24.820312 C 20.671875 24.847656 20.835938 24.882812 21 24.910156 C 21.164062 24.9375 21.332031 24.960938 21.460938 24.976562 C 21.523438 24.984375 21.574219 24.988281 21.613281 24.992188 C 21.625 24.960938 21.636719 24.925781 21.652344 24.875 C 21.683594 24.769531 21.71875 24.628906 21.742188 24.496094 C 21.761719 24.386719 21.769531 24.300781 21.769531 24.230469 Z M 19.488281 22.316406 C 19.488281 22.21875 19.574219 22.136719 19.675781 22.136719 C 19.777344 22.136719 19.859375 22.21875 19.859375 22.316406 C 19.859375 22.414062 19.777344 22.496094 19.675781 22.496094 C 19.574219 22.496094 19.488281 22.414062 19.488281 22.316406 Z M 19.609375 22.316406 C 19.609375 22.351562 19.640625 22.378906 19.675781 22.378906 C 19.710938 22.378906 19.738281 22.351562 19.738281 22.316406 C 19.738281 22.28125 19.710938 22.253906 19.675781 22.253906 C 19.640625 22.253906 19.609375 22.28125 19.609375 22.316406 Z M 19.5 16.277344 C 19.550781 16.683594 19.820312 16.980469 20.105469 16.949219 C 20.386719 16.914062 20.574219 16.558594 20.523438 16.152344 C 20.515625 16.105469 20.507812 16.054688 20.496094 16.007812 C 20.503906 16.007812 20.511719 16.003906 20.519531 16.003906 C 20.664062 15.96875 20.851562 15.898438 20.917969 15.710938 C 20.941406 15.648438 20.90625 15.578125 20.839844 15.554688 C 20.777344 15.53125 20.703125 15.566406 20.679688 15.628906 C 20.660156 15.691406 20.570312 15.742188 20.460938 15.765625 C 20.453125 15.769531 20.441406 15.769531 20.429688 15.773438 C 20.4375 15.769531 20.441406 15.761719 20.449219 15.757812 C 20.496094 15.71875 20.546875 15.675781 20.589844 15.632812 C 20.632812 15.589844 20.675781 15.554688 20.6875 15.46875 C 20.699219 15.402344 20.652344 15.339844 20.582031 15.328125 C 20.515625 15.320312 20.453125 15.367188 20.441406 15.433594 C 20.445312 15.394531 20.4375 15.433594 20.410156 15.464844 C 20.378906 15.496094 20.332031 15.535156 20.289062 15.570312 C 20.277344 15.582031 20.265625 15.589844 20.25 15.597656 C 20.152344 15.515625 20.039062 15.46875 19.917969 15.484375 C 19.636719 15.515625 19.449219 15.871094 19.5 16.277344 Z M 19.5 16.277344 " fill-opacity="1" fill-rule="nonzero"/></g><g fill="#000000" fill-opacity="1"><g transform="translate(8.708459, 7.098751)"><g><path d="M 2.234375 -1.308594 C 2.425781 -1.425781 2.539062 -1.640625 2.53125 -1.808594 L 1.925781 -2.796875 C 1.953125 -2.59375 1.875 -2.386719 1.601562 -2.21875 C 1.277344 -2.019531 1.101562 -2.089844 0.824219 -1.925781 L 0.816406 -1.917969 L 0.796875 -1.957031 L 1.019531 -2.09375 C 1.640625 -2.472656 1.832031 -2.675781 1.59375 -3.066406 C 1.5 -3.222656 1.40625 -3.304688 1.289062 -3.375 L 0.351562 -2.800781 C 0.460938 -2.738281 0.574219 -2.636719 0.648438 -2.511719 C 0.808594 -2.25 0.75 -2.019531 0.496094 -1.867188 L 0.367188 -1.789062 L 0.355469 -1.808594 C 0.199219 -2.070312 0.0703125 -2.371094 0.0117188 -2.597656 L -1.035156 -1.957031 C -0.855469 -1.800781 -0.613281 -1.488281 -0.449219 -1.222656 L -0.269531 -0.925781 C -0.109375 -0.664062 0.0585938 -0.308594 0.117188 -0.0703125 L 1.164062 -0.710938 C 0.980469 -0.867188 0.722656 -1.207031 0.5625 -1.472656 L 0.480469 -1.609375 C 0.492188 -1.628906 0.515625 -1.660156 0.550781 -1.683594 C 1.042969 -1.980469 1.398438 -0.796875 2.234375 -1.308594 Z M 2.234375 -1.308594 "/></g></g></g><g fill="#000000" fill-opacity="1"><g transform="translate(11.337396, 5.562474)"><g><path d="M -0.0664062 -0.527344 L 1.117188 -1 L 0.921875 -1.488281 L -0.261719 -1.015625 Z M -0.0664062 -0.527344 "/></g></g></g><g fill="#000000" fill-opacity="1"><g transform="translate(12.646263, 4.966659)"><g><path d="M 1.5 -0.285156 C 2.367188 -0.476562 2.859375 -0.796875 2.753906 -1.269531 C 2.570312 -2.101562 0.839844 -1.238281 0.777344 -1.53125 C 0.757812 -1.601562 0.941406 -1.671875 1.191406 -1.730469 C 1.621094 -1.824219 2.074219 -1.820312 2.382812 -1.730469 L 2.183594 -2.621094 C 1.863281 -2.65625 1.355469 -2.613281 0.972656 -2.527344 C 0.171875 -2.351562 -0.390625 -2.039062 -0.28125 -1.554688 C -0.0898438 -0.703125 1.640625 -1.5 1.695312 -1.261719 C 1.710938 -1.195312 1.550781 -1.136719 1.296875 -1.078125 C 0.714844 -0.953125 0.1875 -0.964844 -0.175781 -1.148438 L 0.00390625 -0.164062 C 0.363281 -0.136719 1.101562 -0.195312 1.5 -0.285156 Z M 1.5 -0.285156 "/></g></g></g><g fill="#000000" fill-opacity="1"><g transform="translate(15.42429, 4.324979)"><g><path d="M 0.136719 0 L 1.363281 0 C 1.277344 -0.25 1.246094 -0.589844 1.246094 -0.882812 L 1.246094 -0.953125 L 1.898438 -0.953125 L 1.898438 -0.882812 C 1.898438 -0.574219 1.84375 -0.230469 1.78125 0 L 3.007812 0 C 2.933594 -0.230469 2.890625 -0.621094 2.890625 -0.929688 L 2.890625 -1.277344 C 2.890625 -1.585938 2.933594 -1.980469 3.007812 -2.210938 L 1.78125 -2.210938 C 1.847656 -1.980469 1.898438 -1.636719 1.898438 -1.324219 L 1.898438 -1.289062 L 1.246094 -1.289062 L 1.246094 -1.324219 C 1.246094 -1.632812 1.289062 -1.964844 1.363281 -2.210938 L 0.136719 -2.210938 C 0.207031 -1.980469 0.253906 -1.585938 0.253906 -1.277344 L 0.253906 -0.929688 C 0.253906 -0.621094 0.210938 -0.230469 0.136719 0 Z M 0.136719 0 "/></g></g></g><g fill="#000000" fill-opacity="1"><g transform="translate(18.420257, 4.309662)"><g><path d="M 1.511719 0.390625 C 2.371094 0.585938 3.089844 0.351562 3.261719 -0.394531 C 3.429688 -1.136719 2.882812 -1.660156 2.023438 -1.855469 C 1.160156 -2.050781 0.441406 -1.816406 0.273438 -1.070312 C 0.101562 -0.324219 0.652344 0.195312 1.511719 0.390625 Z M 1.683594 -0.351562 C 1.375 -0.421875 1.203125 -0.597656 1.261719 -0.847656 C 1.316406 -1.097656 1.546875 -1.179688 1.855469 -1.109375 C 2.15625 -1.042969 2.328125 -0.867188 2.273438 -0.617188 C 2.214844 -0.367188 1.984375 -0.285156 1.683594 -0.351562 Z M 1.683594 -0.351562 "/></g></g></g><g fill="#000000" fill-opacity="1"><g transform="translate(21.324559, 4.956999)"><g><path d="M 0.121094 0.0585938 L 1.230469 0.582031 C 1.261719 0.347656 1.382812 -0.0117188 1.515625 -0.289062 L 1.539062 -0.332031 L 1.570312 -0.320312 C 1.535156 -0.0195312 1.730469 0.296875 2.117188 0.480469 C 2.664062 0.738281 3.089844 0.574219 3.324219 0.0742188 C 3.566406 -0.433594 3.246094 -0.90625 2.652344 -1.1875 L 1.070312 -1.9375 C 1.035156 -1.699219 0.90625 -1.328125 0.773438 -1.046875 L 0.625 -0.734375 C 0.496094 -0.453125 0.289062 -0.117188 0.121094 0.0585938 Z M 1.949219 -0.214844 C 1.710938 -0.328125 1.621094 -0.484375 1.683594 -0.640625 L 1.730469 -0.738281 C 1.882812 -0.703125 2.003906 -0.65625 2.167969 -0.578125 C 2.375 -0.480469 2.4375 -0.355469 2.386719 -0.246094 C 2.332031 -0.132812 2.144531 -0.125 1.949219 -0.214844 Z M 1.949219 -0.214844 "/></g></g></g><g fill="#000000" fill-opacity="1"><g transform="translate(23.947791, 6.276946)"><g/></g></g><g fill="#000000" fill-opacity="1"><g transform="translate(24.562786, 6.676823)"><g/></g></g><g fill="#000000" fill-opacity="1"><g transform="translate(6.490892, 28.011246)"><g><path d="M 2.03125 1.605469 C 2.210938 1.742188 2.453125 1.769531 2.605469 1.703125 L 3.308594 0.777344 C 3.125 0.875 2.90625 0.878906 2.652344 0.6875 C 2.347656 0.453125 2.347656 0.265625 2.09375 0.0703125 L 2.085938 0.0664062 L 2.113281 0.03125 L 2.320312 0.1875 C 2.898438 0.628906 3.160156 0.730469 3.433594 0.371094 C 3.546875 0.226562 3.589844 0.109375 3.613281 -0.0234375 L 2.738281 -0.691406 C 2.71875 -0.5625 2.664062 -0.421875 2.578125 -0.308594 C 2.390625 -0.0625 2.15625 -0.0390625 1.921875 -0.214844 L 1.800781 -0.308594 L 1.8125 -0.324219 C 2 -0.566406 2.234375 -0.796875 2.421875 -0.929688 L 1.445312 -1.675781 C 1.367188 -1.449219 1.164062 -1.109375 0.976562 -0.863281 L 0.765625 -0.585938 C 0.578125 -0.339844 0.308594 -0.0546875 0.109375 0.0820312 L 1.085938 0.824219 C 1.164062 0.597656 1.386719 0.234375 1.574219 -0.0117188 L 1.671875 -0.136719 C 1.699219 -0.136719 1.734375 -0.125 1.769531 -0.0976562 C 2.226562 0.25 1.25 1.011719 2.03125 1.605469 Z M 2.03125 1.605469 "/></g></g></g><g fill="#000000" fill-opacity="1"><g transform="translate(9.14526, 29.938153)"><g><path d="M 0.121094 0.0625 L 1.203125 0.644531 C 1.242188 0.40625 1.390625 0.0390625 1.539062 -0.230469 L 1.703125 -0.539062 C 1.847656 -0.808594 2.074219 -1.136719 2.246094 -1.304688 L 1.164062 -1.882812 C 1.121094 -1.648438 0.972656 -1.28125 0.828125 -1.007812 L 0.664062 -0.703125 C 0.515625 -0.429688 0.296875 -0.101562 0.121094 0.0625 Z M 0.121094 0.0625 "/></g></g></g><g fill="#000000" fill-opacity="1"><g transform="translate(10.550905, 30.772386)"><g><path d="M 0.128906 0.0429688 L 1.292969 0.433594 C 1.296875 0.230469 1.402344 -0.257812 1.503906 -0.566406 L 1.519531 -0.613281 L 1.570312 -0.597656 L 2.175781 0.730469 L 3.035156 1.015625 L 3.441406 -0.195312 C 3.539062 -0.488281 3.710938 -0.847656 3.847656 -1.039062 L 2.6875 -1.429688 C 2.683594 -1.246094 2.605469 -0.835938 2.503906 -0.535156 L 2.484375 -0.480469 L 2.441406 -0.496094 L 1.914062 -1.683594 L 0.832031 -2.050781 C 0.828125 -1.808594 0.742188 -1.425781 0.644531 -1.132812 L 0.535156 -0.800781 C 0.4375 -0.507812 0.269531 -0.152344 0.128906 0.0429688 Z M 0.128906 0.0429688 "/></g></g></g><g fill="#000000" fill-opacity="1"><g transform="translate(13.997676, 31.88357)"><g><path d="M 1.574219 0.210938 C 2.136719 0.269531 2.644531 0.191406 2.976562 -0.015625 L 3.066406 -0.878906 L 1.601562 -1.03125 L 1.574219 -0.785156 C 1.644531 -0.796875 1.78125 -0.796875 1.847656 -0.789062 L 2.121094 -0.761719 L 2.109375 -0.652344 C 1.992188 -0.613281 1.84375 -0.605469 1.683594 -0.621094 C 1.292969 -0.664062 1.09375 -0.808594 1.113281 -0.988281 C 1.136719 -1.207031 1.417969 -1.289062 1.875 -1.242188 C 2.230469 -1.203125 2.59375 -1.101562 2.769531 -0.972656 L 2.890625 -1.835938 C 2.59375 -1.941406 2.289062 -2.03125 1.824219 -2.082031 C 0.902344 -2.175781 0.214844 -1.824219 0.140625 -1.097656 C 0.0664062 -0.371094 0.652344 0.113281 1.574219 0.210938 Z M 1.574219 0.210938 "/></g></g></g><g fill="#000000" fill-opacity="1"><g transform="translate(17.177568, 32.199849)"><g><path d="M 0.136719 -0.015625 L 1.726562 -0.1875 C 2.597656 -0.28125 3.058594 -0.707031 2.980469 -1.433594 C 2.902344 -2.160156 2.359375 -2.476562 1.488281 -2.382812 L -0.101562 -2.210938 C -0.0078125 -1.992188 0.0820312 -1.605469 0.113281 -1.296875 L 0.152344 -0.953125 C 0.183594 -0.644531 0.183594 -0.25 0.136719 -0.015625 Z M 1.148438 -0.988281 L 1.09375 -1.476562 L 1.5 -1.519531 C 1.785156 -1.550781 1.949219 -1.492188 1.96875 -1.324219 C 1.984375 -1.15625 1.839844 -1.0625 1.550781 -1.03125 Z M 1.148438 -0.988281 "/></g></g></g><g fill="#000000" fill-opacity="1"><g transform="translate(20.467338, 31.824849)"><g><path d="M 1.496094 -0.449219 C 2.332031 -0.726562 2.828125 -1.300781 2.585938 -2.023438 C 2.34375 -2.75 1.605469 -2.914062 0.769531 -2.632812 C -0.0703125 -2.355469 -0.5625 -1.78125 -0.320312 -1.058594 C -0.0820312 -0.332031 0.660156 -0.167969 1.496094 -0.449219 Z M 1.257812 -1.171875 C 0.957031 -1.074219 0.71875 -1.132812 0.640625 -1.375 C 0.558594 -1.621094 0.710938 -1.808594 1.011719 -1.910156 C 1.304688 -2.007812 1.542969 -1.945312 1.625 -1.703125 C 1.707031 -1.460938 1.550781 -1.269531 1.257812 -1.171875 Z M 1.257812 -1.171875 "/></g></g></g><g fill="#000000" fill-opacity="1"><g transform="translate(23.630429, 30.809298)"><g><path d="M 0.113281 -0.0742188 L 1.148438 -0.730469 C 0.988281 -0.867188 0.710938 -1.210938 0.539062 -1.484375 L 0.464844 -1.601562 L 0.496094 -1.621094 L 1.617188 -1.027344 L 1.820312 -1.160156 L 1.765625 -2.429688 L 1.808594 -2.457031 L 1.882812 -2.339844 C 2.054688 -2.066406 2.246094 -1.667969 2.304688 -1.464844 L 3.335938 -2.125 C 3.152344 -2.28125 2.90625 -2.585938 2.742188 -2.847656 L 2.554688 -3.140625 C 2.386719 -3.402344 2.210938 -3.753906 2.148438 -3.988281 L 1.0625 -3.296875 L 1.113281 -2.433594 C 1.125 -2.25 1.136719 -2.195312 1.191406 -2.003906 L 1.15625 -1.980469 C 0.992188 -2.117188 0.933594 -2.160156 0.796875 -2.230469 L 0.0429688 -2.644531 L -1.070312 -1.9375 C -0.882812 -1.78125 -0.640625 -1.476562 -0.472656 -1.214844 L -0.285156 -0.921875 C -0.121094 -0.660156 0.0507812 -0.304688 0.113281 -0.0742188 Z M 0.113281 -0.0742188 "/></g></g></g><g fill="#000000" fill-opacity="1"><g transform="translate(27.097569, 28.428781)"><g/></g></g><g fill="#000000" fill-opacity="1"><g transform="translate(1.258982, 18.614385)"><g><path d="M 0.101562 0 L 1.289062 0 L 1.402344 -0.496094 C 1.296875 -0.472656 1.167969 -0.464844 0.921875 -0.464844 L 0.625 -0.464844 L 0.609375 -0.492188 L 1.101562 -1.605469 C 1.285156 -2.03125 1.351562 -2.246094 1.351562 -2.5 C 1.351562 -2.960938 1.066406 -3.222656 0.675781 -3.222656 C 0.472656 -3.222656 0.308594 -3.167969 0.164062 -3.09375 L 0.164062 -2.617188 C 0.28125 -2.691406 0.417969 -2.75 0.578125 -2.75 C 0.765625 -2.75 0.886719 -2.621094 0.886719 -2.425781 C 0.886719 -2.253906 0.832031 -2.058594 0.671875 -1.699219 L 0.101562 -0.410156 Z M 0.101562 0 "/></g></g></g><g fill="#000000" fill-opacity="1"><g transform="translate(2.748163, 18.614385)"><g><path d="M 0.871094 0.046875 C 1.34375 0.046875 1.617188 -0.476562 1.617188 -1.589844 C 1.617188 -2.710938 1.34375 -3.222656 0.871094 -3.222656 C 0.386719 -3.222656 0.121094 -2.707031 0.121094 -1.589844 C 0.121094 -0.472656 0.386719 0.046875 0.871094 0.046875 Z M 0.871094 -0.402344 C 0.710938 -0.402344 0.585938 -0.671875 0.585938 -1.589844 C 0.585938 -2.511719 0.710938 -2.777344 0.871094 -2.777344 C 1.027344 -2.777344 1.148438 -2.507812 1.148438 -1.589844 C 1.148438 -0.667969 1.027344 -0.402344 0.871094 -0.402344 Z M 0.871094 -0.402344 "/></g></g></g><g fill="#000000" fill-opacity="1"><g transform="translate(29.425367, 18.614385)"><g><path d="M 0.101562 0 L 1.289062 0 L 1.402344 -0.496094 C 1.296875 -0.472656 1.167969 -0.464844 0.921875 -0.464844 L 0.625 -0.464844 L 0.609375 -0.492188 L 1.101562 -1.605469 C 1.285156 -2.03125 1.351562 -2.246094 1.351562 -2.5 C 1.351562 -2.960938 1.066406 -3.222656 0.675781 -3.222656 C 0.472656 -3.222656 0.308594 -3.167969 0.164062 -3.09375 L 0.164062 -2.617188 C 0.28125 -2.691406 0.417969 -2.75 0.578125 -2.75 C 0.765625 -2.75 0.886719 -2.621094 0.886719 -2.425781 C 0.886719 -2.253906 0.832031 -2.058594 0.671875 -1.699219 L 0.101562 -0.410156 Z M 0.101562 0 "/></g></g></g><g fill="#000000" fill-opacity="1"><g transform="translate(30.914548, 18.614385)"><g><path d="M 0.523438 0.046875 C 1.003906 0.046875 1.363281 -0.355469 1.363281 -0.96875 C 1.363281 -1.402344 1.125 -1.78125 0.734375 -1.78125 L 0.722656 -1.78125 L 0.722656 -1.8125 L 0.734375 -1.8125 C 1.082031 -1.8125 1.316406 -2.089844 1.316406 -2.472656 C 1.316406 -2.988281 1.027344 -3.222656 0.550781 -3.222656 C 0.359375 -3.222656 0.234375 -3.195312 0.109375 -3.148438 L 0.109375 -2.730469 C 0.242188 -2.777344 0.328125 -2.8125 0.496094 -2.8125 C 0.726562 -2.8125 0.875 -2.664062 0.875 -2.394531 C 0.875 -2.078125 0.671875 -1.9375 0.34375 -1.9375 L 0.28125 -1.9375 L 0.28125 -1.632812 L 0.339844 -1.632812 C 0.667969 -1.632812 0.890625 -1.398438 0.890625 -1.058594 C 0.890625 -0.664062 0.703125 -0.410156 0.453125 -0.410156 C 0.289062 -0.410156 0.199219 -0.445312 0.0664062 -0.496094 L 0.0664062 -0.0351562 C 0.195312 0.0117188 0.332031 0.046875 0.523438 0.046875 Z M 0.523438 0.046875 "/></g></g></g></svg>